<svg width="67" height="66" viewBox="0 0 67 66" fill="none" xmlns="http://www.w3.org/2000/svg">
<rect x="0.970947" width="65.9709" height="65.9709" rx="4.39806" fill="#00EF8A"/>
<path d="M46.6575 23.076C44.3216 21.8947 41.8166 21.0245 39.1975 20.526C39.1498 20.5164 39.1021 20.5404 39.0775 20.5885C38.7554 21.22 38.3985 22.0438 38.1486 22.6913C35.3316 22.2265 32.529 22.2265 29.7698 22.6913C29.5198 22.0294 29.15 21.22 28.8264 20.5885C28.8018 20.542 28.7542 20.518 28.7065 20.526C26.0888 21.0229 23.5838 21.8931 21.2464 23.076C21.2262 23.0856 21.2088 23.1016 21.1973 23.1224C16.4459 30.9453 15.1443 38.5759 15.7828 46.1119C15.7857 46.1488 15.8045 46.1841 15.8305 46.2065C18.9653 48.7436 22.002 50.2838 24.9822 51.3047C25.0299 51.3208 25.0805 51.3015 25.1108 51.2582C25.8158 50.1973 26.4442 49.0786 26.983 47.9021C27.0148 47.8332 26.9845 47.7515 26.9195 47.7243C25.9227 47.3075 24.9736 46.7995 24.0605 46.2225C23.9883 46.176 23.9825 46.0622 24.049 46.0077C24.2411 45.8491 24.4333 45.684 24.6168 45.5173C24.6499 45.4868 24.6962 45.4804 24.7352 45.4996C30.7333 48.5176 37.2269 48.5176 43.1543 45.4996C43.1933 45.4788 43.2395 45.4853 43.2742 45.5157C43.4577 45.6824 43.6498 45.8491 43.8434 46.0077C43.9098 46.0622 43.9055 46.176 43.8333 46.2225C42.9203 46.8107 41.9711 47.3075 40.9729 47.7227C40.9079 47.7499 40.879 47.8332 40.9108 47.9021C41.4612 49.0769 42.0896 50.1956 42.7816 51.2567C42.8105 51.3015 42.8625 51.3208 42.9101 51.3047C45.9049 50.2838 48.9415 48.7436 52.0763 46.2065C52.1038 46.1841 52.1211 46.1504 52.124 46.1135C52.8882 37.4011 50.844 29.833 46.7052 23.124C46.6951 23.1016 46.6778 23.0856 46.6575 23.076ZM27.8788 41.5233C26.0729 41.5233 24.585 39.6962 24.585 37.4524C24.585 35.2086 26.0441 33.3815 27.8788 33.3815C29.7278 33.3815 31.2014 35.2246 31.1725 37.4524C31.1725 39.6962 29.7134 41.5233 27.8788 41.5233ZM40.057 41.5233C38.2512 41.5233 36.7632 39.6962 36.7632 37.4524C36.7632 35.2086 38.2223 33.3815 40.057 33.3815C41.9061 33.3815 43.3796 35.2246 43.3508 37.4524C43.3508 39.6962 41.9061 41.5233 40.057 41.5233Z" fill="#141017"/>
</svg>
