<svg width="66" height="66" viewBox="0 0 66 66" fill="none" xmlns="http://www.w3.org/2000/svg">
<rect width="65.9709" height="65.9709" rx="4.39806" fill="#00EF8A"/>
<path d="M25.6134 49.8447C40.56 49.8447 48.7327 37.4334 48.7327 26.677C48.7327 26.3224 48.7327 25.9678 48.7158 25.6301C50.2998 24.4818 51.6816 23.0465 52.7769 21.4085C51.3277 22.0502 49.7606 22.4892 48.1092 22.6919C49.7943 21.6787 51.0749 20.0914 51.6816 18.1833C50.1144 19.112 48.3788 19.7875 46.5252 20.159C45.0423 18.5717 42.936 17.5923 40.5937 17.5923C36.1114 17.5923 32.4716 21.2397 32.4716 25.7314C32.4716 26.373 32.539 26.9978 32.6907 27.5888C25.9335 27.2511 19.9515 24.009 15.941 19.0783C15.2501 20.2772 14.8457 21.6787 14.8457 23.1647C14.8457 25.9847 16.278 28.4838 18.4686 29.936C17.1374 29.9022 15.8905 29.5307 14.7952 28.9229C14.7952 28.9566 14.7952 28.9904 14.7952 29.0242C14.7952 32.9755 17.5924 36.2514 21.3164 37.0113C20.6424 37.197 19.9178 37.2983 19.1764 37.2983C18.654 37.2983 18.1485 37.2477 17.6429 37.1464C18.6708 40.3885 21.6703 42.7357 25.2258 42.8032C22.4454 44.9815 18.9405 46.2817 15.1322 46.2817C14.475 46.2817 13.8347 46.248 13.1943 46.1635C16.7499 48.4938 21.03 49.8447 25.6134 49.8447Z" fill="#141017"/>
</svg>
