<svg width="964" height="955" viewBox="0 0 964 955" fill="none" xmlns="http://www.w3.org/2000/svg">
<g clip-path="url(#clip0_7_72)">
<path d="M964 0H0V955H964V0Z" fill="#9269B0"/>
<path d="M964 771.077H0V787.947H964V771.077Z" fill="#3D235D"/>
<path d="M964 787.947H0V955H964V787.947Z" fill="#4B2B75"/>
<path d="M488.997 698.523C485.842 698.523 483.372 696.466 483.372 693.997V643.524C483.372 628.575 497.367 615.682 516.027 613.625L561.03 608.687C564.048 608.276 566.93 610.059 567.341 612.528C567.753 614.996 565.558 617.191 562.539 617.602L517.536 622.54C504.502 624.049 494.623 633.101 494.623 643.524V693.997C494.623 696.466 492.153 698.523 488.997 698.523Z" fill="#16253E"/>
<path d="M489.409 657.24C483.235 657.24 478.296 653.125 478.296 647.913C478.296 628.986 495.309 612.665 517.811 610.059C523.848 609.373 529.473 612.939 530.296 618.014C531.119 623.088 526.866 627.752 520.829 628.437C509.167 629.809 500.523 638.175 500.523 647.913C500.523 653.125 495.583 657.24 489.409 657.24Z" fill="#16253E"/>
<path d="M489.409 920.575C703.855 920.575 877.698 904.916 877.698 885.6C877.698 866.285 703.855 850.626 489.409 850.626C274.963 850.626 101.12 866.285 101.12 885.6C101.12 904.916 274.963 920.575 489.409 920.575Z" fill="#3D235E"/>
<path d="M789.064 224.932H510.127V237.276H789.064V224.932Z" fill="#AAD6FA"/>
<path d="M789.064 219.171H510.127V232.338H789.064V219.171Z" fill="#CC9F7B"/>
<path d="M224.604 250.58C259.84 250.58 288.404 222.026 288.404 186.803C288.404 151.58 259.84 123.027 224.604 123.027C189.368 123.027 160.804 151.58 160.804 186.803C160.804 222.026 189.368 250.58 224.604 250.58Z" fill="#AAD6FA"/>
<path d="M224.604 240.156C259.158 240.156 287.169 212.155 287.169 177.614C287.169 143.073 259.158 115.072 224.604 115.072C190.05 115.072 162.039 143.073 162.039 177.614C162.039 212.155 190.05 240.156 224.604 240.156Z" fill="#F5FBFF"/>
<path d="M281.658 191.194C289.234 159.672 269.812 127.979 238.279 120.406C206.745 112.833 175.04 132.247 167.464 163.769C159.888 195.291 179.309 226.984 210.843 234.557C242.377 242.131 274.082 222.716 281.658 191.194Z" stroke="#D1CCC9" stroke-width="1.20824" stroke-miterlimit="10"/>
<path d="M223.644 177.614C223.781 177.477 223.781 177.202 223.781 177.065C223.781 176.928 223.781 176.928 223.644 176.791C223.644 176.791 223.644 176.654 223.507 176.654C223.369 176.654 222.958 176.517 222.683 176.517C222.409 176.517 221.997 176.379 221.86 176.379C221.723 176.379 221.86 176.242 221.86 176.242V175.968V175.419V172.951V168.013C221.997 164.721 221.997 161.43 222.134 158.275C222.272 154.983 222.409 151.692 222.683 148.537C222.958 145.246 223.232 141.954 223.644 138.799C223.644 138.662 223.781 138.525 224.055 138.525C224.193 138.525 224.33 138.662 224.33 138.799C224.741 142.091 225.016 145.383 225.29 148.537C225.565 151.829 225.702 155.121 225.839 158.275C225.976 161.567 225.976 164.859 226.113 168.013V172.951V175.419V175.968V176.242V176.379C225.976 176.379 225.565 176.517 225.29 176.517C224.879 176.517 224.604 176.654 224.467 176.654C224.33 176.654 224.33 176.791 224.33 176.791C224.33 176.928 224.33 176.928 224.193 177.065C224.193 177.202 224.193 177.477 224.33 177.614C224.467 177.751 224.467 178.025 224.193 178.162C224.055 178.3 223.781 178.3 223.644 178.025C223.507 177.888 223.507 177.751 223.644 177.614Z" fill="#16253E"/>
<path d="M224.604 180.083L192.087 178.025C191.812 178.025 191.675 177.888 191.675 177.614C191.675 177.477 191.812 177.202 192.087 177.202L224.604 175.145C225.976 175.008 227.074 176.105 227.211 177.477C227.348 178.848 226.251 179.945 224.879 180.083C224.741 180.083 224.604 180.083 224.604 180.083Z" fill="#16253E"/>
<path d="M259.317 129.061C266.177 138.799 270.293 150.732 270.293 163.624C270.293 196.678 243.538 223.423 210.472 223.423C197.575 223.423 185.638 219.308 175.896 212.451C186.736 227.675 204.572 237.687 224.741 237.687C257.808 237.687 284.563 210.942 284.563 177.888C284.563 157.726 274.684 139.897 259.317 129.061Z" fill="#E5EFF4"/>
<path d="M229.543 177.614C229.543 180.906 226.799 183.649 223.506 183.649C220.214 183.649 217.469 180.906 217.469 177.614C217.469 174.322 220.214 171.579 223.506 171.579C226.799 171.579 229.543 174.185 229.543 177.614Z" fill="#16253E"/>
<path d="M224.604 131.667C224.055 131.667 223.644 131.256 223.644 130.707V116.443C223.644 115.895 224.055 115.483 224.604 115.483C225.153 115.483 225.565 115.895 225.565 116.443V130.707C225.427 131.256 225.016 131.667 224.604 131.667Z" fill="#16253E"/>
<path d="M224.604 239.607C224.055 239.607 223.644 239.196 223.644 238.647V224.383C223.644 223.835 224.055 223.423 224.604 223.423C225.153 223.423 225.565 223.835 225.565 224.383V238.647C225.427 239.196 225.016 239.607 224.604 239.607Z" fill="#16253E"/>
<path d="M191.401 145.383C191.126 145.383 190.852 145.246 190.715 145.108L180.699 135.096C180.287 134.685 180.287 134.136 180.699 133.725C181.11 133.313 181.659 133.313 182.071 133.725L192.087 143.737C192.498 144.148 192.498 144.697 192.087 145.108C191.949 145.246 191.675 145.383 191.401 145.383Z" fill="#16253E"/>
<path d="M267.686 221.64C267.412 221.64 267.138 221.503 267 221.366L256.984 211.354C256.573 210.942 256.573 210.394 256.984 209.982C257.396 209.571 257.945 209.571 258.357 209.982L268.372 219.994C268.784 220.406 268.784 220.954 268.372 221.366C268.235 221.64 267.961 221.64 267.686 221.64Z" fill="#16253E"/>
<path d="M177.68 178.437H163.411C162.862 178.437 162.45 178.025 162.45 177.477C162.45 176.928 162.862 176.517 163.411 176.517H177.68C178.229 176.517 178.641 176.928 178.641 177.477C178.641 178.025 178.229 178.437 177.68 178.437Z" fill="#16253E"/>
<path d="M285.66 178.437H271.391C270.842 178.437 270.43 178.025 270.43 177.477C270.43 176.928 270.842 176.517 271.391 176.517H285.66C286.209 176.517 286.621 176.928 286.621 177.477C286.621 178.025 286.209 178.437 285.66 178.437Z" fill="#16253E"/>
<path d="M181.385 221.64C181.11 221.64 180.836 221.503 180.699 221.366C180.287 220.954 180.287 220.406 180.699 219.994L190.715 209.982C191.126 209.571 191.675 209.571 192.087 209.982C192.498 210.394 192.498 210.942 192.087 211.354L182.071 221.366C181.796 221.64 181.659 221.64 181.385 221.64Z" fill="#16253E"/>
<path d="M257.671 145.383C257.396 145.383 257.122 145.246 256.984 145.108C256.573 144.697 256.573 144.148 256.984 143.737L267 133.725C267.412 133.313 267.961 133.313 268.372 133.725C268.784 134.136 268.784 134.685 268.372 135.096L258.357 145.108C258.219 145.246 257.945 145.383 257.671 145.383Z" fill="#16253E"/>
<path d="M224.604 243.448C188.245 243.448 158.746 213.96 158.746 177.614C158.746 141.268 188.245 111.78 224.604 111.78C260.963 111.78 290.462 141.268 290.462 177.614C290.462 213.96 260.826 243.448 224.604 243.448ZM224.604 118.226C191.949 118.226 165.332 144.834 165.332 177.477C165.332 210.119 191.949 236.727 224.604 236.727C257.259 236.727 283.877 210.119 283.877 177.477C283.877 144.834 257.259 118.226 224.604 118.226Z" fill="#16375E"/>
<path d="M692.06 522.829C692.06 523.652 692.06 524.475 691.923 525.435C691.923 526.532 691.786 527.63 691.786 528.727C691.649 530.373 691.649 532.019 691.512 533.527C691.374 534.762 691.374 536.133 691.237 537.368C691.237 537.642 691.237 538.053 691.1 538.328C690.963 539.151 690.963 539.973 690.826 540.796C690.688 541.894 690.551 542.991 690.414 544.088C690.14 546.694 689.728 549.163 689.454 551.769C689.316 552.729 689.179 553.689 689.042 554.649C688.63 557.392 688.219 559.998 687.67 562.741C687.396 564.387 687.121 566.033 686.847 567.541C686.572 569.187 686.298 570.833 686.023 572.479C685.475 575.771 684.789 578.925 684.24 582.217C683.691 585.508 683.005 588.663 682.593 591.955C681.77 596.892 680.947 601.693 680.261 606.63C679.986 609.099 679.575 611.43 679.438 613.899C679.3 614.722 679.3 615.545 679.163 616.505C679.163 616.779 679.163 617.054 679.026 617.328C678.752 619.934 678.477 622.677 678.34 625.283C678.34 626.243 678.203 627.34 678.203 628.3C678.203 628.437 678.203 628.575 678.203 628.712C678.203 629.809 678.066 630.769 678.066 631.866C677.791 642.564 678.614 653.262 680.947 664.097C681.084 664.783 681.084 665.469 681.084 666.155C681.084 666.429 680.947 666.703 680.947 666.978V667.115C680.947 667.389 680.81 667.526 680.673 667.801C680.673 667.801 680.673 667.801 680.673 667.938C680.535 668.212 680.398 668.349 680.261 668.623C680.124 668.761 679.986 668.898 679.849 669.172L679.712 669.309L679.575 669.446C679.438 669.584 679.3 669.721 679.163 669.721C679.026 669.721 678.889 669.858 678.889 669.858C678.752 669.995 678.477 670.132 678.203 670.132C677.928 670.269 677.791 670.269 677.517 670.269H677.38C677.105 670.269 676.831 670.406 676.556 670.406H562.265C558.835 670.406 555.13 667.663 554.17 664.235C554.033 663.686 553.895 663.137 553.758 662.589L553.621 661.766L552.798 658.474V658.2C549.505 643.387 549.093 628.575 549.916 613.762C550.054 612.391 550.054 611.019 550.191 609.647C551.151 595.246 553.209 580.708 554.993 566.307C555.13 564.935 555.267 563.564 555.542 562.192C557.188 547.654 558.286 532.979 557.463 518.44C557.326 517.069 557.326 515.56 557.188 514.189C556.502 506.508 555.267 498.827 553.209 491.284C552.249 487.718 554.17 484.701 557.737 484.701H681.77C685.337 484.701 689.179 487.718 690.002 491.284C691.512 501.57 692.198 512.131 692.06 522.829Z" fill="#B72A2D"/>
<path d="M556.777 518.166C574.75 520.361 592.45 521.183 610.835 520.772C613.717 520.772 616.598 520.909 619.479 520.909C636.904 520.909 653.78 519.812 670.931 517.343C675.733 516.657 680.672 515.972 685.475 515.012L685.886 510.76C680.81 511.72 675.596 512.406 670.519 513.091C650.625 515.834 631.142 516.932 610.698 516.52C592.175 516.932 574.339 515.972 556.228 513.777L556.777 518.166Z" fill="#991A1C"/>
<path d="M554.856 561.918C573.378 564.25 591.627 565.21 610.835 564.798C615.912 564.935 620.851 564.935 625.791 564.798C640.471 564.524 654.741 563.564 669.284 561.507C673.401 560.958 677.654 560.272 681.77 559.586L681.358 563.838C677.105 564.524 672.852 565.21 668.736 565.758C652.408 567.953 636.218 568.913 619.616 568.913C617.695 568.913 615.637 568.913 613.716 568.913C612.756 568.913 611.796 568.913 610.972 568.913C591.764 569.324 573.378 568.364 554.581 566.033L554.856 561.918Z" fill="#991A1C"/>
<path d="M677.517 608.55L677.242 612.802C672.715 613.488 668.187 614.174 663.659 614.722C646.234 616.78 628.946 617.602 610.973 617.191C608.091 617.191 605.073 617.328 602.191 617.328C584.355 617.328 567.067 616.094 549.505 613.625C549.642 612.253 549.642 610.882 549.779 609.51C570.223 612.391 589.98 613.488 610.973 613.076C629.221 613.488 646.371 612.665 663.934 610.608C668.324 609.922 672.852 609.373 677.517 608.55Z" fill="#991A1C"/>
<path d="M552.249 657.926C571.732 660.532 590.666 661.629 610.835 661.217C630.044 661.629 648.155 660.669 666.678 658.337C668.873 658.063 671.068 657.788 673.401 657.377L672.989 661.629C671.205 661.903 669.422 662.177 667.638 662.314C651.585 664.372 635.944 665.332 619.617 665.332C616.735 665.332 613.854 665.332 610.835 665.195C591.078 665.606 572.418 664.646 553.347 662.177L552.249 657.926Z" fill="#991A1C"/>
<path d="M676.145 670.132C672.715 670.132 669.01 667.389 668.05 663.96C652.134 606.356 682.319 548.751 666.678 491.01C665.717 487.444 667.638 484.426 671.205 484.426C674.498 484.426 677.654 484.426 680.947 484.426C684.514 484.426 688.356 487.444 689.179 491.01C701.528 548.614 668.187 606.219 680.81 663.96C681.633 667.389 679.575 670.132 676.145 670.132Z" fill="#921719"/>
<path d="M558.835 838.008L554.444 838.694L546.349 840.066L488.86 849.392C487.214 849.666 485.979 851.038 485.979 852.821V865.576H466.084V840.888C466.084 836.911 468.691 833.482 472.533 832.385L546.212 811.949L554.307 809.755L556.365 809.206L558.835 838.008Z" fill="#16253E"/>
<path d="M473.493 888.618C482.283 888.618 489.409 881.495 489.409 872.708C489.409 863.921 482.283 856.798 473.493 856.798C464.703 856.798 457.578 863.921 457.578 872.708C457.578 881.495 464.703 888.618 473.493 888.618Z" fill="#082434"/>
<path d="M473.493 882.583C478.949 882.583 483.372 878.162 483.372 872.708C483.372 867.254 478.949 862.833 473.493 862.833C468.037 862.833 463.615 867.254 463.615 872.708C463.615 878.162 468.037 882.583 473.493 882.583Z" fill="#16375E"/>
<path d="M554.444 809.755V838.694L546.349 840.066V811.949L554.444 809.755Z" fill="#0F192B"/>
<path d="M581.062 721.702H558.561V800.84H581.062V721.702Z" fill="#16253E"/>
<path d="M653.506 865.576H673.401V840.888C673.401 836.911 670.794 833.482 666.952 832.385L583.12 809.206L580.788 838.008L650.762 849.392C652.408 849.666 653.643 851.038 653.643 852.821V865.576H653.506Z" fill="#16253E"/>
<path d="M665.443 888.618C674.233 888.618 681.358 881.495 681.358 872.708C681.358 863.921 674.233 856.798 665.443 856.798C656.653 856.798 649.527 863.921 649.527 872.708C649.527 881.495 656.653 888.618 665.443 888.618Z" fill="#082434"/>
<path d="M665.443 882.583C670.899 882.583 675.321 878.162 675.321 872.708C675.321 867.254 670.899 862.833 665.443 862.833C659.987 862.833 655.564 867.254 655.564 872.708C655.564 878.162 659.987 882.583 665.443 882.583Z" fill="#16375E"/>
<path d="M579.69 809.206H559.933V863.382H579.69V809.206Z" fill="#16253E"/>
<path d="M569.811 888.344C578.601 888.344 585.727 881.22 585.727 872.434C585.727 863.647 578.601 856.524 569.811 856.524C561.021 856.524 553.895 863.647 553.895 872.434C553.895 881.22 561.021 888.344 569.811 888.344Z" fill="#082434"/>
<path d="M569.811 882.309C575.267 882.309 579.69 877.887 579.69 872.434C579.69 866.98 575.267 862.559 569.811 862.559C564.355 862.559 559.933 866.98 559.933 872.434C559.933 877.887 564.355 882.309 569.811 882.309Z" fill="#16375E"/>
<path d="M581.062 723.485H558.561V729.245H581.062V723.485Z" fill="#0F192B"/>
<path d="M579.69 842.534H559.933V849.529H579.69V842.534Z" fill="#0D1525"/>
<path d="M585.178 809.755V838.694L593.273 840.066V811.949L585.178 809.755Z" fill="#0F192B"/>
<path d="M582.16 845.552H557.326C553.484 845.552 550.328 842.397 550.328 838.557V792.199H589.157V838.557C589.157 842.397 586.001 845.552 582.16 845.552Z" fill="#16253E"/>
<path d="M600.682 712.924V718.273C600.682 722.114 597.527 725.268 593.548 725.268H546.075C542.096 725.268 538.94 722.114 538.94 718.273V712.924C538.94 709.084 542.096 705.929 546.075 705.929H593.685C597.527 705.929 600.682 709.084 600.682 712.924Z" fill="#16253E"/>
<path d="M600.682 712.924V713.747H538.94V712.924C538.94 709.084 542.096 705.929 546.075 705.929H593.685C597.527 705.929 600.682 709.084 600.682 712.924Z" fill="#0F192B"/>
<path d="M659.543 698.523C659.543 699.62 659.406 700.718 659.131 701.678C658.583 703.735 657.485 705.655 655.976 707.027C653.78 709.221 650.762 710.593 647.332 710.593H492.153C486.528 710.593 481.863 706.752 480.354 701.678C480.079 700.718 479.942 699.62 479.942 698.523C479.942 695.506 481.04 692.763 482.961 690.568C483.098 690.294 483.372 690.157 483.509 689.882C485.705 687.688 488.723 686.316 492.153 686.316H647.469C651.174 686.316 654.467 687.962 656.662 690.431C658.445 692.625 659.543 695.506 659.543 698.523Z" fill="#16253E"/>
<path d="M659.543 696.877C659.543 697.975 659.406 699.072 659.131 700.032H480.354C480.079 699.072 479.942 697.975 479.942 696.877C479.942 693.86 481.04 691.117 482.961 688.922H656.662C658.445 691.117 659.543 693.86 659.543 696.877Z" fill="#0F192B"/>
<path d="M600.408 738.709C587.648 736.789 582.983 731.851 577.357 721.291L580.513 719.645C585.864 729.657 589.843 733.497 600.957 735.143L600.408 738.709Z" fill="#16253E"/>
<path d="M609.052 735.692C609.052 737.749 605.896 739.258 601.917 739.258C597.938 739.258 594.782 737.612 594.782 735.692C594.782 733.634 597.938 732.126 601.917 732.126C605.896 731.989 609.052 733.634 609.052 735.692Z" fill="#16253E"/>
<path d="M459.499 676.716C457.852 682.75 463.203 689.06 471.573 690.157C485.156 691.94 498.876 692.9 512.597 692.9H626.888C640.609 692.9 654.329 691.94 667.912 690.157C674.773 689.197 679.575 684.945 680.261 680.007C680.398 678.91 680.261 677.813 679.986 676.716C678.477 671.23 672.44 667.664 665.992 667.664H587.922H551.837H587.922H551.837H473.768C467.045 667.664 461.145 671.23 459.499 676.716Z" fill="#B72A2D"/>
<path d="M667.912 690.157C640.746 693.86 613.031 693.86 585.864 690.157C577.495 689.059 572.144 682.75 573.79 676.716C575.437 670.681 582.846 666.841 590.117 667.801C614.403 671.092 639.237 671.092 663.522 667.801C670.931 666.841 678.203 670.544 679.849 676.716C681.633 682.75 676.282 689.059 667.912 690.157Z" fill="#921719"/>
<path d="M610.012 698.523C606.856 698.523 604.387 696.466 604.387 693.997V643.524C604.387 628.575 618.382 615.682 637.041 613.625L682.045 608.687C685.063 608.276 687.944 610.059 688.356 612.528C688.768 614.996 686.572 617.191 683.554 617.602L638.551 622.54C625.516 624.049 615.638 633.101 615.638 643.524V693.997C615.638 696.466 613.168 698.523 610.012 698.523Z" fill="#16253E"/>
<path d="M610.424 657.24C604.249 657.24 599.31 653.125 599.31 647.913C599.31 628.986 616.323 612.665 638.825 610.059C644.862 609.373 650.487 612.939 651.311 618.014C652.134 623.088 647.881 627.752 641.844 628.437C630.181 629.809 621.537 638.175 621.537 647.913C621.537 653.125 616.598 657.24 610.424 657.24Z" fill="#16253E"/>
<path d="M141.732 888.069L199.77 569.599H177.68L131.167 888.069H141.732Z" fill="#16253E"/>
<path d="M268.372 888.069L221.86 569.599H199.77L257.807 888.069H268.372Z" fill="#16253E"/>
<path d="M722.794 888.069L780.831 569.599H758.741L712.229 888.069H722.794Z" fill="#16253E"/>
<path d="M844.22 888.069L797.708 569.599H775.755L833.655 888.069H844.22Z" fill="#16253E"/>
<path d="M863.841 562.192H109.352V577.142H863.841V562.192Z" fill="#A66F3F"/>
<path d="M863.841 562.192H109.352V571.245H863.841V562.192Z" fill="#935A31"/>
<path d="M896.358 549.848H76.6973V565.758H896.358V549.848Z" fill="#BF8A64"/>
<path d="M896.358 549.848H76.6973V554.512H896.358V549.848Z" fill="#CFA079"/>
<path d="M473.356 550.123C475.002 550.123 476.237 548.888 476.237 547.243C476.237 545.597 475.002 544.362 473.356 544.362H418.474H296.911H242.029C240.519 544.362 239.285 545.46 239.147 546.968C239.147 547.105 239.147 547.105 239.147 547.243C239.147 548.888 240.382 550.123 242.029 550.123H296.911H418.474H473.356Z" fill="#16253E"/>
<path d="M421.355 547.243C421.355 548.888 420.12 550.123 418.474 550.123H242.029C240.382 550.123 239.147 548.888 239.147 547.243C239.147 545.597 240.382 544.362 242.029 544.362H418.474C420.12 544.362 421.355 545.597 421.355 547.243Z" fill="#16253E"/>
<path d="M387.603 427.37C386.505 423.941 383.35 421.61 379.782 421.61H214.451C211.981 421.61 209.786 422.707 208.276 424.353L205.944 427.096C204.16 429.153 203.337 432.034 204.297 434.914L239.01 550.26H421.355L423.688 547.517L387.603 427.37Z" fill="#16253E"/>
<path d="M421.355 550.123H239.01L204.298 434.777C202.788 429.565 206.63 424.216 212.118 424.216H377.45C381.017 424.216 384.173 426.547 385.27 429.976L421.355 550.123Z" fill="#16375E"/>
<path d="M308.848 488.541C308.848 497.044 301.85 504.039 293.343 504.039C284.837 504.039 277.839 497.044 277.839 488.541C277.839 480.037 284.837 473.042 293.343 473.042C301.85 473.042 308.848 479.9 308.848 488.541Z" fill="#16253E"/>
<path d="M198.309 358.701L184.195 366.346L185.503 368.757L199.616 361.113L198.309 358.701Z" fill="#245885"/>
<path d="M96.6212 435.906L94.197 437.192L145.889 534.606L148.314 533.32L96.6212 435.906Z" fill="#245885"/>
<path d="M103.622 435.923L101.198 437.209L152.89 534.623L155.314 533.337L103.622 435.923Z" fill="#245885"/>
<path d="M180.234 370.816L92.7227 437.949L94.3933 440.125L181.904 372.992L180.234 370.816Z" fill="#245885"/>
<path d="M179.169 363.896L91.6577 431.03L93.3283 433.206L180.839 366.072L179.169 363.896Z" fill="#245885"/>
<path d="M173.015 537.367V541.482H135.969V537.367C135.969 536.133 136.244 534.899 136.93 533.801C138.165 531.333 140.772 529.687 143.79 529.687H165.468C168.35 529.687 170.957 531.333 172.329 533.801C172.74 534.762 173.015 535.996 173.015 537.367Z" fill="#16375E"/>
<path d="M98.7869 443.006C104.167 443.006 108.528 438.646 108.528 433.268C108.528 427.89 104.167 423.53 98.7869 423.53C93.4068 423.53 89.0454 427.89 89.0454 433.268C89.0454 438.646 93.4068 443.006 98.7869 443.006Z" fill="#16253E"/>
<path d="M181.11 379.229C186.49 379.229 190.851 374.87 190.851 369.492C190.851 364.113 186.49 359.754 181.11 359.754C175.73 359.754 171.368 364.113 171.368 369.492C171.368 374.87 175.73 379.229 181.11 379.229Z" fill="#16253E"/>
<path d="M194.145 354.679L194.282 354.953L197.986 362.497L198.81 364.143L204.298 375.252L229.543 362.771L238.05 358.656L234.62 351.662L232.425 347.273L231.464 345.215L228.034 338.083C228.034 338.083 228.034 338.083 228.034 337.946C224.467 330.677 215.686 327.797 208.414 331.363L201.005 334.929C200.868 335.066 200.593 335.066 200.456 335.203C193.321 339.043 190.577 347.684 194.145 354.679Z" fill="#F9D03E"/>
<path d="M195.105 387.459L201.142 409.129L251.084 383.07L267.412 374.566L253.142 357.148C249.301 352.485 244.499 349.193 239.148 347.136C237.776 346.587 236.403 346.175 234.894 345.901C234.62 345.764 234.345 345.764 233.934 345.627C232.973 345.49 232.15 345.353 231.19 345.215C230.229 345.078 229.406 345.078 228.446 344.941C222.82 344.667 217.058 345.901 211.707 348.644C211.021 349.056 210.472 349.33 209.786 349.741C204.572 352.896 200.456 357.285 197.712 362.36C197.3 363.183 196.751 364.143 196.34 365.103C193.733 372.098 193.047 379.915 195.105 387.459Z" fill="#F9D03E"/>
<path d="M214.588 356.188C214.862 356.188 214.999 356.188 214.725 356.188H214.588C215.685 356.188 220.899 356.873 229.406 362.771C235.169 366.748 242.44 373.057 251.221 383.07L267.549 374.566L253.28 357.148C249.438 352.484 244.636 349.193 239.285 347.136C237.913 346.587 236.541 346.175 235.031 345.901C234.757 345.764 234.483 345.764 234.071 345.627C233.11 345.49 232.287 345.352 231.327 345.215C230.366 345.078 229.543 345.078 228.583 344.941L213.216 354.679L209.786 356.873C209.786 356.873 212.804 356.325 214.176 356.188C214.313 356.188 214.451 356.188 214.588 356.188Z" fill="#F5C257"/>
<path d="M200.181 335.34C205.258 339.592 208.276 343.158 210.197 346.861L227.622 338.083C224.055 330.814 215.274 327.934 208.002 331.5L200.593 335.066C200.593 335.203 200.456 335.203 200.181 335.34Z" fill="#F5C257"/>
<path d="M173.015 537.367V541.482H135.969V537.367C135.969 536.133 136.244 534.899 136.93 533.802H172.192C172.74 534.762 173.015 535.996 173.015 537.367Z" fill="#16253E"/>
<path d="M194.556 355.502L228.171 338.906L227.485 337.398L193.733 354.13L194.556 355.502Z" fill="#EE9F38"/>
<path d="M234.533 345.085L196.2 364.437L196.943 365.906L235.275 346.554L234.533 345.085Z" fill="#EE9F38"/>
<path d="M185.089 547.242V549.848H123.347V547.242C123.347 545.871 123.621 544.499 124.17 543.265C125.679 539.425 129.521 536.682 134.049 536.682H174.524C178.915 536.682 182.756 539.425 184.403 543.265C184.814 544.499 185.089 545.871 185.089 547.242Z" fill="#16375E"/>
<path d="M185.089 547.243V549.848H123.347V547.243C123.347 545.871 123.621 544.5 124.17 543.265H184.266C184.814 544.5 185.089 545.871 185.089 547.243Z" fill="#16253E"/>
<path d="M194.145 354.953C192.91 355.502 192.498 357.011 193.047 358.108L196.477 365.24L198.535 364.143L214.039 356.325L213.902 356.188C212.667 352.759 211.569 349.741 209.923 346.861L208.139 347.684L194.145 354.953Z" fill="#F9D03E"/>
<path d="M210.334 346.861C211.981 349.741 213.078 352.759 214.313 356.188L214.45 356.325L214.725 356.188L232.424 347.273L235.031 345.901L231.601 338.906C231.052 337.672 229.543 337.26 228.308 337.809L227.759 338.083L210.334 346.861Z" fill="#F5C257"/>
<path d="M899.788 485.112H754.489V517.48H899.788V485.112Z" fill="#5384B8"/>
<path d="M780.528 503.611C781.795 498.228 778.457 492.839 773.072 491.572C767.688 490.306 762.296 493.643 761.029 499.025C759.762 504.408 763.1 509.798 768.485 511.064C773.869 512.33 779.261 508.993 780.528 503.611Z" fill="#F0F1F2"/>
<path d="M891.556 491.284H812.252V511.308H891.556V491.284Z" fill="#F0F1F2"/>
<path d="M839.007 494.164H838.046V508.428H839.007V494.164Z" fill="#16253E"/>
<path d="M839.281 508.84H837.635V493.89H839.281V508.84ZM838.321 508.154H838.595V494.576H838.321V508.154Z" fill="#16253E"/>
<path d="M845.593 494.164H844.632V508.428H845.593V494.164Z" fill="#16253E"/>
<path d="M846.004 508.84H844.358V493.89H846.004V508.84ZM845.044 508.154H845.318V494.576H845.044V508.154Z" fill="#16253E"/>
<path d="M852.315 494.164H851.355V508.428H852.315V494.164Z" fill="#16253E"/>
<path d="M852.727 508.84H851.081V493.89H852.727V508.84ZM851.629 508.154H851.904V494.576H851.629V508.154Z" fill="#16253E"/>
<path d="M858.901 494.164H857.941V508.428H858.901V494.164Z" fill="#16253E"/>
<path d="M859.313 508.84H857.666V493.89H859.313V508.84ZM858.352 508.154H858.627V494.576H858.352V508.154Z" fill="#16253E"/>
<path d="M865.624 494.164H864.664V508.428H865.624V494.164Z" fill="#16253E"/>
<path d="M866.036 508.84H864.39V493.89H866.036V508.84ZM864.939 508.154H865.213V494.576H864.939V508.154Z" fill="#16253E"/>
<path d="M770.816 511.994C764.916 511.994 760.114 507.194 760.114 501.296C760.114 495.399 764.916 490.598 770.816 490.598C776.716 490.598 781.518 495.399 781.518 501.296C781.518 507.194 776.716 511.994 770.816 511.994ZM770.816 491.97C765.602 491.97 761.486 496.221 761.486 501.296C761.486 506.508 765.739 510.623 770.816 510.623C776.03 510.623 780.146 506.371 780.146 501.296C780.146 496.084 776.03 491.97 770.816 491.97Z" fill="#16253E"/>
<path d="M875.503 517.48H730.203V549.848H875.503V517.48Z" fill="#B72A2D"/>
<path d="M756.325 535.997C757.6 530.616 754.27 525.221 748.888 523.946C743.505 522.672 738.107 526 736.832 531.381C735.557 536.762 738.887 542.157 744.27 543.432C749.653 544.707 755.05 541.378 756.325 535.997Z" fill="white"/>
<path d="M746.531 544.362C740.631 544.362 735.829 539.562 735.829 533.664C735.829 527.767 740.631 522.966 746.531 522.966C752.431 522.966 757.233 527.767 757.233 533.664C757.233 539.562 752.431 544.362 746.531 544.362ZM746.531 524.338C741.317 524.338 737.201 528.59 737.201 533.664C737.201 538.876 741.454 542.991 746.531 542.991C751.745 542.991 755.861 538.739 755.861 533.664C755.861 528.452 751.745 524.338 746.531 524.338Z" fill="#16253E"/>
<path d="M867.271 523.652H787.967V543.677H867.271V523.652Z" fill="#F0F1F2"/>
<path d="M814.721 526.532H813.761V540.796H814.721V526.532Z" fill="#16253E"/>
<path d="M815.133 541.208H813.487V526.258H815.133V541.208ZM814.035 540.522H814.31V526.944H814.035V540.522Z" fill="#16253E"/>
<path d="M821.307 526.532H820.347V540.796H821.307V526.532Z" fill="#16253E"/>
<path d="M821.719 541.208H820.073V526.258H821.719V541.208ZM820.759 540.522H821.033V526.944H820.759V540.522Z" fill="#16253E"/>
<path d="M828.03 526.532H827.07V540.796H828.03V526.532Z" fill="#16253E"/>
<path d="M828.442 541.208H826.795V526.258H828.442V541.208ZM827.344 540.522H827.619V526.944H827.344V540.522Z" fill="#16253E"/>
<path d="M834.616 526.532H833.656V540.796H834.616V526.532Z" fill="#16253E"/>
<path d="M835.028 541.208H833.381V526.258H835.028V541.208ZM834.067 540.522H834.342V526.944H834.067V540.522Z" fill="#16253E"/>
<path d="M841.339 526.532H840.379V540.796H841.339V526.532Z" fill="#16253E"/>
<path d="M841.751 541.208H840.104V526.258H841.751V541.208ZM840.79 540.522H841.065V526.944H840.79V540.522Z" fill="#16253E"/>
<path d="M855.608 452.195H776.441V466.459H855.608V452.195Z" fill="#F1C04E"/>
<path d="M840.241 452.195H838.046V466.459H840.241V452.195Z" fill="#F6F2F0"/>
<path d="M846.69 452.195H842.3V466.459H846.69V452.195Z" fill="#F6F2F0"/>
<path d="M861.371 466.459H770.816V485.112H861.371V466.459Z" fill="#CF362E"/>
<path d="M782.204 466.459H779.597V485.112H782.204V466.459Z" fill="#F6F2F0"/>
<path d="M788.104 466.459H785.497V485.112H788.104V466.459Z" fill="#F6F2F0"/>
<path d="M847.925 466.459H845.318V485.112H847.925V466.459Z" fill="#F6F2F0"/>
<path d="M853.687 466.459H851.081V485.112H853.687V466.459Z" fill="#F6F2F0"/>
<path d="M514.655 533.527L495.309 472.219C495.172 471.671 495.309 471.122 495.72 471.122L505.874 468.242C506.285 468.105 506.697 468.516 506.834 469.065L526.18 530.373C526.317 530.921 526.18 531.47 525.768 531.47L515.615 534.35C515.341 534.35 514.792 534.076 514.655 533.527Z" fill="#DA453B"/>
<path d="M505.874 471.808C505.874 471.808 506.011 471.671 506.011 471.534C506.011 471.397 505.874 471.397 505.736 471.397L500.934 472.768C500.797 472.768 500.797 472.905 500.797 473.042C500.797 473.18 500.934 473.18 501.072 473.18L505.874 471.808C505.874 471.945 505.874 471.808 505.874 471.808Z" fill="#3D4D66"/>
<path d="M506.834 474.688C506.834 474.688 506.971 474.551 506.971 474.414C506.971 474.277 506.834 474.277 506.697 474.277L503.816 475.1C503.678 475.1 503.678 475.237 503.678 475.374C503.678 475.511 503.816 475.511 503.953 475.511L506.834 474.688C506.697 474.688 506.697 474.688 506.834 474.688Z" fill="#3D4D66"/>
<path d="M507.657 477.431C507.657 477.431 507.794 477.294 507.794 477.157C507.794 477.02 507.657 477.02 507.52 477.02L504.639 477.843C504.501 477.843 504.501 477.98 504.501 478.117C504.501 478.254 504.639 478.254 504.776 478.254L507.657 477.431C507.657 477.569 507.657 477.569 507.657 477.431Z" fill="#3D4D66"/>
<path d="M508.618 480.312C508.618 480.312 508.755 480.174 508.755 480.037C508.755 479.9 508.618 479.9 508.48 479.9L505.599 480.723C505.462 480.723 505.462 480.86 505.462 480.997C505.462 481.135 505.599 481.135 505.736 481.135L508.618 480.312C508.48 480.312 508.48 480.312 508.618 480.312Z" fill="#3D4D66"/>
<path d="M509.441 483.192C509.441 483.192 509.578 483.055 509.578 482.917C509.578 482.78 509.441 482.78 509.304 482.78L506.422 483.603C506.285 483.603 506.285 483.74 506.285 483.877C506.285 484.015 506.422 484.015 506.56 484.015L509.441 483.192Z" fill="#3D4D66"/>
<path d="M510.402 485.935C510.402 485.935 510.539 485.798 510.539 485.661C510.539 485.523 510.402 485.523 510.264 485.523L505.462 486.895C505.325 486.895 505.325 487.032 505.325 487.169C505.325 487.306 505.462 487.306 505.599 487.306L510.402 485.935C510.264 486.072 510.264 485.935 510.402 485.935Z" fill="#3D4D66"/>
<path d="M511.225 488.815C511.225 488.815 511.362 488.678 511.362 488.541C511.362 488.404 511.225 488.404 511.087 488.404L508.206 489.227C508.069 489.227 508.069 489.364 508.069 489.501C508.069 489.638 508.206 489.638 508.343 489.638L511.225 488.815Z" fill="#3D4D66"/>
<path d="M512.185 491.695C512.185 491.695 512.322 491.558 512.322 491.421C512.322 491.284 512.185 491.284 512.048 491.284L509.167 492.107C509.029 492.107 509.029 492.244 509.029 492.381C509.029 492.518 509.167 492.518 509.304 492.518L512.185 491.695C512.048 491.695 512.048 491.695 512.185 491.695Z" fill="#3D4D66"/>
<path d="M513.008 494.438C513.008 494.438 513.145 494.301 513.145 494.164C513.145 494.027 513.008 494.027 512.871 494.027L509.99 494.85C509.853 494.85 509.853 494.987 509.853 495.124C509.853 495.261 509.99 495.261 510.127 495.261L513.008 494.438Z" fill="#3D4D66"/>
<path d="M513.969 497.319C513.969 497.319 514.106 497.181 514.106 497.044C514.106 496.907 513.969 496.907 513.832 496.907L510.95 497.73C510.813 497.73 510.813 497.867 510.813 498.004C510.813 498.142 510.95 498.142 511.087 498.142L513.969 497.319C513.832 497.319 513.832 497.319 513.969 497.319Z" fill="#3D4D66"/>
<path d="M514.792 500.062C514.792 500.062 514.929 499.924 514.929 499.787C514.929 499.65 514.792 499.65 514.655 499.65L509.853 501.022C509.715 501.022 509.715 501.159 509.715 501.296C509.715 501.433 509.853 501.433 509.99 501.433L514.792 500.062C514.792 500.199 514.792 500.062 514.792 500.062Z" fill="#3D4D66"/>
<path d="M515.752 502.942C515.752 502.942 515.89 502.805 515.89 502.668C515.89 502.53 515.752 502.53 515.615 502.53L512.734 503.353C512.597 503.353 512.597 503.49 512.597 503.628C512.597 503.765 512.734 503.765 512.871 503.765L515.752 502.942C515.615 502.942 515.615 502.942 515.752 502.942Z" fill="#3D4D66"/>
<path d="M516.575 505.822C516.575 505.822 516.713 505.685 516.713 505.548C516.713 505.411 516.575 505.411 516.438 505.411L513.557 506.234C513.42 506.234 513.42 506.371 513.42 506.508C513.42 506.645 513.557 506.645 513.694 506.645L516.575 505.822Z" fill="#3D4D66"/>
<path d="M517.536 508.565C517.536 508.565 517.673 508.428 517.673 508.291C517.673 508.154 517.536 508.154 517.399 508.154L514.517 508.977C514.38 508.977 514.38 509.114 514.38 509.251C514.38 509.388 514.517 509.388 514.655 509.388L517.536 508.565C517.399 508.565 517.399 508.565 517.536 508.565Z" fill="#3D4D66"/>
<path d="M518.359 511.445C518.359 511.445 518.497 511.308 518.497 511.171C518.497 511.034 518.359 511.034 518.222 511.034L515.341 511.857C515.204 511.857 515.204 511.994 515.204 512.131C515.204 512.268 515.341 512.268 515.478 512.268L518.359 511.445Z" fill="#3D4D66"/>
<path d="M519.32 514.188C519.32 514.188 519.457 514.051 519.457 513.914C519.457 513.777 519.32 513.777 519.183 513.777L514.38 515.149C514.243 515.149 514.243 515.286 514.243 515.423C514.243 515.56 514.38 515.56 514.518 515.56L519.32 514.188C519.183 514.326 519.183 514.326 519.32 514.188Z" fill="#3D4D66"/>
<path d="M520.143 517.069C520.143 517.069 520.28 516.932 520.28 516.794C520.28 516.657 520.143 516.657 520.006 516.657L517.125 517.48C516.987 517.48 516.987 517.617 516.987 517.754C516.987 517.892 517.125 517.892 517.262 517.892L520.143 517.069Z" fill="#3D4D66"/>
<path d="M521.103 519.949C521.103 519.949 521.24 519.812 521.24 519.675C521.24 519.537 521.103 519.537 520.966 519.537L518.085 520.36C517.948 520.36 517.948 520.498 517.948 520.635C517.948 520.772 518.085 520.772 518.222 520.772L521.103 519.949C520.966 519.949 520.966 519.949 521.103 519.949Z" fill="#3D4D66"/>
<path d="M521.927 522.692C521.927 522.692 522.064 522.555 522.064 522.418C522.064 522.281 521.927 522.281 521.789 522.281L518.908 523.103C518.771 523.103 518.771 523.241 518.771 523.378C518.771 523.515 518.908 523.515 519.045 523.515L521.927 522.692Z" fill="#3D4D66"/>
<path d="M522.887 525.572C522.887 525.572 523.024 525.435 523.024 525.298C523.024 525.161 522.887 525.161 522.75 525.161L519.869 525.984C519.731 525.984 519.731 526.121 519.731 526.258C519.731 526.395 519.869 526.395 520.006 526.395L522.887 525.572C522.75 525.572 522.75 525.572 522.887 525.572Z" fill="#3D4D66"/>
<path d="M499.837 475.785C499.151 476.06 498.327 475.511 498.053 474.688C497.916 474.277 497.916 473.865 498.19 473.454C498.327 473.18 498.602 472.905 499.013 472.768C499.699 472.494 500.523 473.042 500.797 473.865C500.934 474.277 500.934 474.688 500.66 475.1C500.523 475.237 500.523 475.374 500.386 475.511C500.111 475.648 499.974 475.785 499.837 475.785ZM498.602 473.728C498.465 474.002 498.465 474.277 498.465 474.551C498.602 475.1 499.151 475.511 499.699 475.374C499.974 475.374 500.111 475.1 500.248 474.963C500.385 474.688 500.386 474.414 500.386 474.14C500.248 473.591 499.699 473.18 499.151 473.317C499.013 473.317 498.876 473.454 498.876 473.454C498.739 473.591 498.602 473.591 498.602 473.728Z" fill="#3D4D66"/>
<path d="M515.752 467.693L513.008 467.556L513.282 463.99C513.282 463.305 513.969 462.893 514.792 462.893C515.615 462.893 516.164 463.579 516.027 464.127L515.752 467.693Z" fill="#EDEDEC"/>
<path d="M516.026 477.294L511.361 477.02L512.047 465.773C512.047 465.499 512.322 465.362 512.596 465.362L516.163 465.636C516.438 465.636 516.712 465.91 516.712 466.185L516.026 477.294Z" fill="#3D4D66"/>
<path d="M510.676 529.961C510.401 530.51 510.127 530.921 510.127 530.921C510.127 530.921 509.989 530.51 509.715 529.824L510.676 529.961Z" fill="#01001E"/>
<path d="M512.871 524.749C512.459 526.532 511.362 528.727 510.676 529.961H509.715C509.166 528.59 508.48 526.258 508.206 524.475C508.069 522.829 509.304 503.902 509.99 495.947C509.99 495.261 510.127 494.576 510.127 494.027C510.264 492.518 510.401 491.147 510.401 490.187C510.401 489.364 511.224 478.529 511.224 478.117C511.224 477.568 511.362 477.157 511.362 477.157L516.027 477.431C516.027 477.431 516.027 477.706 516.027 478.391C516.027 478.94 515.341 489.775 515.203 490.461C515.203 491.558 515.066 492.93 515.066 494.438C515.066 495.124 515.066 495.673 514.929 496.358C514.38 504.176 513.282 523.103 512.871 524.749Z" fill="#3D4D66"/>
<path d="M514.792 496.221L509.99 495.947C509.99 495.261 510.127 494.576 510.127 494.027L514.929 494.301C514.929 494.85 514.929 495.536 514.792 496.221Z" fill="#EDEDEC"/>
<path d="M511.914 467.92L511.762 470.247L516.417 470.552L516.569 468.225L511.914 467.92Z" fill="#EDEDEC"/>
<path d="M516.85 479.489C516.575 479.489 516.301 479.214 516.301 478.94L516.85 470.436L515.34 469.202C515.066 469.065 515.066 468.791 515.34 468.516C515.478 468.379 515.889 468.379 516.026 468.516L517.673 469.888C517.81 470.025 517.81 470.162 517.81 470.299L517.261 478.94C517.398 479.351 517.261 479.489 516.85 479.489Z" fill="#EDEDEC"/>
<path d="M529.747 474.003L529.61 474.688L529.473 475.374L525.082 474.277V474.551L525.219 473.728L525.357 473.042C525.494 472.494 525.906 472.219 526.454 472.219L529.061 472.905C529.61 472.905 529.884 473.454 529.747 474.003Z" fill="#F1F1F2"/>
<path d="M529.473 475.237L529.198 476.471L529.061 477.157L518.634 525.572L518.496 526.258L518.359 526.807C518.222 527.081 518.222 527.492 518.085 527.767L515.341 533.39L513.969 533.116L513.832 526.944C513.832 526.669 513.832 526.258 513.969 525.984L514.106 525.435L514.38 524.475L524.945 475.511L525.22 474.414V474.14L529.473 475.237Z" fill="#F6D5AC"/>
<path d="M515.341 533.39L514.38 535.31C514.243 535.584 514.106 535.584 513.969 535.31L513.832 533.253L515.341 533.39Z" fill="#124667"/>
<path d="M515.478 525.709L526.455 474.688L527.964 474.963L516.987 525.984C516.85 526.807 516.301 527.355 515.89 527.218C515.615 527.218 515.341 526.532 515.478 525.709Z" fill="#FFC535"/>
<path d="M526.592 474.688L526.317 475.785L526.18 476.471L515.615 525.709C515.478 526.532 514.929 527.081 514.518 526.944C514.106 526.807 513.969 526.121 514.106 525.435L514.381 524.475L524.945 475.511L525.22 474.414L526.592 474.688Z" fill="#FFD144"/>
<path d="M516.987 525.984L527.689 476.197L527.964 474.963L529.473 475.237L529.199 476.471L518.634 525.572L518.497 526.258C518.36 527.081 517.811 527.63 517.399 527.492C516.988 527.492 516.85 526.807 516.987 525.984Z" fill="#FFB623"/>
<path d="M529.473 475.237L529.335 475.923L529.061 477.157L527.689 476.883L526.18 476.471L524.67 476.197L524.945 475.1L525.082 474.414V474.277L529.473 475.237Z" fill="#3D4D66"/>
<path d="M529.473 507.194H500.385V549.848H529.473V507.194Z" fill="#F1C04E"/>
<path d="M529.61 507.194H514.243V549.848H529.61V507.194Z" fill="#E89D2B"/>
<path d="M680.261 196.267H589.98V218.897H680.261V196.267Z" fill="#16375E"/>
<path d="M577.769 147.029H557.737V218.897H577.769V147.029Z" fill="#DA453B"/>
<path d="M759.977 155.258H744.472V219.034H759.977V155.258Z" fill="#5384B8"/>
<path d="M759.977 210.942H744.472V212.725H759.977V210.942Z" fill="#F6F2F0"/>
<path d="M756.684 205.73H747.766V209.296H756.684V205.73Z" fill="#F6F2F0"/>
<path d="M668.873 196.267H665.717V218.897H668.873V196.267Z" fill="#F6F2F0"/>
<path d="M662.973 201.067H656.524V214.097H662.973V201.067Z" fill="#F6F2F0"/>
<path d="M668.598 168.287H601.505V180.357H668.598V168.287Z" fill="#F1C04E"/>
<path d="M655.427 168.287H653.643V180.357H655.427V168.287Z" fill="#F6F2F0"/>
<path d="M661.052 168.287H657.347V180.357H661.052V168.287Z" fill="#F6F2F0"/>
<path d="M673.401 180.494H596.703V196.404H673.401V180.494Z" fill="#DA453B"/>
<path d="M606.445 180.494H604.249V196.404H606.445V180.494Z" fill="#F6F2F0"/>
<path d="M611.384 180.494H609.189V196.404H611.384V180.494Z" fill="#F6F2F0"/>
<path d="M662.012 180.494H659.817V196.404H662.012V180.494Z" fill="#F6F2F0"/>
<path d="M666.952 180.494H664.757V196.404H666.952V180.494Z" fill="#F6F2F0"/>
<path d="M769.863 144.698L769.616 218.898L781.827 218.939L782.074 144.739L769.863 144.698Z" fill="#F1C04E"/>
<path d="M769.734 210.707L769.723 213.588L781.934 213.636L781.945 210.756L769.734 210.707Z" fill="#F6F2F0"/>
<path d="M769.728 207.724L769.724 208.821L781.935 208.87L781.939 207.772L769.728 207.724Z" fill="#F6F2F0"/>
<path d="M769.912 150.795L769.901 153.675L782.112 153.724L782.124 150.844L769.912 150.795Z" fill="#F6F2F0"/>
<path d="M769.911 155.562L769.907 156.659L782.118 156.708L782.123 155.611L769.911 155.562Z" fill="#F6F2F0"/>
<path d="M719.395 150.88L709.312 149.682L701.217 217.779L711.3 218.977L719.395 150.88Z" fill="#16375E"/>
<path d="M711.768 214.195L712.092 211.471L702.01 210.273L701.686 212.997L711.768 214.195Z" fill="#F6F2F0"/>
<path d="M708.456 156.037L708.213 158.08L718.295 159.278L718.538 157.235L708.456 156.037Z" fill="#F6F2F0"/>
<path d="M708.074 159.753L707.216 166.972L717.298 168.169L718.156 160.951L708.074 159.753Z" fill="#F6F2F0"/>
<path d="M733.908 144.56H719.501V218.623H733.908V144.56Z" fill="#DA453B"/>
<path d="M733.908 210.256H719.501V211.765H733.908V210.256Z" fill="#F6F2F0"/>
<path d="M552.249 209.433H532.217V212.314H552.249V209.433Z" fill="#F6F2F0"/>
<path d="M552.249 204.084H532.217V206.965H552.249V204.084Z" fill="#F6F2F0"/>
<path d="M552.249 153.338H532.217V156.218H552.249V153.338Z" fill="#F6F2F0"/>
<path d="M577.769 154.023H557.737V155.532H577.769V154.023Z" fill="#F6F2F0"/>
<path d="M577.769 167.739H557.737V169.247H577.769V167.739Z" fill="#F6F2F0"/>
<path d="M577.769 181.591H557.737V183.1H577.769V181.591Z" fill="#F6F2F0"/>
<path d="M577.769 195.307H557.737V196.815H577.769V195.307Z" fill="#F6F2F0"/>
<path d="M577.769 209.159H557.737V210.668H577.769V209.159Z" fill="#F6F2F0"/>
<path d="M544.565 159.784H539.214V200.107H544.565V159.784Z" fill="#F6F2F0"/>
<path d="M552.249 147.029H532.217V218.897H552.249V147.029Z" fill="#5384B8"/>
<path d="M552.249 207.65H532.217V213.685H552.249V207.65Z" fill="#F6F2F0"/>
<path d="M552.249 153.749H532.217V159.784H552.249V153.749Z" fill="#F6F2F0"/>
</g>
<defs>
<clipPath id="clip0_7_72">
<rect width="964" height="955" rx="12.0824" fill="white"/>
</clipPath>
</defs>
</svg>
