<svg width="112" height="171" viewBox="0 0 112 171" fill="none" xmlns="http://www.w3.org/2000/svg">
<path fill-rule="evenodd" clip-rule="evenodd" d="M24.7721 125.048L29.7118 124.298L31.4132 124.7L63.6491 116.87L64.0516 118.261L31.7059 126.127L31.0107 127.225L27.681 128.414C25.5405 129.164 24.0952 130.116 22.9426 128.506C22.5401 127.902 22.1376 127.317 21.6986 126.768C20.7289 125.396 22.9243 125.341 24.7721 125.048Z" fill="#383838"/>
<path d="M58.49 122.066H52.2148V150.112H58.49V122.066Z" fill="#4D4D4D"/>
<path d="M57.7946 122.505H55.1052V150.112H57.7946V122.505Z" fill="#3B3B3B"/>
<path d="M57.0986 122.56H56.2021V150.112H57.0986V122.56Z" fill="#A7A7A7"/>
<path d="M53.2202 122.56H52.8726V150.112H53.2202V122.56Z" fill="#A7A7A7"/>
<path fill-rule="evenodd" clip-rule="evenodd" d="M55.3054 90.9645C57.5557 90.3608 59.0376 91.1109 59.9889 92.9038C61.9831 94.0564 62.5319 95.648 61.9282 97.5873C62.5319 99.8376 61.8367 101.319 59.9889 102.271C58.8363 104.265 57.2446 104.814 55.3054 104.21C53.11 104.814 51.5732 104.064 50.6218 102.271C48.6277 101.118 48.0788 99.5266 48.7375 97.5873C48.0971 95.337 48.8289 93.8551 50.6218 92.9038C51.7744 90.9279 53.3661 90.3791 55.3054 90.9645Z" fill="#171717"/>
<path d="M61.6355 75.7795H48.9753V99.8009H61.6355V75.7795Z" fill="#4F4F4F"/>
<path d="M59.9528 75.7795H50.6772V99.8009H59.9528V75.7795Z" fill="#424242"/>
<path d="M61.6355 75.7795H48.9753V91.4218H61.6355V75.7795Z" fill="#3E3E3E"/>
<path d="M59.9528 75.7795H50.6772V91.4218H59.9528V75.7795Z" fill="#303030"/>
<path fill-rule="evenodd" clip-rule="evenodd" d="M31.2847 0.0380859H79.364C85.6941 0.0380859 88.8226 3.27631 89.2251 9.60639L92.9573 71.59C93.3049 82.3475 74.7171 85.293 55.8915 85.2381C36.7549 85.2381 17.3255 82.0914 17.6183 72.6328L21.6615 9.60639C22.064 3.27631 24.9546 0.0380859 31.2847 0.0380859Z" fill="#244273"/>
<path fill-rule="evenodd" clip-rule="evenodd" d="M31.8886 0.0380859H78.7788C84.9991 0.0380859 88.1458 2.83723 88.4019 8.36233L90.7437 62.9181C91.0913 72.2852 74.8453 77.7737 56.4588 77.7737C37.7796 77.7188 19.8321 71.8461 20.1431 63.6317L22.4849 8.38062C22.6679 2.83723 25.6682 0.0380859 31.8886 0.0380859Z" fill="#355388"/>
<path fill-rule="evenodd" clip-rule="evenodd" d="M33.8834 1.13574H76.7852C82.4567 1.13574 86.2072 3.22138 86.445 8.45376L88.9331 60.3202C89.2807 69.4311 73.1445 73.9317 56.0569 73.7671C39.2621 73.6207 21.4244 68.8823 21.7355 61.2167L24.4797 7.5573C24.7724 2.28833 28.1936 1.13574 33.8834 1.13574Z" fill="#3A598D"/>
<path fill-rule="evenodd" clip-rule="evenodd" d="M35.474 1.4834H75.1376C80.4249 1.4834 83.8095 1.62976 84.2119 7.26463L86.4073 42.0984C86.4988 79.5666 22.2832 75.8345 24.2225 43.0497L25.9605 7.57565C26.2167 1.92248 30.2416 1.4834 35.474 1.4834Z" fill="#3E5D91"/>
<path fill-rule="evenodd" clip-rule="evenodd" d="M38.8592 1.97729H71.7354C78.2667 1.97729 81.7976 2.78228 82.4014 3.22136C86.2799 6.16686 84.9444 9.20384 85.2005 11.4907C86.6458 26.3829 24.461 27.3342 25.6501 10.5943C25.7965 8.39885 25.5587 5.85584 28.4493 3.02011C28.9067 2.58103 32.6388 1.97729 38.8592 1.97729Z" fill="#436296"/>
<path fill-rule="evenodd" clip-rule="evenodd" d="M60.1358 120.621V127.006H50.6772V120.676C50.97 119.688 52.7629 119.084 55.4157 119.084C57.9038 119.066 59.6967 119.413 60.1358 120.621Z" fill="#4D4D4D"/>
<path fill-rule="evenodd" clip-rule="evenodd" d="M58.4531 119.377V127.006H52.3792V119.432C53.1841 119.23 54.227 119.084 55.4161 119.084C56.6053 119.066 57.6481 119.175 58.4531 119.377Z" fill="#3B3B3B"/>
<path fill-rule="evenodd" clip-rule="evenodd" d="M80.6627 113.193V115.827C80.6627 117.419 79.3638 118.718 77.7721 118.718H69.2466C66.6487 120.365 62.4226 120.712 55.5985 120.767C48.372 120.822 44.0909 120.511 40.7063 118.718H32.1809C30.5892 118.718 29.2354 117.419 29.2354 115.827V113.193H80.6627Z" fill="#424242"/>
<path fill-rule="evenodd" clip-rule="evenodd" d="M12.5508 79.1094C12.5508 80.262 12.5508 92.666 12.4959 94.2028C12.4045 106.515 12.3496 113.23 24.6073 113.23H39.1152L39.4628 116.87H21.2227C7.26356 116.87 7.02573 107.851 7.1172 94.2028C7.17209 92.9587 7.17209 80.9023 7.17209 79.1094H12.5508Z" fill="#424242"/>
<path fill-rule="evenodd" clip-rule="evenodd" d="M15.5879 110.705C17.3808 112.351 20.2165 113.248 24.6073 113.248H34.322L34.1757 115.132C34.1757 115.132 26.6564 116.175 19.9238 114.73C17.9297 114.291 16.5392 112.845 15.5879 110.705Z" fill="#2E2E2E"/>
<path fill-rule="evenodd" clip-rule="evenodd" d="M12.5513 79.1094C12.5513 79.8046 12.5513 84.543 12.5513 88.5313H7.17261C7.17261 84.6894 7.17261 80.1522 7.17261 79.1094H12.5513Z" fill="#2A2A2A"/>
<path fill-rule="evenodd" clip-rule="evenodd" d="M10.8124 88.5313H9.01944L8.90967 80.8474L10.8124 80.9023V88.5313Z" fill="#343434"/>
<path fill-rule="evenodd" clip-rule="evenodd" d="M13.4108 67.5103H6.09275C2.39715 67.5103 0.0187988 68.2604 0.0187988 72.3401V76.7675C0.0187988 78.5605 1.37263 80.0058 2.9643 80.0058H16.3746C18.0211 80.0058 19.3201 78.5605 19.3201 76.7675V70.6936C19.2835 67.5468 16.3014 67.5103 13.4108 67.5103Z" fill="#355388"/>
<path fill-rule="evenodd" clip-rule="evenodd" d="M4.2264 67.6016C1.59191 67.8577 0.000244141 68.9005 0.000244141 72.029V76.2185C0.000244141 77.92 1.35408 79.2555 2.94575 79.2555H3.20188C2.79939 70.4373 3.4946 68.7542 4.2264 67.6016Z" fill="#3D5C8F"/>
<path fill-rule="evenodd" clip-rule="evenodd" d="M0.987793 68.9006C2.37822 68.1505 4.42726 68.0956 9.75112 68.0956C14.4895 68.0407 17.124 68.242 18.862 68.9372C18.5693 68.242 17.4716 66.5039 16.1178 66.0466C12.971 65.0952 7.93991 65.0037 4.40897 65.9002C2.83559 66.3027 1.59153 68.0041 0.987793 68.9006Z" fill="#466498"/>
<path fill-rule="evenodd" clip-rule="evenodd" d="M0.987793 68.9006C1.62812 68.553 2.48799 68.3518 3.78693 68.2054C4.62851 67.1626 5.67132 66.01 9.22056 66.01C12.66 66.01 15.0018 65.8636 17.2338 66.7052C16.8862 66.4125 16.5386 66.2112 16.1361 66.0649C12.9893 65.1135 7.9582 65.0221 4.42726 65.9185C2.83559 66.3027 1.59153 68.0041 0.987793 68.9006Z" fill="#5271A5"/>
<path fill-rule="evenodd" clip-rule="evenodd" d="M13.7029 70.2361H7.2265C4.04316 70.2361 1.39038 70.8764 1.39038 73.767V76.9504C1.39038 78.2493 2.54297 79.2921 3.93339 79.2921H15.7337C17.1241 79.2921 18.2767 78.2493 18.2767 76.9504V72.6144C18.295 70.3459 16.1911 70.2361 13.7029 70.2361Z" fill="#244273"/>
<path fill-rule="evenodd" clip-rule="evenodd" d="M3.23818 70.8398C2.08559 71.3887 1.39038 72.2852 1.39038 73.7853V76.9687C1.39038 78.0115 2.14048 78.8531 3.1833 79.1641C2.98205 75.0843 3.03693 72.5413 3.23818 70.8398Z" fill="#385387"/>
<path fill-rule="evenodd" clip-rule="evenodd" d="M10.8129 88.5862L10.8677 101.795C10.8677 103.789 11.2153 105.674 11.6178 107.375C12.2582 110.065 13.7584 112.406 15.5513 113.358C9.33096 111.857 9.12971 103.094 9.12971 101.649L8.92847 88.5496L10.8129 88.5862Z" fill="#585858"/>
<path fill-rule="evenodd" clip-rule="evenodd" d="M98.5011 79.1094C98.5011 80.262 98.5011 92.666 98.556 94.2028C98.6475 106.515 98.7573 113.23 86.4447 113.23H71.9367L71.5891 116.87H89.8293C103.788 116.87 104.081 107.851 103.935 94.2028C103.935 92.9587 103.88 80.9023 103.88 79.1094H98.5011Z" fill="#424242"/>
<path fill-rule="evenodd" clip-rule="evenodd" d="M95.4643 110.705C93.6714 112.351 90.8357 113.248 86.4449 113.248H76.7302L76.8766 115.132C76.8766 115.132 84.3958 116.175 91.1284 114.73C93.1226 114.291 94.513 112.845 95.4643 110.705Z" fill="#2E2E2E"/>
<path fill-rule="evenodd" clip-rule="evenodd" d="M98.5005 79.1094C98.5005 79.8046 98.5005 84.543 98.5005 88.5313H103.879C103.879 84.6894 103.879 80.1522 103.879 79.1094H98.5005Z" fill="#2A2A2A"/>
<path fill-rule="evenodd" clip-rule="evenodd" d="M100.257 88.5313H102.05L102.141 80.8474L100.293 80.9023L100.257 88.5313Z" fill="#343434"/>
<path fill-rule="evenodd" clip-rule="evenodd" d="M98.0621 67.5103H105.38C109.076 67.5103 111.454 68.2604 111.454 72.3401V76.7675C111.454 78.5605 110.1 80.0058 108.509 80.0058H95.0983C93.4518 80.0058 92.1528 78.5605 92.1528 76.7675V70.6936C92.1711 67.5468 95.1715 67.5103 98.0621 67.5103Z" fill="#355388"/>
<path fill-rule="evenodd" clip-rule="evenodd" d="M107.227 67.6016C109.862 67.8577 111.453 68.9005 111.453 72.029V76.2185C111.453 77.92 110.1 79.2555 108.508 79.2555H108.252C108.673 70.4373 107.977 68.7542 107.227 67.6016Z" fill="#314C7D"/>
<path fill-rule="evenodd" clip-rule="evenodd" d="M110.465 68.9006C109.075 68.1505 107.026 68.0956 101.702 68.0956C96.9636 68.0407 94.3291 68.242 92.5911 68.9372C92.8838 68.242 93.9815 66.5039 95.3353 66.0466C98.4821 65.0952 103.513 65.0037 107.044 65.9002C108.618 66.3027 109.862 68.0041 110.465 68.9006Z" fill="#466498"/>
<path fill-rule="evenodd" clip-rule="evenodd" d="M110.466 68.9006C109.826 68.553 108.966 68.3518 107.667 68.2054C106.826 67.1626 105.783 66.01 102.234 66.01C98.7942 66.01 96.4525 65.8636 94.2205 66.7052C94.5681 66.4125 94.9157 66.2112 95.3182 66.0649C98.4649 65.1135 103.496 65.0221 107.027 65.9185C108.619 66.3027 109.863 68.0041 110.466 68.9006Z" fill="#415C8C"/>
<path fill-rule="evenodd" clip-rule="evenodd" d="M97.7505 70.2361H104.227C107.41 70.2361 110.063 70.8764 110.063 73.767V76.9504C110.063 78.2493 108.91 79.2921 107.52 79.2921H95.7198C94.3293 79.2921 93.1768 78.2493 93.1768 76.9504V72.6144C93.1768 70.3459 95.2624 70.2361 97.7505 70.2361Z" fill="#244273"/>
<path fill-rule="evenodd" clip-rule="evenodd" d="M108.215 70.8398C109.367 71.3887 110.062 72.2852 110.062 73.7853V76.9687C110.062 78.0115 109.312 78.8531 108.269 79.1641C108.471 75.0843 108.416 72.5413 108.215 70.8398Z" fill="#1F3963"/>
<path fill-rule="evenodd" clip-rule="evenodd" d="M100.294 88.5862L100.203 101.795C100.203 103.789 99.9099 105.674 99.4525 107.375C98.8122 110.065 97.3668 112.406 95.519 113.358C101.739 111.857 101.941 103.094 101.941 101.649L102.142 88.5496L100.294 88.5862Z" fill="#585858"/>
<path fill-rule="evenodd" clip-rule="evenodd" d="M78.779 113.193V115.077C78.779 116.175 77.6813 117.126 76.1811 117.126H66.2103C64.0698 120.072 46.3785 119.724 42.939 117.126H33.8647C32.4194 117.126 31.1753 116.175 31.1753 115.077V113.193H78.779Z" fill="#2E2E2E"/>
<path fill-rule="evenodd" clip-rule="evenodd" d="M52.7633 149.07H31.1935C21.5337 149.07 15.7891 157.193 15.7891 166.066L20.0152 166.212C20.0152 158.693 25.5403 152.509 32.3644 152.509H55.9284C55.782 151.155 56.4772 150.259 55.5808 149.673C55.16 149.417 53.2207 149.216 52.7633 149.07Z" fill="#4D4D4D"/>
<path fill-rule="evenodd" clip-rule="evenodd" d="M15.4053 165.956L15.7529 166.011C16.503 163.76 17.4543 160.577 18.735 158.034C19.4302 156.735 20.5828 155.29 21.4792 154.393C23.4734 152.509 25.0651 151.558 27.4617 151.009C29.8949 150.46 33.2978 150.369 39.0791 150.46C45.7019 150.515 51.3916 150.515 55.1238 150.515C54.9226 150.259 54.7213 150.057 54.5201 149.911C50.7879 149.911 45.3543 149.911 39.0791 149.856C33.2429 149.801 29.7669 149.856 27.2788 150.46C24.7357 151.064 23.1441 152.161 21.0584 154.192C20.0156 155.18 19.1741 156.534 18.424 157.979C17.9849 158.729 15.4053 165.462 15.4053 165.956Z" fill="#A7A7A7"/>
<path fill-rule="evenodd" clip-rule="evenodd" d="M17.0325 166.102L20.0146 166.194C20.0146 158.674 25.5397 152.491 32.3637 152.491H55.9277C55.8728 152.088 55.7814 151.74 55.6716 151.448C51.9394 151.448 46.1582 151.448 39.5354 151.393C27.8814 151.247 25.8324 151.649 21.7892 155.619C19.2279 158.125 18.3314 163.01 17.0325 166.102Z" fill="#3B3B3B"/>
<path fill-rule="evenodd" clip-rule="evenodd" d="M16.4844 159.388C12.9535 160.54 13.045 166.413 14.8379 168.7C15.8258 169.944 17.4358 170.292 18.8262 170.2C19.9788 170.145 20.7106 169.999 21.6619 169.45C23.1072 168.609 23.6561 166.12 23.6561 164.51C23.5646 162.425 22.7596 160.778 21.5156 159.882C20.2349 158.93 18.3322 158.784 16.4844 159.388Z" fill="#3B3B3B"/>
<path fill-rule="evenodd" clip-rule="evenodd" d="M16.4836 159.388C15.8799 159.534 15.3859 159.882 14.9834 160.284L15.7335 160.229C18.1667 160.486 19.5206 161.181 20.1609 163.87C20.3073 164.565 21.2037 164.364 21.9538 164.328C22.8503 164.273 23.6004 164.584 23.5455 163.577L23.4906 163.431C23.2345 161.894 22.5392 160.595 21.4964 159.9C20.2341 158.931 18.3314 158.784 16.4836 159.388Z" fill="#4C4C4C"/>
<path fill-rule="evenodd" clip-rule="evenodd" d="M17.783 160.723C18.4782 161.071 19.027 161.528 19.4844 162.224H23.2166C23.0153 161.583 22.6677 161.034 22.2652 160.522H17.783V160.723Z" fill="#565656"/>
<path fill-rule="evenodd" clip-rule="evenodd" d="M19.722 161.272C18.5328 158.985 16.3374 158.674 14.8372 160.577C13.3919 162.462 13.1907 165.864 14.3799 168.151C15.6239 170.438 17.8193 170.749 19.2646 168.847C20.7831 166.962 20.9844 163.559 19.722 161.272Z" fill="#3B3B3B"/>
<path fill-rule="evenodd" clip-rule="evenodd" d="M19.3375 161.181C18.2947 159.095 16.0993 158.985 14.8003 160.778C14.2515 161.583 13.9039 162.516 13.8124 163.669C13.666 165.059 14.0136 166.761 14.6174 167.895C15.6602 170.036 17.5995 170.292 18.8984 168.535C19.5936 167.584 20.1425 166.139 20.1974 164.803C20.234 163.614 19.8315 162.169 19.3375 161.181Z" fill="#4D4D4D"/>
<path fill-rule="evenodd" clip-rule="evenodd" d="M14.5998 167.895C15.7524 170.036 17.7832 170.292 19.137 168.535C19.6858 167.84 20.0335 166.944 20.1798 165.937C20.4725 163.888 19.9786 162.242 19.0821 161.108C18.0393 159.863 16.3927 159.571 15.0389 161.364C14.3986 162.205 13.8863 163.962 13.9961 165.645C14.051 166.358 14.3071 167.31 14.5998 167.895Z" fill="#2A2A2A"/>
<path d="M19.0816 162.114C18.5876 161.272 17.9839 160.815 17.2887 160.723C16.6483 160.632 15.9897 160.925 15.4409 161.62C14.892 162.315 14.5444 163.321 14.4895 164.364C14.4346 165.352 14.6359 166.45 15.0933 167.31C15.5506 168.151 16.191 168.609 16.8313 168.7C17.4716 168.791 18.1851 168.499 18.7157 167.804C19.2645 167.108 19.5573 166.102 19.6121 165.059C19.7219 164.071 19.539 162.974 19.0816 162.114ZM17.2887 161.528C17.7826 161.583 18.2766 161.986 18.6425 162.681C19.045 163.321 19.1914 164.181 19.1365 165.023C19.0816 165.828 18.8438 166.614 18.3864 167.163C17.929 167.767 17.435 167.968 16.8862 167.913C16.3922 167.822 15.8434 167.456 15.4958 166.761C15.1482 166.065 15.0018 165.261 15.0384 164.419C15.0933 163.614 15.3311 162.827 15.7336 162.278C16.191 161.675 16.7398 161.419 17.2887 161.528Z" fill="#5F5F5F"/>
<path fill-rule="evenodd" clip-rule="evenodd" d="M57.9953 149.07H79.5652C89.225 149.07 94.9696 157.193 94.9696 166.066L90.7435 166.212C90.7435 158.693 85.1635 152.509 78.3943 152.509H54.812C55.306 151.155 54.7571 150.021 55.617 149.472C56.111 149.161 57.5563 149.216 57.9953 149.07Z" fill="#4D4D4D"/>
<path fill-rule="evenodd" clip-rule="evenodd" d="M95.3714 165.956L95.0238 166.011C94.2737 163.76 93.3223 160.577 92.0417 158.034C91.3465 156.735 90.1939 155.29 89.2974 154.393C87.3033 152.509 85.7116 151.558 83.3149 151.009C80.8817 150.46 77.4788 150.369 71.6976 150.46C65.0748 150.515 59.385 150.515 55.6528 150.515C55.8541 150.259 56.0553 150.057 56.2566 149.911C59.9888 149.911 65.4224 149.911 71.6976 149.856C77.5337 149.801 81.0098 149.856 83.4979 150.46C86.0409 151.064 87.6326 152.161 89.7182 154.192C90.761 155.18 91.6026 156.534 92.3527 157.979C92.7735 158.729 95.3714 165.462 95.3714 165.956Z" fill="#A7A7A7"/>
<path fill-rule="evenodd" clip-rule="evenodd" d="M93.7256 166.102L90.7435 166.194C90.7435 158.674 85.1635 152.491 78.3943 152.491H54.812C54.8669 152.088 54.9584 151.74 55.0681 151.448C58.8003 151.448 64.5816 151.448 71.2044 151.393C82.8583 151.247 84.9074 151.649 88.9506 155.619C91.5302 158.125 92.4266 163.01 93.7256 166.102Z" fill="#3B3B3B"/>
<path fill-rule="evenodd" clip-rule="evenodd" d="M94.2737 159.388C97.8046 160.54 97.7132 166.413 95.9203 168.7C94.9323 169.944 93.3224 170.292 91.9319 170.2C90.7794 170.145 90.0476 169.999 89.0962 169.45C87.6509 168.609 87.1021 166.12 87.1021 164.51C87.1935 162.425 87.9985 160.778 89.2426 159.882C90.5415 158.93 92.4259 158.784 94.2737 159.388Z" fill="#3B3B3B"/>
<path fill-rule="evenodd" clip-rule="evenodd" d="M94.2752 159.388C94.8789 159.534 95.3729 159.882 95.7754 160.284L95.0253 160.229C92.592 160.486 91.2382 161.181 90.5979 163.87C90.4515 164.565 89.555 164.364 88.8049 164.328C87.9085 164.273 87.1584 164.584 87.2133 163.577L87.2682 163.431C87.5243 161.894 88.2195 160.595 89.2623 159.9C90.543 158.931 92.4274 158.784 94.2752 159.388Z" fill="#4C4C4C"/>
<path fill-rule="evenodd" clip-rule="evenodd" d="M92.9766 160.723C92.2814 161.071 91.7325 161.528 91.2752 162.224H87.543C87.7442 161.583 88.0918 161.034 88.4943 160.522H92.9766V160.723Z" fill="#565656"/>
<path fill-rule="evenodd" clip-rule="evenodd" d="M91.0364 161.272C92.2256 158.985 94.421 158.674 95.9212 160.577C97.3665 162.462 97.5677 165.864 96.3785 168.151C95.1345 170.438 92.9391 170.749 91.4938 168.847C89.9936 166.962 89.7923 163.559 91.0364 161.272Z" fill="#3B3B3B"/>
<path fill-rule="evenodd" clip-rule="evenodd" d="M91.4387 161.181C92.4815 159.095 94.622 158.985 95.9759 160.778C96.5247 161.583 96.8723 162.516 96.9638 163.669C97.1102 165.059 96.7625 166.761 96.1588 167.895C95.116 170.036 93.1767 170.292 91.8778 168.535C91.1826 167.584 90.6337 166.139 90.5788 164.803C90.5422 163.614 90.9264 162.169 91.4387 161.181Z" fill="#4D4D4D"/>
<path fill-rule="evenodd" clip-rule="evenodd" d="M96.1582 167.895C95.0056 170.036 92.9749 170.292 91.6211 168.535C91.0722 167.84 90.7246 166.944 90.5782 165.937C90.2855 163.888 90.7795 162.242 91.6759 161.108C92.7188 159.863 94.3653 159.571 95.7192 161.364C96.3595 162.205 96.8717 163.962 96.762 165.645C96.7071 166.358 96.4692 167.31 96.1582 167.895Z" fill="#2A2A2A"/>
<path d="M91.6765 162.114C92.1704 161.272 92.7742 160.815 93.4694 160.723C94.1097 160.632 94.7683 160.925 95.3172 161.62C95.866 162.315 96.2137 163.321 96.2685 164.364C96.3234 165.352 96.1222 166.45 95.6648 167.31C95.2074 168.151 94.5671 168.609 93.9268 168.7C93.2864 168.791 92.5729 168.499 92.0424 167.804C91.4935 167.108 91.2008 166.102 91.1459 165.059C91.0362 164.071 91.2374 162.974 91.6765 162.114ZM93.4694 161.528C92.9754 161.583 92.4815 161.986 92.079 162.681C91.7314 163.321 91.585 164.181 91.6216 165.023C91.6765 165.828 91.9143 166.614 92.3717 167.163C92.8291 167.767 93.323 167.968 93.8719 167.913C94.3658 167.822 94.9147 167.456 95.2623 166.761C95.6099 166.065 95.7563 165.261 95.7197 164.419C95.6648 163.614 95.427 162.827 95.0245 162.278C94.5671 161.675 94.0182 161.419 93.4694 161.528Z" fill="#5F5F5F"/>
<path fill-rule="evenodd" clip-rule="evenodd" d="M51.0244 149.271C51.8294 149.271 53.9699 149.179 54.5554 149.326C55.7445 149.673 56.2568 151.814 54.6102 151.923C52.2136 152.125 50.4207 152.07 48.6827 152.417C45.5359 153.058 43.249 154.265 41.7488 156.406C40.395 158.29 40.3584 159.644 40.2486 161.693C40.1938 162.041 39.6083 161.949 39.2058 161.784L37.0104 161.034C35.7115 160.632 36.4067 157.796 37.4678 155.656C38.3643 153.661 39.6083 152.674 40.6511 151.96C44.6394 149.362 49.1766 149.271 51.0244 149.271Z" fill="#3B3B3B"/>
<path fill-rule="evenodd" clip-rule="evenodd" d="M52.3239 149.417C52.9277 149.417 53.2204 149.472 53.8241 149.472C54.7755 149.472 55.178 150.972 54.0254 151.21C52.8728 151.503 46.1036 150.661 41.8592 155.253C41.2554 155.894 39.7735 157.595 39.7186 160.98C39.1149 160.98 37.8708 160.687 37.2854 160.687C37.2305 157.156 38.3282 155.016 40.5785 153.021C42.2251 151.576 44.1095 150.68 46.6159 150.039C48.2807 149.564 50.3664 149.417 52.3239 149.417Z" fill="#4D4D4D"/>
<path fill-rule="evenodd" clip-rule="evenodd" d="M53.7147 150.021C45.5002 150.167 37.9626 153.515 38.6212 160.632C37.8163 161.181 37.6333 160.486 37.926 160.284C37.7248 155.692 41.1643 152.802 44.8964 151.173C46.4332 150.46 52.1596 149.307 53.7147 150.021Z" fill="#A7A7A7"/>
<path fill-rule="evenodd" clip-rule="evenodd" d="M34.5777 161.016C36.6267 158.583 40.2126 158.272 42.6458 160.266C45.079 162.315 45.3901 165.901 43.3959 168.334C41.3469 170.767 37.7244 171.133 35.3278 169.084C32.8763 167.054 32.5286 163.468 34.5777 161.016Z" fill="#3B3B3B"/>
<path fill-rule="evenodd" clip-rule="evenodd" d="M34.7791 160.925C36.6635 158.674 40.414 158.638 42.646 160.467C43.6339 161.309 44.1828 162.352 44.384 163.559C44.6402 165.059 44.0364 166.852 43.0302 168.096C41.1458 170.347 37.7978 170.639 35.5475 168.737C34.3584 167.749 33.407 166.248 33.2972 164.803C33.279 163.523 33.9376 161.967 34.7791 160.925Z" fill="#4D4D4D"/>
<path fill-rule="evenodd" clip-rule="evenodd" d="M43.0479 168.096C41.1635 170.347 37.8155 170.639 35.5652 168.737C34.6688 168.042 34.1199 167.035 33.8638 165.992C33.3698 163.852 34.1565 162.059 35.6567 160.852C37.3582 159.553 40.0841 159.26 42.3344 161.108C43.4321 162.059 44.2188 163.907 44.0358 165.645C43.9444 166.45 43.5419 167.456 43.0479 168.096Z" fill="#2A2A2A"/>
<path d="M35.6765 161.968C36.4815 161.071 37.5243 160.522 38.5672 160.431C39.6649 160.339 40.8174 160.687 41.7139 161.419C42.6104 162.169 43.1592 163.212 43.2507 164.309C43.3422 165.407 42.9946 166.505 42.2628 167.401C41.5127 168.353 40.4698 168.847 39.3721 168.938C38.2744 169.03 37.1218 168.737 36.2254 167.95C35.3289 167.2 34.835 166.157 34.7252 165.06C34.6337 164.017 34.9264 162.864 35.6765 161.968ZM38.6586 161.327C37.8171 161.382 36.9572 161.785 36.3718 162.516C35.768 163.212 35.5302 164.108 35.5668 165.005C35.6582 165.846 36.0607 166.706 36.7559 167.291C37.506 167.895 38.4025 168.133 39.2441 168.096C40.1405 168.005 40.9821 167.603 41.5858 166.852C42.1896 166.157 42.4274 165.261 42.3359 164.364C42.281 163.523 41.842 162.663 41.1468 162.077C40.415 161.474 39.5185 161.218 38.6586 161.327Z" fill="#5F5F5F"/>
<path fill-rule="evenodd" clip-rule="evenodd" d="M59.7338 149.271C58.9288 149.271 56.7883 149.179 56.2029 149.326C55.0137 149.673 54.5014 151.814 56.148 151.923C58.5446 152.125 60.3375 152.07 62.0756 152.417C65.2223 153.058 67.5092 154.265 69.0094 156.406C70.3632 158.29 70.3998 159.644 70.5096 161.693C70.5645 162.041 71.1499 161.949 71.5524 161.784L73.7478 161.034C75.0468 160.632 74.3515 157.796 73.2904 155.656C72.394 153.661 71.1499 152.674 70.1071 151.96C66.1188 149.362 61.5816 149.271 59.7338 149.271Z" fill="#3B3B3B"/>
<path fill-rule="evenodd" clip-rule="evenodd" d="M58.4528 149.417C57.8491 149.417 57.5563 149.472 56.9526 149.472C56.0013 149.472 55.5988 150.972 56.7514 151.21C57.9039 151.503 64.6731 150.661 68.9176 155.253C69.5213 155.894 71.0032 157.595 71.0581 160.98C71.6618 160.98 72.9059 160.687 73.4913 160.687C73.5462 157.156 72.4485 155.016 70.1982 153.021C68.5517 151.576 66.6673 150.68 64.1609 150.039C62.4777 149.564 60.3921 149.417 58.4528 149.417Z" fill="#4D4D4D"/>
<path fill-rule="evenodd" clip-rule="evenodd" d="M57.0442 150.021C65.2587 150.167 72.7962 153.515 72.1376 160.632C72.9426 161.181 73.1255 160.486 72.8328 160.284C73.0341 155.692 69.5946 152.802 65.8075 151.173C64.3256 150.46 58.5993 149.307 57.0442 150.021Z" fill="#A7A7A7"/>
<path fill-rule="evenodd" clip-rule="evenodd" d="M76.1805 161.016C74.1314 158.583 70.5456 158.272 68.1123 160.266C65.6791 162.315 65.3681 165.901 67.3623 168.334C69.4113 170.767 73.0337 171.133 75.4304 169.084C77.8819 167.054 78.2295 163.468 76.1805 161.016Z" fill="#3B3B3B"/>
<path fill-rule="evenodd" clip-rule="evenodd" d="M75.98 160.925C74.0956 158.674 70.3451 158.638 68.1131 160.467C67.1252 161.309 66.5763 162.352 66.3751 163.559C66.119 165.059 66.6678 166.852 67.7289 168.096C69.6133 170.347 72.9613 170.639 75.2116 168.737C76.4008 167.749 77.3521 166.248 77.4619 164.803C77.4802 163.523 76.8399 161.967 75.98 160.925Z" fill="#4D4D4D"/>
<path fill-rule="evenodd" clip-rule="evenodd" d="M67.71 168.096C69.5943 170.347 72.9423 170.639 75.1926 168.737C76.0891 168.042 76.6379 167.035 76.8941 165.992C77.388 163.852 76.6013 162.059 75.1012 160.852C73.3997 159.553 70.6738 159.26 68.4235 161.108C67.3258 162.059 66.5391 163.907 66.722 165.645C66.8135 166.45 67.216 167.456 67.71 168.096Z" fill="#2A2A2A"/>
<path d="M75.0839 161.968C74.2789 161.071 73.2361 160.522 72.1932 160.431C71.0955 160.339 69.943 160.687 69.0465 161.419C68.15 162.169 67.6012 163.212 67.5097 164.309C67.4182 165.407 67.7658 166.505 68.4976 167.401C69.2477 168.353 70.2906 168.847 71.3883 168.938C72.486 169.03 73.5837 168.737 74.535 167.95C75.4315 167.2 75.9254 166.157 76.0352 165.06C76.1267 164.017 75.834 162.864 75.0839 161.968ZM72.1018 161.327C72.9433 161.382 73.8032 161.785 74.3887 162.516C74.9924 163.212 75.2302 164.108 75.1936 165.005C75.1022 165.846 74.6997 166.706 74.0045 167.291C73.2544 167.895 72.3579 168.133 71.5163 168.096C70.6199 168.005 69.7783 167.603 69.1746 166.852C68.5708 166.157 68.333 165.261 68.4245 164.364C68.4794 163.523 68.9184 162.663 69.6136 162.077C70.3637 161.474 71.2602 161.218 72.1018 161.327Z" fill="#5F5F5F"/>
<path fill-rule="evenodd" clip-rule="evenodd" d="M95.0245 107.814C95.0245 110.796 92.5913 113.248 89.5909 113.248H21.0211C18.0756 113.248 15.6423 110.815 15.6423 107.814C15.6423 100.332 35.6754 98.3558 55.5987 98.3923C75.3939 98.3923 95.0245 100.441 95.0245 107.814Z" fill="#3A598D"/>
<path fill-rule="evenodd" clip-rule="evenodd" d="M93.8729 108.601C93.8729 110.888 91.5311 112.79 88.6405 112.79H22.0282C19.1376 112.79 16.741 110.906 16.741 108.601C16.741 102.765 36.2252 102.326 55.5996 102.38C74.7911 102.38 93.8729 102.82 93.8729 108.601Z" fill="#355388"/>
<path fill-rule="evenodd" clip-rule="evenodd" d="M91.8785 109.406C91.8785 111.492 89.6282 113.248 86.9022 113.248H23.766C21.0218 113.248 18.7898 111.51 18.7898 109.406C18.7898 104.174 37.2312 104.082 55.6177 104.082C73.7847 104.119 91.8785 104.228 91.8785 109.406Z" fill="#2B497D"/>
<path fill-rule="evenodd" clip-rule="evenodd" d="M86.2977 101.484C82.0166 99.6364 69.7041 98.3374 55.1046 98.3374C40.4503 98.3374 27.9914 99.6912 23.8567 101.521C32.62 100.716 43.6885 101.265 55.1961 101.265C66.2646 101.283 77.7722 100.789 86.2977 101.484Z" fill="#4F6B9A"/>
<path fill-rule="evenodd" clip-rule="evenodd" d="M95.0245 107.814C95.0245 110.796 92.5913 113.248 89.5909 113.248H21.0211C18.1305 113.248 15.7338 110.906 15.6423 108.015C17.1791 110.449 19.4843 110.76 27.8085 110.961C38.0721 111.217 80.2787 111.363 86.0599 111.217C91.4387 111.126 93.6341 110.064 94.6769 106.241C94.8599 106.716 95.0245 107.265 95.0245 107.814Z" fill="#244273"/>
<path fill-rule="evenodd" clip-rule="evenodd" d="M27.7548 2.1238C29.6026 2.52629 26.9498 4.7217 26.2546 7.70379C25.5594 10.6859 26.401 13.7777 25.2667 12.7898C24.169 11.8019 23.3823 9.00274 24.0226 6.05724C24.7178 3.07514 25.9619 1.73961 27.7548 2.1238ZM82.6582 2.1238C80.8653 2.52629 83.4998 4.7217 84.1584 7.70379C84.8536 10.6859 84.0669 13.7777 85.1463 12.7898C86.2989 11.8019 87.0856 9.00274 86.3904 6.05724C85.7501 3.07514 84.506 1.73961 82.6582 2.1238Z" fill="#5573A7"/>
</svg>
