<svg width="127" height="191" viewBox="0 0 127 191" fill="none" xmlns="http://www.w3.org/2000/svg">
<g clip-path="url(#clip0_9_966)">
<path fill-rule="evenodd" clip-rule="evenodd" d="M97.5755 15.8901C97.7978 18.517 95.0093 20.6992 91.9177 20.6992H34.1275C31.0359 20.6992 28.2475 18.517 28.4697 15.8901C29.9448 -4.05355 96.1004 -4.05355 97.5755 15.8901Z" fill="#004D84"/>
<path fill-rule="evenodd" clip-rule="evenodd" d="M96.1013 11.5458C97.5359 14.1726 98.3846 16.6984 96.5054 18.7392C95.4142 19.9314 93.3128 20.6791 91.4134 20.6791H34.6335C31.4813 20.6791 27.8846 17.9916 28.5716 15.3648L29.1374 13.3037C29.986 16.2134 31.4813 16.2741 34.6335 16.2741H91.3932C94.5454 16.2943 97.5157 15.7285 96.1013 11.5458Z" fill="#004771"/>
<path fill-rule="evenodd" clip-rule="evenodd" d="M62.0724 2.91772C66.3562 2.91772 74.9439 3.60474 84.3196 6.11033C93.4731 8.63613 94.3824 13.0411 90.8867 13.0411H35.1576C29.035 13.0411 33.8441 8.53509 42.0681 5.78703C48.8171 3.4835 58.3141 2.91772 62.0724 2.91772Z" fill="#005C97"/>
<path fill-rule="evenodd" clip-rule="evenodd" d="M94.2614 9.38378C74.6006 2.23073 51.2219 0.755663 31.3186 9.78791C42.4725 -1.89137 82.4407 -2.05302 94.2614 9.38378Z" fill="#2174AE"/>
<path fill-rule="evenodd" clip-rule="evenodd" d="M33.2178 10.5153C34.1877 10.394 32.5308 12.2328 31.8438 14.011C31.0961 15.7891 31.3386 17.5067 30.692 17.2036C30.0656 16.9207 29.8838 14.5768 30.8132 13.0815C31.6619 11.667 32.2883 10.6365 33.2178 10.5153ZM92.8872 10.3536C92.3214 10.4142 93.2913 12.0712 93.9783 13.8493C94.726 15.6275 94.726 17.1025 95.1705 16.658C95.6757 16.1933 95.7363 14.7182 95.0089 12.94C94.3218 11.1417 93.4126 10.2324 92.8872 10.3536Z" fill="#2174AE"/>
<path fill-rule="evenodd" clip-rule="evenodd" d="M31.3188 18.9818H94.7062C98.2019 18.9818 100.829 21.3864 101.051 24.2961L101.617 31.3885C101.677 32.1362 101.334 34.5811 101.051 35.2277C100.142 37.1675 97.8988 36.723 95.2719 36.723H30.753C29.0355 36.723 27.2573 37.0665 26.0652 36.0966C24.873 35.1267 24.287 32.904 24.4082 31.4087L24.974 24.3163C25.2165 21.3864 27.8433 18.9818 31.3188 18.9818Z" fill="#004D84"/>
<path fill-rule="evenodd" clip-rule="evenodd" d="M101.071 27.3876V31.3884C101.071 34.2982 98.2217 36.7027 94.726 36.7027H31.3184C27.8227 36.7027 24.9736 34.2982 24.9736 31.3884V27.3876C25.8829 30.6408 27.8227 31.8532 31.3184 31.8532H94.7058C98.2015 31.8532 99.4139 30.1963 101.071 27.3876Z" fill="#004771"/>
<path fill-rule="evenodd" clip-rule="evenodd" d="M31.9451 19.8911H94.1402C100.081 19.8911 100.081 28.2363 94.1402 28.2363H31.9451C25.9438 28.2363 25.9438 19.8911 31.9451 19.8911Z" fill="#005C97"/>
<path fill-rule="evenodd" clip-rule="evenodd" d="M30.6927 20.5781H95.1712C96.2018 20.5781 97.2929 22.2957 96.2624 22.2957H29.6622C28.6317 22.2957 29.6622 20.5781 30.6927 20.5781Z" fill="#2174AE"/>
<path fill-rule="evenodd" clip-rule="evenodd" d="M29.5004 36.7026H96.5653C100.283 36.7026 103.031 39.1072 103.254 42.0169L103.819 49.17C103.941 50.2611 103.355 52.605 102.627 53.4537C101.435 54.8277 99.4346 54.4842 97.1311 54.4842H28.9346C26.8736 54.4842 25.0954 54.949 23.8426 53.7366C22.8727 52.8273 22.1251 50.4228 22.2463 49.17L22.8121 42.0169C23.0344 39.1072 25.7824 36.7026 29.5004 36.7026Z" fill="#004D84"/>
<path fill-rule="evenodd" clip-rule="evenodd" d="M103.234 45.1692V49.1701C103.234 52.0798 100.264 54.4843 96.5458 54.4843H29.501C25.7831 54.4843 22.8127 52.0798 22.8127 49.1701V45.1692C23.7826 48.4224 25.7831 49.5742 29.501 49.5742H96.566C100.264 49.5742 101.476 47.9173 103.234 45.1692Z" fill="#004771"/>
<path fill-rule="evenodd" clip-rule="evenodd" d="M30.1272 37.6119H95.9191C102.203 37.6119 102.203 46.0178 95.9191 46.0178H30.1272C23.843 46.0178 23.843 37.6119 30.1272 37.6119Z" fill="#005C97"/>
<path fill-rule="evenodd" clip-rule="evenodd" d="M28.8737 38.299H97.0096C98.1613 38.299 99.2323 40.0771 98.1613 40.0771H27.7219C26.6308 40.0771 27.7826 38.299 28.8737 38.299Z" fill="#2174AE"/>
<path fill-rule="evenodd" clip-rule="evenodd" d="M28.126 54.3632H97.9188C101.758 54.3632 104.668 56.7677 104.89 59.6774L105.516 66.7699C105.577 67.9216 105.234 70.2656 104.486 71.1142C103.233 72.4883 100.889 72.1448 98.5452 72.1448H27.5602C25.6204 72.1448 23.721 72.266 22.4682 71.3365C21.1548 70.3666 20.4072 68.2449 20.5284 66.7699L21.1548 59.6774C21.3771 56.7677 24.2868 54.3632 28.126 54.3632Z" fill="#004D84"/>
<path fill-rule="evenodd" clip-rule="evenodd" d="M104.89 62.7689V66.8304C104.89 69.7401 101.738 72.1447 97.919 72.1447H28.1262C24.287 72.1447 21.155 69.7401 21.155 66.8304V62.7689C22.1249 66.0828 24.3072 67.2345 28.1262 67.2345H97.919C101.758 67.2345 103.072 65.5776 104.89 62.7689Z" fill="#004771"/>
<path fill-rule="evenodd" clip-rule="evenodd" d="M28.8128 55.2926H97.2921C103.819 55.2926 103.819 63.6378 97.2921 63.6378H28.8128C22.2457 63.6378 22.2457 55.2926 28.8128 55.2926Z" fill="#005C97"/>
<path fill-rule="evenodd" clip-rule="evenodd" d="M27.4393 55.9595H98.4445C99.5962 55.9595 100.728 57.677 99.6366 57.677H26.2875C25.156 57.677 26.2875 55.9595 27.4393 55.9595Z" fill="#2174AE"/>
<path fill-rule="evenodd" clip-rule="evenodd" d="M26.2477 72.0841H99.8797C103.881 72.0841 106.972 74.4887 107.194 77.3984L107.821 84.5514C107.982 86.0467 107.417 88.2694 106.043 89.2393C104.669 90.2092 102.446 89.8657 100.446 89.8657H25.6011C23.4189 89.8657 21.0951 90.1486 19.7211 89.0575C18.5693 88.0875 18.1248 85.9053 18.2258 84.5312L18.8522 77.3782C19.0947 74.4887 22.1863 72.0841 26.2477 72.0841Z" fill="#004D84"/>
<path fill-rule="evenodd" clip-rule="evenodd" d="M107.194 80.5505V84.5514C107.194 87.4611 103.88 89.8657 99.8791 89.8657H26.2471C22.1857 89.8657 18.8718 87.4611 18.8718 84.5514V80.5505C19.9024 83.8038 22.1857 85.0161 26.2471 85.0161H99.8791C103.86 85.0161 105.234 83.3592 107.194 80.5505Z" fill="#004771"/>
<path fill-rule="evenodd" clip-rule="evenodd" d="M26.9136 73.054H99.111C106.022 73.054 106.022 81.3992 99.111 81.3992H26.9136C20.0031 81.3992 20.0031 73.054 26.9136 73.054Z" fill="#005C97"/>
<path fill-rule="evenodd" clip-rule="evenodd" d="M25.4991 73.6804H100.384C101.576 73.6804 102.788 75.4586 101.637 75.4586H24.2868C23.0946 75.4586 24.2868 73.6804 25.4991 73.6804Z" fill="#2174AE"/>
<path fill-rule="evenodd" clip-rule="evenodd" d="M24.6915 89.7445H101.354C105.578 89.7445 108.79 92.1491 109.013 95.0588L109.7 102.212C109.76 103.364 109.235 105.708 108.265 106.617C106.83 107.87 104.486 107.526 101.981 107.526H24.0651C21.5595 107.526 19.0944 107.87 17.6597 106.556C16.7504 105.708 16.2857 103.364 16.4069 102.212L17.0333 95.0588C17.3162 92.1491 20.4684 89.7445 24.6915 89.7445Z" fill="#004D84"/>
<path fill-rule="evenodd" clip-rule="evenodd" d="M109.013 98.2108V102.212C109.013 105.121 105.578 107.526 101.355 107.526H24.6919C20.4688 107.526 17.0337 105.121 17.0337 102.212V98.2108C18.1248 101.464 20.4688 102.616 24.6919 102.616H101.355C105.578 102.616 106.952 100.959 109.013 98.2108Z" fill="#004771"/>
<path fill-rule="evenodd" clip-rule="evenodd" d="M25.4386 90.674H100.606C107.8 90.674 107.8 99.0192 100.606 99.0192H25.4386C18.2249 99.0192 18.2249 90.674 25.4386 90.674Z" fill="#005C97"/>
<path fill-rule="evenodd" clip-rule="evenodd" d="M23.9437 91.361H101.92C103.112 91.361 104.426 93.0785 103.173 93.0785H22.6909C21.4381 93.0785 22.7515 91.361 23.9437 91.361Z" fill="#2174AE"/>
<path fill-rule="evenodd" clip-rule="evenodd" d="M20.7513 135.249L23.0346 135.593L29.6623 129.591L68.6403 125.813L69.2061 127.247L30.8544 130.844L23.9439 137.027L22.974 138.341L18.2861 139.836C18.0638 139.897 15.3764 138.684 15.2551 137.33C15.2551 136.461 15.8815 136.563 20.7513 135.249Z" fill="#2E2E2E"/>
<path d="M66.3769 134.623H59.2239V166.812H66.3769V134.623Z" fill="#4C4C4C"/>
<path d="M65.5694 135.148H62.4778V166.812H65.5694V135.148Z" fill="#323232"/>
<path d="M64.8215 135.148H63.791V166.812H64.8215V135.148Z" fill="#CACACA"/>
<path d="M60.3154 135.148H59.9719V166.812H60.3154V135.148Z" fill="#CACACA"/>
<path fill-rule="evenodd" clip-rule="evenodd" d="M68.721 130.965V142.463H56.9407V131.026C57.3448 129.308 59.5675 128.217 62.8207 128.217C65.9123 128.217 68.135 128.904 68.721 130.965Z" fill="#4C4C4C"/>
<path fill-rule="evenodd" clip-rule="evenodd" d="M66.5993 128.803V142.463H59.1028V128.864C60.0727 128.46 61.3255 128.238 62.8208 128.238C64.316 128.217 65.6294 128.399 66.5993 128.803Z" fill="#323232"/>
<path fill-rule="evenodd" clip-rule="evenodd" d="M94.201 120.963V124.216C94.201 126.217 92.544 127.813 90.6042 127.813H80.0363C76.8437 129.874 71.5698 130.278 63.1236 130.319C54.152 130.379 48.7771 130.036 44.5943 127.813H34.0264C32.0866 127.813 30.4297 126.217 30.4297 124.216V120.963H94.201Z" fill="#3C3C3C"/>
<path fill-rule="evenodd" clip-rule="evenodd" d="M59.8498 165.619H35.097C24.0037 165.619 17.376 174.874 17.376 185.119L22.2255 185.28C22.2255 176.591 28.6309 169.499 36.4508 169.499H63.4465C63.3252 167.963 64.1335 166.933 63.103 166.306C62.5978 165.963 60.3751 165.72 59.8498 165.619Z" fill="#4C4C4C"/>
<path fill-rule="evenodd" clip-rule="evenodd" d="M16.9729 184.997H17.377C18.2257 182.431 19.2562 178.814 20.8121 175.904C21.5597 174.409 22.9338 172.712 23.9643 171.722C26.187 169.499 28.0864 168.468 30.7738 167.842C33.5825 167.155 37.4622 167.094 44.1505 167.155C51.6874 167.276 58.2747 167.276 62.5585 167.216C62.3362 166.993 62.0937 166.751 61.8108 166.529C57.5271 166.589 51.2833 166.589 44.1505 166.468C37.4015 166.407 33.4613 166.468 30.6122 167.155C27.6419 167.842 25.8637 169.155 23.4591 171.499C22.267 172.651 21.2364 174.187 20.4282 175.844C19.9432 176.692 16.9729 184.371 16.9729 184.997Z" fill="#CACACA"/>
<path fill-rule="evenodd" clip-rule="evenodd" d="M18.8718 185.159L22.2463 185.28C22.2463 176.591 28.6517 169.499 36.4716 169.499H63.4471C63.3864 169.095 63.3258 168.691 63.1642 168.307C58.941 168.367 52.2931 168.367 44.6349 168.307C31.2583 168.145 28.975 168.59 24.2871 173.116C21.3774 175.965 20.3469 181.562 18.8718 185.159Z" fill="#323232"/>
<path fill-rule="evenodd" clip-rule="evenodd" d="M18.2254 177.379C14.1033 178.693 14.2851 185.502 16.3462 188.069C17.498 189.564 19.2559 189.948 20.9128 189.847C22.2262 189.725 23.0345 189.624 24.1661 188.998C25.823 188.028 26.4494 185.159 26.3888 183.34C26.3281 180.936 25.4188 178.996 23.9842 177.965C22.5293 176.935 20.347 176.692 18.2254 177.379Z" fill="#323232"/>
<path fill-rule="evenodd" clip-rule="evenodd" d="M18.2256 177.379C17.5386 177.602 16.9728 178.006 16.5081 178.471L17.3163 178.41C20.1654 178.693 21.7213 179.501 22.4083 182.532C22.57 183.34 23.6611 183.098 24.4694 183.098C25.4999 183.037 26.4092 183.32 26.3081 182.249V182.087C26.0253 180.249 25.1564 178.834 24.0248 177.965C22.5296 176.935 20.3473 176.692 18.2256 177.379Z" fill="#4B4B4B"/>
<path fill-rule="evenodd" clip-rule="evenodd" d="M19.7209 178.996C20.5292 179.339 21.1556 179.905 21.6001 180.713H25.9445C25.6616 179.966 25.3181 179.279 24.8534 178.774H19.7209V178.996Z" fill="#575757"/>
<path fill-rule="evenodd" clip-rule="evenodd" d="M21.943 179.562C20.5084 176.935 18.0028 176.591 16.3459 178.753C14.6283 180.976 14.4061 184.876 15.8407 187.503C17.2754 190.13 19.7203 190.473 21.4379 188.311C23.0948 186.068 23.3171 182.189 21.943 179.562Z" fill="#323232"/>
<path fill-rule="evenodd" clip-rule="evenodd" d="M21.4981 179.501C20.2453 177.036 17.7801 176.995 16.305 178.996C15.618 179.905 15.2745 181.057 15.1129 182.37C14.9916 183.906 15.3351 185.906 16.0222 187.22C17.2749 189.624 19.5179 189.968 20.9929 187.907C21.8012 186.876 22.4276 185.219 22.4882 183.684C22.468 182.249 22.0639 180.592 21.4981 179.501Z" fill="#4C4C4C"/>
<path fill-rule="evenodd" clip-rule="evenodd" d="M16.0629 187.22C17.3763 189.624 19.6596 189.968 21.2559 187.907C21.8217 187.159 22.2258 186.068 22.4077 184.997C22.7512 182.653 22.246 180.713 21.1549 179.461C20.0031 178.026 18.124 177.683 16.5276 179.744C15.78 180.713 15.2749 182.714 15.3759 184.593C15.4365 185.442 15.7194 186.533 16.0629 187.22Z" fill="#212121"/>
<path d="M21.1555 180.592C20.6503 179.622 19.9027 179.057 19.1551 178.935C18.4074 178.814 17.6194 179.158 16.9728 180.026C16.3464 180.835 16.0029 181.966 15.9423 183.118C15.8816 184.31 16.0635 185.523 16.6293 186.493C17.1344 187.462 17.8214 188.028 18.6297 188.149C19.3773 188.271 20.1654 187.927 20.812 187.058C21.4384 186.25 21.7819 185.118 21.8425 183.967C21.9031 182.754 21.6607 181.562 21.1555 180.592ZM19.0944 179.845C19.7208 179.966 20.2866 180.41 20.6908 181.158C21.0949 181.966 21.2565 182.936 21.1959 183.845C21.1959 184.815 20.913 185.725 20.3877 186.351C19.8825 186.977 19.2359 187.26 18.6701 187.2C18.0437 187.078 17.4779 186.634 17.0738 185.886C16.6091 185.078 16.4474 184.108 16.508 183.199C16.5687 182.229 16.8515 181.36 17.3567 180.693C17.9023 180.067 18.5287 179.784 19.0944 179.845Z" fill="black"/>
<path fill-rule="evenodd" clip-rule="evenodd" d="M65.8522 165.619H90.5444C101.638 165.619 108.265 174.874 108.265 185.119L103.416 185.28C103.416 176.591 97.0104 169.499 89.1905 169.499H62.1948C62.7606 167.963 62.0736 166.69 63.1041 166.003C63.6295 165.72 65.2864 165.72 65.8522 165.619Z" fill="#4C4C4C"/>
<path fill-rule="evenodd" clip-rule="evenodd" d="M108.67 184.997H108.265C107.417 182.431 106.386 178.814 104.83 175.904C104.083 174.409 102.709 172.712 101.678 171.722C99.4554 169.499 97.556 168.468 94.8686 167.842C92.0599 167.155 88.1803 167.094 81.492 167.155C73.955 167.276 67.3677 167.276 63.084 167.216C63.3063 166.993 63.5487 166.751 63.8316 166.529C68.1154 166.589 74.3591 166.589 81.492 166.468C88.2409 166.407 92.1811 166.468 95.0302 167.155C98.0006 167.842 99.7787 169.155 102.183 171.499C103.375 172.651 104.406 174.187 105.275 175.844C105.699 176.692 108.67 184.371 108.67 184.997Z" fill="#CACACA"/>
<path fill-rule="evenodd" clip-rule="evenodd" d="M106.79 185.159L103.416 185.28C103.416 176.591 97.0104 169.499 89.1905 169.499H62.1948C62.2554 169.095 62.3161 168.691 62.4777 168.307C66.7615 168.367 73.3487 168.367 81.007 168.307C94.3836 168.145 96.6669 168.59 101.355 173.116C104.264 175.965 105.295 181.562 106.79 185.159Z" fill="#323232"/>
<path fill-rule="evenodd" clip-rule="evenodd" d="M107.416 177.379C111.538 178.693 111.417 185.502 109.296 188.069C108.144 189.564 106.386 189.948 104.729 189.847C103.416 189.725 102.607 189.624 101.476 188.998C99.8188 188.028 99.1924 185.159 99.253 183.34C99.3136 180.936 100.223 178.996 101.658 177.965C103.173 176.935 105.355 176.692 107.416 177.379Z" fill="#323232"/>
<path fill-rule="evenodd" clip-rule="evenodd" d="M107.417 177.379C108.104 177.602 108.67 178.006 109.134 178.471L108.326 178.41C105.477 178.693 103.982 179.501 103.234 182.532C103.073 183.34 101.981 183.098 101.173 183.098C100.143 183.037 99.294 183.32 99.3344 182.249V182.087C99.6173 180.249 100.486 178.834 101.618 177.965C103.174 176.935 105.356 176.692 107.417 177.379Z" fill="#4B4B4B"/>
<path fill-rule="evenodd" clip-rule="evenodd" d="M105.922 178.996C105.114 179.339 104.487 179.905 104.043 180.713H99.6982C99.9811 179.966 100.325 179.279 100.85 178.774H105.942V178.996H105.922Z" fill="#575757"/>
<path fill-rule="evenodd" clip-rule="evenodd" d="M103.698 179.562C105.133 176.935 107.638 176.591 109.295 178.753C111.013 180.976 111.235 184.876 109.8 187.503C108.426 190.13 105.921 190.473 104.203 188.311C102.546 186.068 102.324 182.189 103.698 179.562Z" fill="#323232"/>
<path fill-rule="evenodd" clip-rule="evenodd" d="M104.163 179.501C105.416 177.036 107.881 176.995 109.356 178.996C110.043 179.905 110.387 181.057 110.548 182.37C110.67 183.906 110.326 185.906 109.639 187.22C108.386 189.624 106.143 189.968 104.668 187.907C103.921 186.876 103.234 185.219 103.173 183.684C103.173 182.249 103.577 180.592 104.163 179.501Z" fill="#4C4C4C"/>
<path fill-rule="evenodd" clip-rule="evenodd" d="M109.578 187.22C108.265 189.624 105.981 189.968 104.426 187.907C103.799 187.159 103.395 186.068 103.233 184.997C102.89 182.653 103.456 180.713 104.486 179.461C105.638 178.026 107.578 177.683 109.113 179.744C109.861 180.713 110.427 182.714 110.265 184.593C110.205 185.442 109.922 186.533 109.578 187.22Z" fill="#212121"/>
<path d="M104.506 180.592C105.011 179.622 105.759 179.057 106.507 178.935C107.254 178.814 108.042 179.158 108.689 180.026C109.315 180.835 109.659 181.966 109.72 183.118C109.841 184.31 109.598 185.523 109.093 186.493C108.527 187.462 107.84 188.028 107.032 188.149C106.284 188.271 105.537 187.927 104.91 187.058C104.284 186.25 103.88 185.118 103.819 183.967C103.759 182.754 103.981 181.562 104.506 180.592ZM106.547 179.845C105.981 179.966 105.355 180.41 104.951 181.158C104.547 181.966 104.385 182.936 104.446 183.845C104.506 184.815 104.789 185.725 105.254 186.351C105.759 186.977 106.406 187.26 107.032 187.2C107.598 187.078 108.184 186.634 108.568 185.886C109.033 185.078 109.194 184.108 109.134 183.199C109.073 182.229 108.79 181.36 108.285 180.693C107.76 180.067 107.194 179.784 106.547 179.845Z" fill="black"/>
<path fill-rule="evenodd" clip-rule="evenodd" d="M57.8499 165.781C58.6986 165.781 61.2244 165.72 61.9114 165.902C63.2248 166.246 63.8512 168.711 61.972 168.873C59.1633 169.095 57.1629 169.034 55.1624 169.438C51.5051 170.125 48.9389 171.56 47.2213 173.944C45.6857 176.127 45.5644 177.723 45.4432 180.067C45.4432 180.41 44.7562 180.289 44.2914 180.188L41.7858 179.339C40.2906 178.834 41.0988 175.621 42.2506 173.116C43.3417 170.833 44.7562 169.741 45.9079 168.933C50.5352 165.902 55.6878 165.781 57.8499 165.781Z" fill="#323232"/>
<path fill-rule="evenodd" clip-rule="evenodd" d="M59.3452 166.003C59.9716 166.003 60.3151 166.003 61.0021 166.003C62.1539 166.064 62.5984 167.721 61.2244 168.004C59.911 168.408 52.1921 167.438 47.3426 172.692C46.595 173.439 44.8774 175.318 44.837 179.218C44.15 179.218 42.7153 178.935 42.0283 178.935C42.0283 174.874 43.2811 172.409 45.8675 170.125C47.7467 168.408 49.929 167.377 52.7175 166.69C54.6977 166.185 57.1023 166.003 59.3452 166.003Z" fill="#4C4C4C"/>
<path fill-rule="evenodd" clip-rule="evenodd" d="M60.9418 166.65C51.5055 166.811 42.8773 170.711 43.5644 178.834C42.6551 179.521 42.4732 178.713 42.7561 178.491C42.5945 173.237 46.5347 169.923 50.8184 167.963C52.536 167.216 59.1637 165.842 60.9418 166.65Z" fill="#CACACA"/>
<path fill-rule="evenodd" clip-rule="evenodd" d="M38.9367 179.279C41.2807 176.531 45.4634 176.127 48.1913 178.471C50.9999 180.754 51.3839 184.937 49.0399 187.725C46.696 190.534 42.5739 190.877 39.7854 188.574C36.9767 186.25 36.6332 182.067 38.9367 179.279Z" fill="#323232"/>
<path fill-rule="evenodd" clip-rule="evenodd" d="M39.2198 179.218C41.4021 176.652 45.6252 176.531 48.1914 178.713C49.3836 179.683 50.0302 180.835 50.2525 182.249C50.5354 183.906 49.8484 186.028 48.7168 187.402C46.5345 190.029 42.7155 190.372 40.1493 188.21C38.7753 187.058 37.6437 185.3 37.5831 183.643C37.5023 182.188 38.1893 180.41 39.2198 179.218Z" fill="#4C4C4C"/>
<path fill-rule="evenodd" clip-rule="evenodd" d="M48.6969 187.402C46.5146 190.029 42.6956 190.372 40.1294 188.21C39.0989 187.361 38.4119 186.27 38.129 185.058C37.5632 182.552 38.4725 180.552 40.2506 179.178C42.1905 177.642 45.3427 177.299 47.9089 179.461C49.1617 180.491 50.0305 182.653 49.8487 184.654C49.7274 185.563 49.2829 186.715 48.6969 187.402Z" fill="#212121"/>
<path d="M40.25 180.37C41.0987 179.34 42.311 178.774 43.5638 178.652C44.8166 178.531 46.0694 178.875 47.1606 179.744C48.1911 180.592 48.7569 181.865 48.8781 183.057C48.9993 184.31 48.6558 185.624 47.787 186.654C46.8777 187.685 45.6653 188.311 44.4731 188.432C43.2203 188.493 41.9069 188.149 40.8764 187.281C39.8459 186.432 39.2195 185.22 39.0982 183.967C38.977 182.714 39.3811 181.38 40.25 180.37ZM43.6649 179.622C42.6343 179.744 41.6644 180.188 40.9774 180.996C40.2904 181.845 40.0075 182.876 40.1288 183.846C40.1894 184.876 40.6945 185.846 41.5028 186.533C42.3514 187.22 43.382 187.503 44.3519 187.382C45.3218 187.321 46.2917 186.816 46.9787 186.008C47.6657 185.159 47.9486 184.128 47.888 183.159C47.7668 182.189 47.3222 181.219 46.514 180.532C45.6653 179.845 44.655 179.562 43.6649 179.622Z" fill="black"/>
<path fill-rule="evenodd" clip-rule="evenodd" d="M67.8527 165.781C66.9434 165.781 64.4783 165.72 63.7306 165.902C62.4172 166.246 61.7908 168.711 63.67 168.873C66.4787 169.095 68.4791 169.034 70.4795 169.438C74.1369 170.125 76.7031 171.56 78.4207 173.944C80.017 176.127 80.0776 177.723 80.1988 180.067C80.1988 180.41 80.8858 180.289 81.3506 180.188L83.8562 179.339C85.3918 178.834 84.5432 175.621 83.3914 173.116C82.3003 170.833 80.8858 169.741 79.7341 168.933C75.1068 165.902 69.9744 165.781 67.8527 165.781Z" fill="#323232"/>
<path fill-rule="evenodd" clip-rule="evenodd" d="M66.3166 166.003C65.6902 166.003 65.3467 166.003 64.6597 166.003C63.5686 166.064 63.0634 167.721 64.4374 168.004C65.7508 168.408 73.4697 167.438 78.3192 172.692C79.0668 173.439 80.7844 175.318 80.8248 179.218C81.5118 179.218 82.9465 178.935 83.6335 178.935C83.6335 174.874 82.3807 172.409 79.8549 170.125C77.9757 168.408 75.7328 167.377 72.9443 166.69C70.9439 166.185 68.5999 166.003 66.3166 166.003Z" fill="#4C4C4C"/>
<path fill-rule="evenodd" clip-rule="evenodd" d="M64.7207 166.65C74.1571 166.811 82.7852 170.711 82.0982 178.834C83.0075 179.521 83.1893 178.713 82.9064 178.491C83.0681 173.237 79.1278 169.923 74.8441 167.963C73.1063 167.216 66.4787 165.842 64.7207 166.65Z" fill="#CACACA"/>
<path fill-rule="evenodd" clip-rule="evenodd" d="M86.7258 179.279C84.3819 176.531 80.1992 176.127 77.4713 178.471C74.6626 180.754 74.2787 184.937 76.6226 187.725C78.9666 190.534 83.0887 190.877 85.8771 188.574C88.6656 186.25 89.0091 182.067 86.7258 179.279Z" fill="#323232"/>
<path fill-rule="evenodd" clip-rule="evenodd" d="M86.4417 179.218C84.3201 176.652 80.0363 176.531 77.4701 178.713C76.2779 179.683 75.6313 180.835 75.4091 182.249C75.1868 183.906 75.8132 186.028 77.0054 187.402C79.127 190.029 82.946 190.372 85.5729 188.21C86.8863 187.058 88.038 185.3 88.0784 183.643C88.1391 182.188 87.4521 180.41 86.4417 179.218Z" fill="#4C4C4C"/>
<path fill-rule="evenodd" clip-rule="evenodd" d="M77.0061 187.402C79.1278 190.029 82.9468 190.372 85.5736 188.21C86.5435 187.361 87.2306 186.27 87.5134 185.058C88.0792 182.552 87.1699 180.552 85.3918 179.178C83.452 177.642 80.3604 177.299 77.7336 179.461C76.5414 180.491 75.6119 182.653 75.8544 184.654C75.915 185.563 76.3797 186.715 77.0061 187.402Z" fill="#212121"/>
<path d="M85.4111 180.37C84.5624 179.34 83.35 178.774 82.0973 178.652C80.8445 178.531 79.5917 178.875 78.5005 179.744C77.47 180.592 76.9042 181.865 76.783 183.057C76.6617 184.31 77.0053 185.624 77.9347 186.654C78.7834 187.685 79.9958 188.311 81.2486 188.432C82.4408 188.493 83.7542 188.149 84.7847 187.281C85.8152 186.432 86.4416 185.22 86.5629 183.967C86.6639 182.714 86.2598 181.38 85.4111 180.37ZM82.0366 179.622C83.0065 179.744 83.9764 180.188 84.6635 180.996C85.3505 181.845 85.6334 182.876 85.5121 183.846C85.4515 184.876 85.007 185.846 84.1381 186.533C83.3298 187.22 82.2993 187.503 81.289 187.382C80.3191 187.321 79.3492 186.816 78.6622 186.008C77.9752 185.159 77.6923 184.128 77.7529 183.159C77.8741 182.189 78.3187 181.219 79.1875 180.532C79.9756 179.845 81.0061 179.562 82.0366 179.622Z" fill="black"/>
<path fill-rule="evenodd" clip-rule="evenodd" d="M28.6918 21.2045C29.4395 21.0833 28.0654 22.8614 27.5401 24.8012C27.0349 26.6804 27.6613 28.6809 26.7924 28.0545C25.9438 27.4281 25.9438 25.5893 26.4489 23.7101C26.9743 21.7905 28.0048 21.3257 28.6918 21.2045ZM97.636 20.6993C96.8277 20.6993 97.7976 22.8816 98.323 24.8214C98.8887 26.7006 98.2624 28.7011 99.1312 28.0747C99.9799 27.4483 100.101 25.6701 99.596 23.7909C99.0706 21.8511 98.4442 20.76 97.636 20.6993Z" fill="#2174AE"/>
<path fill-rule="evenodd" clip-rule="evenodd" d="M26.3477 39.1073C27.0347 38.9861 25.7213 40.7642 25.1959 42.704C24.6907 44.5832 25.3171 46.5837 24.3877 45.9573C23.539 45.3309 23.539 43.5527 24.0441 41.6129C24.5897 39.7337 25.6607 39.2286 26.3477 39.1073ZM99.7574 38.7638C99.0097 38.7032 99.9796 40.8855 100.505 42.8253C101.01 44.7045 100.384 46.7049 101.253 46.0785C102.101 45.4521 102.223 43.674 101.717 41.7948C101.172 39.9156 100.545 38.7638 99.7574 38.7638Z" fill="#2174AE"/>
<path fill-rule="evenodd" clip-rule="evenodd" d="M24.8123 56.2623C25.4993 56.1411 24.1859 57.9799 23.6605 59.8591C23.0947 61.7989 23.7211 63.7387 22.8523 63.1123C22.0036 62.4859 22.0036 60.7077 22.5087 58.7679C23.0341 56.8887 24.1253 56.424 24.8123 56.2623ZM101.415 55.7976C100.606 55.737 101.576 57.9799 102.102 59.8591C102.607 61.7989 101.98 63.7387 102.91 63.1123C103.759 62.4859 103.88 60.7684 103.375 58.8285C102.849 56.9494 102.203 55.7976 101.415 55.7976Z" fill="#2174AE"/>
<path fill-rule="evenodd" clip-rule="evenodd" d="M22.5293 73.8622C23.2163 73.7005 21.9029 75.5191 21.3775 77.3983C20.8118 79.3381 21.4382 81.2779 20.5693 80.6515C19.7206 80.0251 19.7206 78.247 20.2258 76.3678C20.7511 74.428 21.8423 73.9834 22.5293 73.8622ZM103.173 73.357C102.425 73.2964 103.395 75.5393 103.921 77.4185C104.426 79.3583 103.799 81.2981 104.668 80.6717C105.517 80.0453 105.638 78.3278 105.133 76.388C104.608 74.4886 103.981 73.3975 103.173 73.357Z" fill="#2174AE"/>
<path fill-rule="evenodd" clip-rule="evenodd" d="M20.4683 91.6438C21.1553 91.5226 19.8419 93.3613 19.3165 95.2405C18.8114 97.1803 19.4377 99.1202 18.5083 98.4938C17.6596 97.8674 17.6596 96.0892 18.1647 94.1494C18.7507 92.2702 19.7813 91.8055 20.4683 91.6438ZM104.89 91.1791C104.143 91.1184 105.113 93.3613 105.638 95.2405C106.143 97.1803 105.517 99.1202 106.386 98.4938C107.234 97.8674 107.356 96.1498 106.85 94.21C106.325 92.3308 105.699 91.2397 104.89 91.1791Z" fill="#2174AE"/>
<path fill-rule="evenodd" clip-rule="evenodd" d="M60.1334 124.681C58.8806 124.621 27.9447 124.56 26.7525 124.52C19.943 124.115 13.3153 123.61 9.25381 121.266C4.28304 118.458 -0.182565 112.739 5.71769 101.262L5.77831 81.9448L10.5268 81.8842L9.83979 101.545C6.52595 110.173 6.86946 114.76 11.2744 117.265C15.1541 119.448 20.1854 120.014 26.4898 120.296C27.682 120.357 58.5573 120.418 59.8707 120.458L60.1334 124.681Z" fill="#212121"/>
<path fill-rule="evenodd" clip-rule="evenodd" d="M2.96973 109.587C3.192 107.304 4.00025 104.738 5.47532 101.707C6.22295 100.454 9.35494 101.02 9.75906 101.646C7.47574 107.708 6.95038 111.709 8.44565 114.457C8.6073 115.548 8.72854 116.235 8.284 116.457C7.31409 116.962 3.65674 118.336 3.03035 110.739C3.03035 110.335 3.03035 109.931 2.96973 109.587Z" fill="#3A3A3A"/>
<path fill-rule="evenodd" clip-rule="evenodd" d="M3.87889 78.7118H12.3454C14.467 78.7118 16.1846 79.5605 16.1846 80.591V88.2492C16.1846 89.2797 14.467 90.1284 12.3454 90.1284H3.87889C1.75722 90.1284 -0.000732422 89.2797 -0.000732422 88.2492V80.591C-0.000732422 79.5807 1.77743 78.7118 3.87889 78.7118Z" fill="#002F4C"/>
<path fill-rule="evenodd" clip-rule="evenodd" d="M3.87889 78.7118H12.3454C14.467 78.7118 16.1846 79.5605 16.1846 80.591V84.5918C16.1846 85.683 14.467 86.5317 12.3454 86.5317H3.87889C1.75722 86.5317 -0.000732422 85.683 -0.000732422 84.5918V80.591C-0.000732422 79.5807 1.77743 78.7118 3.87889 78.7118Z" fill="#004D84"/>
<path fill-rule="evenodd" clip-rule="evenodd" d="M3.87889 78.7118H12.3454C14.467 78.7118 16.1846 79.5605 16.1846 80.591V83.6826C15.7804 81.7427 15.154 82.1469 13.0324 81.965C10.9107 81.864 8.28388 82.1469 4.56591 82.0863C0.847935 82.0458 0.403395 82.0863 -0.000732422 84.1473V80.6112C-0.000732422 79.5807 1.77743 78.7118 3.87889 78.7118Z" fill="#005C97"/>
<path fill-rule="evenodd" clip-rule="evenodd" d="M3.87889 78.7118H12.3454C14.467 78.7118 16.1846 79.5605 16.1846 80.591V81.4397C15.6188 80.2879 14.467 80.4697 12.6484 80.2879C11.0521 80.1666 8.93048 80.2273 6.4653 80.2273C4.97003 80.1667 3.83848 80.2273 3.03022 80.3889C1.19144 80.6718 0.625665 80.7324 -0.000732422 81.5407V80.5708C-0.000732422 79.5807 1.77743 78.7118 3.87889 78.7118Z" fill="#0C6ED6"/>
<path fill-rule="evenodd" clip-rule="evenodd" d="M6.56614 101.808C7.25316 100.898 8.10182 101.181 8.44533 101.747C6.66717 105.748 5.87912 109.001 6.10139 110.941C6.38428 112.376 5.01025 112.82 4.38385 111.628C4.16158 111.224 4.16158 110.537 4.2222 109.506C4.28282 107.081 5.43458 103.929 6.56614 101.808Z" fill="#5A5A5A"/>
<path fill-rule="evenodd" clip-rule="evenodd" d="M66.1355 124.681C67.3883 124.621 98.3242 124.56 99.5164 124.52C106.326 124.115 112.954 123.61 117.015 121.266C121.986 118.458 126.451 112.739 120.551 101.262L120.491 81.9448L115.742 81.8842L116.49 101.545C119.743 110.173 119.399 114.76 114.994 117.265C111.115 119.448 106.083 120.014 99.7791 120.296C98.5869 120.357 67.7116 120.418 66.3982 120.458L66.1355 124.681Z" fill="#212121"/>
<path fill-rule="evenodd" clip-rule="evenodd" d="M123.299 109.587C123.076 107.304 122.268 104.738 120.793 101.707C120.045 100.454 116.913 101.02 116.57 101.646C118.793 107.708 119.318 111.709 117.823 114.457C117.661 115.548 117.54 116.235 117.984 116.457C118.954 116.962 122.672 118.336 123.238 110.739C123.238 110.335 123.238 109.931 123.299 109.587Z" fill="#3A3A3A"/>
<path fill-rule="evenodd" clip-rule="evenodd" d="M122.39 78.7118H113.924C111.802 78.7118 110.085 79.5605 110.085 80.591V88.2492C110.085 89.2797 111.802 90.1284 113.924 90.1284H122.39C124.512 90.1284 126.27 89.2797 126.27 88.2492V80.591C126.27 79.5807 124.512 78.7118 122.39 78.7118Z" fill="#002F4C"/>
<path fill-rule="evenodd" clip-rule="evenodd" d="M122.39 78.7118H113.924C111.802 78.7118 110.085 79.5605 110.085 80.591V84.5918C110.085 85.683 111.802 86.5317 113.924 86.5317H122.39C124.512 86.5317 126.27 85.683 126.27 84.5918V80.591C126.27 79.5807 124.512 78.7118 122.39 78.7118Z" fill="#004D84"/>
<path fill-rule="evenodd" clip-rule="evenodd" d="M122.39 78.7118H113.924C111.802 78.7118 110.085 79.5605 110.085 80.591V83.6826C110.489 81.7427 111.115 82.1469 113.237 81.965C115.359 81.8438 117.985 82.1267 121.703 82.0863C125.421 82.0256 125.927 82.0863 126.27 84.1473V80.6112C126.27 79.5807 124.512 78.7118 122.39 78.7118Z" fill="#005C97"/>
<path fill-rule="evenodd" clip-rule="evenodd" d="M122.39 78.7118H113.924C111.802 78.7118 110.085 79.5605 110.085 80.591V81.4397C110.65 80.2879 111.802 80.4697 113.621 80.2879C115.217 80.1666 117.339 80.2273 119.804 80.2273C121.299 80.1667 122.431 80.2273 123.239 80.3889C125.078 80.6718 125.644 80.7324 126.27 81.5407V80.5708C126.27 79.5807 124.512 78.7118 122.39 78.7118Z" fill="#0C6ED6"/>
<path fill-rule="evenodd" clip-rule="evenodd" d="M119.702 101.808C119.015 100.898 118.166 101.181 117.823 101.747C119.601 105.748 120.389 109.001 120.166 110.941C119.944 112.376 121.258 112.82 121.884 111.628C122.106 111.224 122.106 110.537 122.106 109.506C121.985 107.081 120.853 103.929 119.702 101.808Z" fill="#5A5A5A"/>
<path fill-rule="evenodd" clip-rule="evenodd" d="M91.8168 120.963V123.247C91.8168 124.095 91.3116 124.843 90.5034 125.308H34.2489C33.4002 124.843 32.8142 124.115 32.8142 123.247V120.963H91.8168ZM75.3486 126.56C70.8426 129.066 54.6573 128.844 48.8176 126.56H75.3486Z" fill="#212121"/>
<path fill-rule="evenodd" clip-rule="evenodd" d="M111.922 113.426C111.922 117.609 108.891 120.963 105.234 120.963H20.2259C16.5079 120.963 13.5376 117.589 13.5376 113.426C13.5376 110.739 13.7599 106.96 16.5686 105.202C24.7925 100.11 44.4129 101.323 62.8209 101.323C81.1683 101.383 100.89 100.232 108.891 105.384C111.538 107.082 111.922 110.84 111.922 113.426Z" fill="#0C74B8"/>
<path fill-rule="evenodd" clip-rule="evenodd" d="M18.6292 104.152C27.7826 100.272 45.7865 101.303 62.8205 101.303C79.0462 101.363 96.3226 100.454 105.638 103.808C104.668 104.03 103.072 104.313 100.95 104.556C93.4533 105.303 76.3183 104.434 62.5982 104.434C48.3123 104.434 33.6627 104.212 23.7212 104.596C21.5995 104.738 19.9022 104.333 18.6292 104.152Z" fill="#3C90C6"/>
<path fill-rule="evenodd" clip-rule="evenodd" d="M110.549 114.497C110.549 117.75 107.578 120.377 104.022 120.377H21.4385C17.8418 120.377 14.9119 117.75 14.9119 114.497C14.9119 106.374 39.0383 106.718 63.104 106.778C86.8869 106.839 110.549 106.455 110.549 114.497Z" fill="#005C97"/>
<path fill-rule="evenodd" clip-rule="evenodd" d="M108.043 115.649C108.043 118.619 105.234 121.024 101.859 121.024H23.6001C20.1651 121.024 17.417 118.619 17.417 115.649C17.417 108.274 40.5129 109.244 63.3258 109.304C85.8559 109.304 108.043 108.395 108.043 115.649Z" fill="#004771"/>
<path fill-rule="evenodd" clip-rule="evenodd" d="M111.922 113.426C111.922 117.609 108.891 120.963 105.234 120.963H20.2259C16.6292 120.963 13.6588 117.771 13.5376 113.709C15.4168 117.084 18.2861 117.488 28.5711 117.831C41.3213 118.175 93.6154 118.336 100.829 118.175C107.517 118.013 110.205 116.579 111.518 111.204C111.761 111.87 111.922 112.618 111.922 113.426Z" fill="#002F4C"/>
</g>
<defs>
<clipPath id="clip0_9_966">
<rect width="126.27" height="189.172" fill="white" transform="translate(0 0.917236)"/>
</clipPath>
</defs>
</svg>
