<svg width="108" height="188" viewBox="0 0 108 188" fill="none" xmlns="http://www.w3.org/2000/svg">
<g clip-path="url(#clip0_9_1944)">
<path fill-rule="evenodd" clip-rule="evenodd" d="M14.4818 104.019C11.1413 99.7516 14.4818 94.1905 17.8609 81.794C21.2401 69.3974 27.0328 63.8171 19.7726 40.7232C12.5702 17.6101 10.7552 -6.31409 37.9619 1.8151C47.9061 4.76942 63.257 3.78464 69.378 1.8151C96.3144 -6.87406 95.8123 17.6101 88.61 40.7039C81.4077 63.8171 87.1811 69.3781 90.5216 81.7747C93.9007 94.1712 97.2991 99.7516 93.9007 104C55.765 105.66 52.6562 105.66 14.4818 104.019Z" fill="#22466D"/>
<path fill-rule="evenodd" clip-rule="evenodd" d="M19.2323 102.165C16.278 97.9558 19.2323 92.4913 22.2445 80.3072C25.1988 68.1231 30.2772 62.6586 23.9437 39.9895C17.5331 17.3398 15.9497 -6.15956 39.8739 1.75723C48.6596 4.71154 62.1567 3.72677 67.5633 1.75723C91.275 -6.75815 90.8309 17.3205 84.4975 39.9895C78.1061 62.6586 83.1845 68.1231 86.1967 80.3072C89.151 92.4913 92.1053 97.9558 89.151 102.165C55.553 103.749 52.8303 103.749 19.2323 102.165Z" fill="#254C82"/>
<path fill-rule="evenodd" clip-rule="evenodd" d="M15.293 13.9991C16.0653 3.34044 22.0126 -2.93506 37.962 1.81501C47.9063 4.76932 63.2571 3.78455 69.3781 1.81501C84.8835 -3.20539 91.2748 2.79978 92.5878 13.1688C92.2017 23.3255 83.9566 26.3377 75.4412 26.9943C70.6332 27.3225 66.0956 26.8784 61.2296 26.1253C53.9114 25.0247 49.3158 26.0095 43.8513 26.5115C38.8889 26.9556 33.7912 27.2839 27.033 26.0288C19.6182 24.6578 16.1233 19.6374 15.293 13.9991Z" fill="#335376"/>
<path fill-rule="evenodd" clip-rule="evenodd" d="M20.3135 23.1324C18.3632 7.45334 22.0127 -4.19013 39.8737 1.75711C48.6594 4.71142 62.1566 3.72665 67.5632 1.75711C85.2698 -4.63425 89.5371 7.22162 87.8958 23.0745C84.6132 25.5847 80.0756 26.6274 75.4414 27.0136C70.6334 27.3419 66.0957 26.8977 61.2298 26.1447C53.9116 25.0441 49.316 26.0288 43.8514 26.5309C38.889 26.975 33.7913 27.3032 27.0331 26.0481C24.2526 25.5268 22.0706 24.4841 20.3135 23.1324Z" fill="#37598B"/>
<path fill-rule="evenodd" clip-rule="evenodd" d="M20.603 2.3171C24.2139 -0.13517 29.717 -0.63721 37.9813 1.83437C47.9256 4.78869 63.2764 3.80391 69.3975 1.83437C76.0592 -0.347571 81.0409 -0.463427 84.6904 0.965457C89.5563 3.53359 87.0461 5.77346 81.0796 7.08649C69.7643 9.65461 45.9561 9.26843 33.1154 7.85886C19.29 6.23688 18.3052 4.71145 20.603 2.3171Z" fill="#44607F"/>
<path fill-rule="evenodd" clip-rule="evenodd" d="M21.8 5.812C24.4261 0.559889 29.9292 -1.5062 39.8735 1.75706C48.6592 4.71138 62.1564 3.7266 67.5629 1.75706C77.2948 -1.73791 82.9717 0.28956 85.8102 5.42582C84.7675 6.08233 83.1262 6.62299 81.0601 7.0671C69.7449 9.63523 45.9366 9.24905 33.096 7.83947C27.3225 7.16365 23.8082 6.52644 21.8 5.812Z" fill="#466592"/>
<path fill-rule="evenodd" clip-rule="evenodd" d="M20.603 2.3171C24.2138 -0.13517 29.7748 -0.63721 37.9813 1.83437C47.9255 4.78869 63.2764 3.80391 69.3974 1.83437C76.0591 -0.347571 81.0409 -0.463427 84.6903 0.965457C89.5562 3.53359 87.046 5.77346 81.0795 7.08649C69.7643 9.65461 45.956 9.26843 33.1153 7.85886C19.232 6.23688 18.3052 4.71145 20.603 2.3171Z" fill="#526C89"/>
<path fill-rule="evenodd" clip-rule="evenodd" d="M21.8 5.812C24.4261 0.559889 29.9292 -1.5062 39.8735 1.75706C48.6592 4.71138 62.1564 3.7266 67.5629 1.75706C77.2948 -1.73791 82.9717 0.28956 85.8102 5.42582C84.7675 6.08233 83.1262 6.62299 81.0601 7.0671C69.7449 9.63523 45.9366 9.24905 33.096 7.83947C27.3225 7.16365 23.8082 6.52644 21.8 5.812Z" fill="#537199"/>
<path fill-rule="evenodd" clip-rule="evenodd" d="M15.7369 88.9962C16.3934 86.8722 17.1658 84.5165 17.8609 81.7939C18.8457 78.1251 20.1008 75.0743 21.0855 71.9655C23.3254 68.5864 26.2797 65.5741 30.045 63.2184C48.8329 51.6908 77.2368 56.7112 86.428 71.4055C87.0266 72.3903 87.5672 73.3171 88.1272 74.3019C88.9382 76.6576 89.8264 79.052 90.5216 81.7939C91.6608 85.8875 92.7614 89.228 93.6303 92.0085V92.3947C93.36 92.8388 93.0318 93.2057 92.7035 93.5918C88.3396 98.6702 63.0445 97.9557 47.6357 97.9557C35.0075 97.9557 21.2979 96.16 15.7948 92.2209C15.7369 91.1975 15.679 90.0969 15.7369 88.9962Z" fill="#335376"/>
<path fill-rule="evenodd" clip-rule="evenodd" d="M18.6333 93.7656C19.4057 90.4251 20.8152 86.1771 22.2441 80.3264C23.5572 74.9778 25.2564 70.8842 26.2411 66.0762C27.3804 65.0335 28.6934 64.1067 30.0644 63.2377C46.5545 53.0811 70.5365 55.7458 82.2959 66.5203C83.2806 71.1545 84.9799 75.1515 86.2349 80.3457C87.8762 87.0653 89.5175 91.7575 90.1161 95.2524C82.1414 98.535 61.1716 97.975 47.6744 97.975C36.8226 97.9557 25.1791 96.662 18.6333 93.7656Z" fill="#37598B"/>
<path fill-rule="evenodd" clip-rule="evenodd" d="M45.4542 3.07025C51.3628 3.93916 58.0245 3.66883 62.8712 2.91577C68.606 14.6558 60.6892 45.7437 62.0988 63.7206C62.9677 74.9778 64.9372 85.9455 67.0226 91.1976C69.1467 96.5463 70.5755 99.6744 68.9922 103.053C57.7928 103.498 50.5905 103.498 39.4297 103.053C37.8464 99.6744 39.2173 96.5463 41.3414 91.1976C43.4654 85.9455 45.4349 74.9778 46.3038 63.7206C47.752 45.7437 39.8159 14.8682 45.4542 3.07025Z" fill="#161616"/>
<path fill-rule="evenodd" clip-rule="evenodd" d="M47.1919 3.30194C51.942 3.78467 57.0203 3.68812 61.1139 3.14746C65.1495 15.4474 59.2602 46.0333 60.3029 63.8364C61.0173 75.1516 62.4848 86.1772 64.1261 91.4872C65.7674 96.7393 66.8101 99.9061 65.7095 103.169C57.3486 103.44 51.0151 103.44 42.6542 103.169C41.5536 99.8867 42.6542 96.72 44.2376 91.4872C45.8789 86.1965 47.4043 75.1516 48.0608 63.8364C49.1614 45.956 43.2721 15.5826 47.1919 3.30194Z" fill="#2A2A2A"/>
<path fill-rule="evenodd" clip-rule="evenodd" d="M61.9444 57.4256C61.8865 59.6654 61.9444 61.7315 62.0989 63.7011C62.9678 74.9583 64.9374 85.926 67.0228 91.1781C68.1234 93.8621 68.9923 95.9861 69.3785 97.8398C61.8865 98.0522 53.9697 97.9556 47.6363 97.9556C44.7978 97.9556 41.9014 97.8398 39.063 97.6853C39.5071 95.8316 40.3181 93.7462 41.3608 91.1781C43.4848 85.926 45.4543 74.9583 46.3233 63.7011C46.4777 61.7315 46.4777 59.5496 46.4777 57.3097C48.8335 56.9235 51.2857 56.769 53.7959 56.769C56.5958 56.769 59.3184 57.0008 61.9444 57.4256Z" fill="#292929"/>
<path fill-rule="evenodd" clip-rule="evenodd" d="M60.2066 57.1552C60.1486 59.511 60.2066 61.7508 60.3224 63.8169C61.0369 75.1321 62.5044 86.1577 64.1457 91.4677C64.9566 94.0359 65.6132 96.102 65.9414 97.917C59.4921 98.0329 53.0042 97.975 47.6363 97.975C45.937 97.975 44.1992 97.917 42.5 97.8591C42.8283 96.0633 43.4848 93.9779 44.2571 91.4677C45.8984 86.177 47.4239 75.1321 48.0804 63.8169C48.2348 61.7315 48.2348 59.453 48.1962 57.0394C50.0499 56.8849 51.9036 56.769 53.8152 56.769C55.9972 56.769 58.1212 56.8849 60.2066 57.1552Z" fill="#3B3B3B"/>
<path fill-rule="evenodd" clip-rule="evenodd" d="M45.454 3.07025C51.3626 3.93916 58.0243 3.66883 62.8709 2.91577C65.3811 7.9941 65.2653 16.8377 64.5122 26.6275C63.4116 26.473 62.3303 26.2993 61.2296 26.1448C53.9694 25.0442 49.3158 26.0289 43.9093 26.531C43.0983 16.8377 42.9824 8.14857 45.454 3.07025Z" fill="#292929"/>
<path fill-rule="evenodd" clip-rule="evenodd" d="M47.1917 3.30194C51.9418 3.78467 57.0201 3.68812 61.1137 3.14746C62.8708 8.39957 62.755 16.857 62.1564 26.3185L61.2295 26.1641C54.9926 25.2372 50.7446 25.8358 46.2069 26.3185C45.6084 16.8956 45.5504 8.47681 47.1917 3.30194Z" fill="#3B3B3B"/>
<path fill-rule="evenodd" clip-rule="evenodd" d="M45.4542 3.07025C51.3628 3.93916 58.0245 3.66883 62.8711 2.91577C63.6821 4.49913 64.1842 6.5266 64.5124 8.8244C57.7349 9.0368 50.4167 8.94025 43.8708 8.66992C44.1991 6.46867 44.6818 4.61498 45.4542 3.07025Z" fill="#3A3A3A"/>
<path fill-rule="evenodd" clip-rule="evenodd" d="M47.1921 3.30194C51.9422 3.78467 57.0205 3.68812 61.1141 3.14746C61.6548 4.78875 61.983 6.70036 62.2533 8.8823C56.9047 8.99816 51.3243 8.94023 46.1301 8.72783C46.3811 6.68105 46.7094 4.82736 47.1921 3.30194Z" fill="#4A4A4A"/>
<path fill-rule="evenodd" clip-rule="evenodd" d="M15.4669 127.788L53.6605 124.448L54.1433 125.819L16.2779 129.102C14.5207 133.137 9.40377 131.67 8.51554 129.97C7.82041 128.561 10.4851 125.22 15.4669 127.788Z" fill="#262626"/>
<path fill-rule="evenodd" clip-rule="evenodd" d="M10.8133 127.731C11.4119 127.576 11.9139 127.789 11.9139 128.175C11.9139 128.619 11.4312 129.044 10.8133 129.217C10.2147 129.372 9.71265 129.16 9.71265 128.773C9.73196 128.329 10.2147 127.904 10.8133 127.731Z" fill="#545454"/>
<path d="M57.2325 129.97H50.3584V160.672H57.2325V129.97Z" fill="#414141"/>
<path d="M56.4792 130.415H53.5249V160.672H56.4792V130.415Z" fill="#2A2A2A"/>
<path d="M55.7265 130.472H54.7417V160.672H55.7265V130.472Z" fill="#AAAAAA"/>
<path d="M51.4592 130.472H51.073V160.672H51.4592V130.472Z" fill="#AAAAAA"/>
<path fill-rule="evenodd" clip-rule="evenodd" d="M58.7769 126.707V132.384H48.9485V126.765C49.2188 125.896 51.1304 125.394 53.8144 125.394C56.4212 125.394 58.2942 125.664 58.7769 126.707Z" fill="#414141"/>
<path fill-rule="evenodd" clip-rule="evenodd" d="M56.9816 125.606V132.384H50.7061V125.664C51.517 125.51 52.6177 125.394 53.8148 125.394C55.0699 125.394 56.1513 125.433 56.9816 125.606Z" fill="#2A2A2A"/>
<path fill-rule="evenodd" clip-rule="evenodd" d="M83.8022 119.756L70.2472 126.379L59.6464 127.731L54.2977 127.846L48.5629 127.788L36.4367 126.379L22.8816 119.756H83.8022Z" fill="#333333"/>
<path fill-rule="evenodd" clip-rule="evenodd" d="M81.5045 119.756L71.7726 123.965H38.1746L25.1794 119.756H81.5045ZM68.548 125.105C64.0103 126.36 45.821 126.205 40.4144 125.105H68.548Z" fill="#1B1B1B"/>
<path fill-rule="evenodd" clip-rule="evenodd" d="M100.736 112.612C100.736 125.182 6.71948 125.182 6.71948 112.612C6.71948 110.043 6.93188 106.375 9.61587 104.753C17.5327 99.8288 36.224 100.987 53.8147 101.045C71.3475 101.045 90.2513 99.9446 97.8398 104.926C100.408 106.548 100.736 110.082 100.736 112.612Z" fill="#254C82"/>
<path fill-rule="evenodd" clip-rule="evenodd" d="M9.61589 104.733C17.5327 99.8095 36.224 100.968 53.8147 101.026C70.0345 101.026 87.3549 100.099 95.9282 103.864C101.18 108.402 96.9129 110.912 80.1332 110.7C63.4114 110.487 40.0859 110.159 32.3429 110.159C30.914 110.14 0.154363 110.584 9.61589 104.733Z" fill="#325D99"/>
<path fill-rule="evenodd" clip-rule="evenodd" d="M11.5855 103.691C20.3325 99.9833 37.5371 100.968 53.8148 101.007C69.3201 101.007 85.8874 100.196 94.789 103.362C96.3723 104.347 96.3144 107.07 87.2584 107.128C80.056 107.186 67.756 106.915 54.6451 106.857C40.9934 106.857 33.7718 107.244 24.2716 107.186C12.242 107.147 9.77039 105.178 11.5855 103.691Z" fill="#476EA5"/>
<path fill-rule="evenodd" clip-rule="evenodd" d="M100.736 112.612C100.736 125.278 7.16359 124.854 6.71948 112.882C8.57317 116.049 10.0986 115.122 21.0856 115.45C32.1111 115.778 83.5316 115.991 90.1354 115.836C96.7971 115.624 99.4231 115.45 100.62 110.314C100.736 111.028 100.736 111.839 100.736 112.612Z" fill="#22466D"/>
<path fill-rule="evenodd" clip-rule="evenodd" d="M98.5552 170.887H98.4973L58.2375 154.937L54.2405 154.822L95.1568 170.829L98.5552 170.887Z" fill="#6A6A6A"/>
<path fill-rule="evenodd" clip-rule="evenodd" d="M94.7706 173.571L54.2405 161.599V154.822L95.1568 170.829L94.7706 173.571Z" fill="#222222"/>
<path fill-rule="evenodd" clip-rule="evenodd" d="M98.5549 170.887V170.945L97.9563 176.95L94.7703 177.278L94.3455 173.358L95.002 170.79L98.5549 170.887Z" fill="#161616"/>
<path fill-rule="evenodd" clip-rule="evenodd" d="M9.50024 170.887L49.76 154.937L53.8149 154.822L12.8407 170.829L9.50024 170.887Z" fill="#6A6A6A"/>
<path fill-rule="evenodd" clip-rule="evenodd" d="M13.2268 173.571L53.8148 161.599V154.822L12.8406 170.829L13.2268 173.571Z" fill="#161616"/>
<path fill-rule="evenodd" clip-rule="evenodd" d="M9.50024 170.887V170.945L10.0602 176.95L13.2269 177.278L13.6517 173.358L12.9952 170.79L9.50024 170.887Z" fill="#161616"/>
<path fill-rule="evenodd" clip-rule="evenodd" d="M49.8186 154.725H58.1795V164.495C55.1673 164.939 52.3867 164.939 49.8186 164.495V154.725Z" fill="#2A2A2A"/>
<path d="M56.9237 154.783H51.073V164.515H56.9237V154.783Z" fill="#414141"/>
<path d="M53.6415 154.783H52.0581V164.515H53.6415V154.783Z" fill="#343434"/>
<path d="M58.1795 154.512H49.8186V154.841H58.1795V154.512Z" fill="#727272"/>
<path fill-rule="evenodd" clip-rule="evenodd" d="M33.5408 170.829L51.2473 154.937L53.8155 154.822L35.9544 170.829H33.5408Z" fill="#6A6A6A"/>
<path fill-rule="evenodd" clip-rule="evenodd" d="M37.1515 173.03L53.8154 161.599V154.822L35.9543 170.829L37.1515 173.03Z" fill="#1D1D1D"/>
<path fill-rule="evenodd" clip-rule="evenodd" d="M33.5401 170.829L33.4822 170.945L33.9263 176.95L36.9772 177.51L37.1509 172.972L36.0503 170.79L33.5401 170.829Z" fill="#161616"/>
<path fill-rule="evenodd" clip-rule="evenodd" d="M74.4573 170.829L56.7507 154.937L54.2405 154.822L72.0629 170.829H74.4573Z" fill="#727272"/>
<path fill-rule="evenodd" clip-rule="evenodd" d="M70.8464 173.03L54.2405 161.599V154.822L72.0629 170.829L70.8464 173.03Z" fill="#2D2D2D"/>
<path fill-rule="evenodd" clip-rule="evenodd" d="M74.4568 170.829L74.5147 170.945L74.0706 176.95L71.0197 177.51L70.8459 172.972L71.9466 170.79L74.4568 170.829Z" fill="#262626"/>
<path fill-rule="evenodd" clip-rule="evenodd" d="M9.55824 175.154C5.61915 176.409 5.79294 182.859 7.76248 185.369C8.8631 186.74 10.6009 187.126 12.1264 187.068C13.3815 186.952 14.1538 186.798 15.2352 186.199C16.8185 185.33 17.4171 182.53 17.3592 180.792C17.3012 178.553 16.4323 176.699 15.0614 175.714C13.6518 174.71 11.5857 174.498 9.55824 175.154Z" fill="#2A2A2A"/>
<path fill-rule="evenodd" clip-rule="evenodd" d="M9.55828 175.154C8.90176 175.367 8.3611 175.695 7.91699 176.197L8.72798 176.139C11.412 176.351 12.8795 177.182 13.536 180.078C13.7484 180.85 14.7332 180.619 15.5634 180.619C16.4903 180.561 17.3592 180.831 17.3206 179.808L17.2627 179.653C16.9923 177.896 16.22 176.544 15.0807 175.714C13.6518 174.71 11.5857 174.498 9.55828 175.154Z" fill="#404040"/>
<path fill-rule="evenodd" clip-rule="evenodd" d="M10.9873 176.679C11.7597 177.008 12.3583 177.548 12.841 178.263H16.9345C16.6642 177.548 16.336 176.95 15.8919 176.467H10.9873V176.679Z" fill="#4A4A4A"/>
<path fill-rule="evenodd" clip-rule="evenodd" d="M13.111 177.22C11.74 174.71 9.40359 174.382 7.76231 176.448C6.17895 178.533 5.96655 182.298 7.27958 184.809C8.65053 187.319 11.0449 187.647 12.6282 185.581C14.2502 183.457 14.4819 179.75 13.111 177.22Z" fill="#2A2A2A"/>
<path fill-rule="evenodd" clip-rule="evenodd" d="M12.6668 177.124C11.4696 174.826 9.11389 174.768 7.70432 176.679C7.0478 177.548 6.71955 178.591 6.60369 179.846C6.44922 181.372 6.81609 183.225 7.41468 184.538C8.61185 186.836 10.7552 187.164 12.1648 185.195C12.9371 184.21 13.5357 182.627 13.5936 181.101C13.6516 179.788 13.2268 178.205 12.6668 177.124Z" fill="#414141"/>
<path fill-rule="evenodd" clip-rule="evenodd" d="M7.4922 184.558C8.7473 186.856 10.9872 187.184 12.4547 185.214C13.0533 184.442 13.4394 183.457 13.5553 182.434C13.9415 180.136 13.4008 178.34 12.3581 177.143C11.2575 175.772 9.46175 175.444 7.99424 177.355C7.22188 178.34 6.73914 180.252 6.855 182.048C6.87431 182.858 7.16395 183.901 7.4922 184.558Z" fill="#1B1B1B"/>
<path d="M12.3387 178.205C11.856 177.278 11.1416 176.737 10.4271 176.622C9.71267 176.506 8.95961 176.834 8.34171 177.606C7.74313 178.417 7.41487 179.518 7.35694 180.619C7.29901 181.758 7.51142 182.916 8.01346 183.843C8.49619 184.77 9.21063 185.311 9.92507 185.427C10.6395 185.542 11.3926 185.214 12.0105 184.384C12.6091 183.611 12.9373 182.53 12.9952 181.43C13.0532 180.29 12.8987 179.132 12.3387 178.205ZM10.3885 177.51C10.9871 177.626 11.5277 178.05 11.9139 178.765C12.358 179.537 12.5125 180.464 12.4546 181.333C12.3967 182.26 12.1263 183.09 11.6436 183.727C11.1609 184.326 10.543 184.596 10.0023 184.5C9.40372 184.442 8.86306 184.017 8.47688 183.303C8.09069 182.53 7.93622 181.603 7.93622 180.734C7.99415 179.808 8.26448 178.939 8.74721 178.34C9.22994 177.722 9.82853 177.452 10.3885 177.51Z" fill="#545454"/>
<path fill-rule="evenodd" clip-rule="evenodd" d="M98.1687 175.154C102.05 176.409 101.934 182.859 99.9644 185.369C98.8638 186.74 97.126 187.126 95.6005 187.068C94.3454 186.952 93.5151 186.798 92.4918 186.199C90.9084 185.33 90.3098 182.53 90.3098 180.792C90.4257 178.553 91.2946 176.699 92.6655 175.714C94.0751 174.71 96.1412 174.498 98.1687 175.154Z" fill="#2A2A2A"/>
<path fill-rule="evenodd" clip-rule="evenodd" d="M98.1682 175.154C98.8247 175.367 99.3654 175.695 99.8095 176.197L98.9985 176.139C96.3145 176.351 94.847 177.182 94.1325 180.078C93.9781 180.85 92.9933 180.619 92.163 180.619C91.1782 180.561 90.3672 180.831 90.4059 179.808L90.4638 179.653C90.7341 177.896 91.5065 176.544 92.6457 175.714C94.0746 174.71 96.1407 174.498 98.1682 175.154Z" fill="#404040"/>
<path fill-rule="evenodd" clip-rule="evenodd" d="M96.739 176.679C95.9666 177.008 95.368 177.548 94.8853 178.263H90.7917C91.0041 177.548 91.3903 176.95 91.8344 176.467H96.739V176.679Z" fill="#4A4A4A"/>
<path fill-rule="evenodd" clip-rule="evenodd" d="M94.6152 177.22C95.9282 174.71 98.3226 174.382 99.9639 176.448C101.547 178.533 101.76 182.298 100.447 184.809C99.0756 187.319 96.6813 187.647 95.0979 185.581C93.4759 183.457 93.2442 179.75 94.6152 177.22Z" fill="#2A2A2A"/>
<path fill-rule="evenodd" clip-rule="evenodd" d="M95.0593 177.124C96.1986 174.826 98.5543 174.768 100.022 176.679C100.62 177.548 101.007 178.591 101.122 179.846C101.277 181.372 100.91 183.225 100.254 184.538C99.1143 186.836 96.9709 187.164 95.5614 185.195C94.789 184.21 94.1904 182.627 94.1325 181.101C94.0746 179.788 94.4994 178.205 95.0593 177.124Z" fill="#414141"/>
<path fill-rule="evenodd" clip-rule="evenodd" d="M100.234 184.558C98.9791 186.856 96.7392 187.184 95.2717 185.214C94.6731 184.442 94.2869 183.457 94.1325 182.434C93.8042 180.136 94.3449 178.34 95.3296 177.143C96.4689 175.772 98.2839 175.444 99.7514 177.355C100.466 178.34 101.007 180.252 100.891 182.048C100.833 182.858 100.562 183.901 100.234 184.558Z" fill="#1B1B1B"/>
<path d="M95.3292 178.205C95.8698 177.278 96.5263 176.737 97.2408 176.622C98.0132 176.506 98.7083 176.834 99.3262 177.606C99.9248 178.417 100.311 179.518 100.369 180.619C100.427 181.758 100.214 182.916 99.7124 183.843C99.2296 184.77 98.5152 185.311 97.8008 185.427C97.0863 185.542 96.3333 185.214 95.7154 184.384C95.1168 183.611 94.7885 182.53 94.7306 181.43C94.6147 180.29 94.8271 179.132 95.3292 178.205ZM97.2987 177.51C96.7581 177.626 96.1981 178.05 95.7733 178.765C95.3871 179.537 95.2326 180.464 95.2906 181.333C95.3485 182.26 95.6188 183.09 96.1015 183.727C96.5843 184.326 97.1442 184.596 97.7428 184.5C98.2835 184.442 98.8821 184.017 99.2683 183.303C99.6544 182.53 99.8089 181.603 99.751 180.734C99.6931 179.808 99.4227 178.939 98.9786 178.34C98.4959 177.722 97.8973 177.452 97.2987 177.51Z" fill="#545454"/>
<path fill-rule="evenodd" clip-rule="evenodd" d="M76.0973 176.95C73.8574 174.324 69.9183 173.938 67.2536 176.177C64.5696 178.359 64.2028 182.356 66.4426 185.021C68.6825 187.705 72.6216 188.033 75.2863 185.793C77.951 183.612 78.3371 179.634 76.0973 176.95Z" fill="#2A2A2A"/>
<path fill-rule="evenodd" clip-rule="evenodd" d="M75.8271 176.892C73.7997 174.382 69.7061 174.324 67.2538 176.409C66.1532 177.336 65.4967 178.437 65.3422 179.788C65.0719 181.372 65.6705 183.399 66.8097 184.712C68.8372 187.164 72.5445 187.493 74.9968 185.484C76.3098 184.384 77.3526 182.704 77.4491 181.121C77.507 179.75 76.8119 178.05 75.8271 176.892Z" fill="#414141"/>
<path fill-rule="evenodd" clip-rule="evenodd" d="M66.8099 184.712C68.8374 187.164 72.5447 187.493 74.997 185.485C75.9818 184.674 76.5804 183.631 76.8507 182.472C77.3914 180.078 76.5224 178.166 74.8232 176.853C73.0275 175.386 70.0152 175.058 67.563 177.124C66.3658 178.108 65.4776 180.175 65.7093 182.086C65.7672 182.955 66.2692 184.056 66.8099 184.712Z" fill="#1B1B1B"/>
<path d="M74.8428 177.992C74.0318 177.008 72.8733 176.467 71.6761 176.351C70.5369 176.235 69.2818 176.564 68.297 177.394C67.3122 178.205 66.7136 179.363 66.5978 180.561C66.4819 181.758 66.8681 183.013 67.6984 183.998C68.5094 184.982 69.6679 185.523 70.8651 185.639C72.0623 185.755 73.2595 185.426 74.2442 184.596C75.2869 183.785 75.8276 182.627 75.9434 181.429C76.04 180.232 75.7117 178.977 74.8428 177.992ZM71.6182 177.278C72.545 177.394 73.4719 177.819 74.1284 178.591C74.7849 179.402 75.0552 180.387 74.9973 181.314C74.8814 182.298 74.4566 183.167 73.6263 183.882C72.854 184.538 71.8692 184.809 70.9037 184.693C69.9769 184.635 69.0501 184.152 68.3935 183.38C67.737 182.569 67.4667 181.584 67.5826 180.657C67.6405 179.672 68.0653 178.803 68.8956 178.147C69.6486 177.452 70.6334 177.181 71.6182 177.278Z" fill="#545454"/>
<path fill-rule="evenodd" clip-rule="evenodd" d="M30.4892 176.95C32.6711 174.324 36.6681 173.938 39.3328 176.177C42.0168 178.359 42.345 182.356 40.1052 185.021C37.9232 187.705 33.9262 188.033 31.2615 185.793C28.6162 183.612 28.2493 179.634 30.4892 176.95Z" fill="#2A2A2A"/>
<path fill-rule="evenodd" clip-rule="evenodd" d="M30.7019 176.892C32.7872 174.382 36.8229 174.324 39.2752 176.409C40.4144 177.336 41.0323 178.437 41.2447 179.788C41.515 181.372 40.8585 183.399 39.7772 184.712C37.6918 187.164 34.0423 187.493 31.5901 185.484C30.277 184.384 29.1957 182.704 29.1378 181.121C29.0606 179.75 29.775 178.05 30.7019 176.892Z" fill="#414141"/>
<path fill-rule="evenodd" clip-rule="evenodd" d="M39.7768 184.712C37.6914 187.164 34.042 187.493 31.5897 185.485C30.6049 184.674 29.9484 183.631 29.736 182.472C29.1954 180.078 30.0643 178.166 31.7056 176.853C33.5593 175.386 36.5715 175.058 39.0238 177.124C40.2209 178.108 41.1092 180.175 40.8775 182.086C40.7423 182.955 40.3175 184.056 39.7768 184.712Z" fill="#1B1B1B"/>
<path d="M31.6866 177.992C32.4976 177.008 33.6561 176.467 34.8533 176.351C36.0505 176.235 37.3056 176.564 38.2903 177.394C39.2751 178.205 39.8158 179.363 39.9316 180.561C40.0475 181.758 39.7192 183.013 38.8889 183.998C38.0779 184.982 36.9194 185.523 35.7222 185.639C34.525 185.755 33.2699 185.426 32.2852 184.596C31.3004 183.785 30.7597 182.627 30.6439 181.429C30.528 180.232 30.8563 178.977 31.6866 177.992ZM34.9691 177.278C33.9844 177.394 33.1155 177.819 32.4589 178.591C31.7445 179.402 31.4742 180.387 31.59 181.314C31.7059 182.298 32.1307 183.167 32.9031 183.882C33.714 184.538 34.6988 184.809 35.6257 184.693C36.6104 184.635 37.4793 184.152 38.1938 183.38C38.8503 182.569 39.1206 181.584 39.0048 180.657C38.9469 179.672 38.4641 178.803 37.6917 178.147C36.8808 177.452 35.896 177.181 34.9691 177.278Z" fill="#545454"/>
<path fill-rule="evenodd" clip-rule="evenodd" d="M3.37919 76.7156H8.01341C8.72785 76.7156 9.26851 77.3142 9.26851 78.0286V116.377C9.26851 117.091 8.72785 117.69 8.01341 117.69H3.37919C2.66475 117.69 2.06616 117.091 2.06616 116.377V78.0286C2.08547 77.3142 2.68406 76.7156 3.37919 76.7156Z" fill="#161616"/>
<path fill-rule="evenodd" clip-rule="evenodd" d="M8.4771 97.1448V116.435C8.4771 117.149 8.03299 117.69 7.49233 117.69H3.93943C3.39877 117.69 2.89673 117.149 2.89673 116.435V97.1448H8.4771Z" fill="#2A2A2A"/>
<path fill-rule="evenodd" clip-rule="evenodd" d="M8.4771 98.5156V111.511C8.4771 111.993 8.03299 112.38 7.49233 112.38H3.93943C3.39877 112.38 2.89673 111.993 2.89673 111.511V98.5156H8.4771Z" fill="#404040"/>
<path fill-rule="evenodd" clip-rule="evenodd" d="M3.61132 69.2236H7.49247C9.51994 69.2236 11.1612 70.1505 11.1612 72.5062V91.8927C11.1612 94.2484 9.51994 95.2332 7.49247 95.2332H3.61132C1.64177 95.2332 0.000488281 94.2484 0.000488281 91.8927V72.5062C0.000488281 70.1505 1.64177 69.2236 3.61132 69.2236Z" fill="#254C82"/>
<path fill-rule="evenodd" clip-rule="evenodd" d="M3.61099 69.2236H7.49214C8.59277 69.2236 9.61616 69.494 10.2727 70.2084C10.3306 70.4208 10.3885 70.7491 10.3885 71.0194V88.8804C10.3885 91.0044 8.95964 91.8927 7.22181 91.8927H3.88131C2.12417 91.8927 0.7146 91.0238 0.7146 88.8804V71.0194C0.7146 70.7491 0.772527 70.4208 0.830455 70.2084C1.46766 69.494 2.51036 69.2236 3.61099 69.2236Z" fill="#325D99"/>
<path fill-rule="evenodd" clip-rule="evenodd" d="M4.03541 69.2236H7.04765C8.57308 69.2236 9.82818 69.436 9.82818 70.0346V74.9971C9.82818 75.5957 8.57308 75.8081 7.04765 75.8081H4.03541C2.50998 75.8081 1.25488 75.5957 1.25488 74.9971V70.0346C1.25488 69.4553 2.50998 69.2236 4.03541 69.2236Z" fill="#476EA5"/>
<path fill-rule="evenodd" clip-rule="evenodd" d="M11.1419 90.8692V91.9119C11.1419 94.2677 9.50063 95.2524 7.47316 95.2524H3.61132C1.64177 95.2331 0.000488281 94.2483 0.000488281 91.8926V90.792C0.541147 92.6457 1.6997 93.5725 4.09405 93.5725C7.10629 93.5918 10.3309 94.2483 11.1419 90.8692Z" fill="#22466D"/>
<path fill-rule="evenodd" clip-rule="evenodd" d="M104.058 76.7156H99.4238C98.7094 76.7156 98.1687 77.3142 98.1687 78.0286V116.377C98.1687 117.091 98.7094 117.69 99.4238 117.69H104.058C104.772 117.69 105.371 117.091 105.371 116.377V78.0286C105.371 77.3142 104.772 76.7156 104.058 76.7156Z" fill="#161616"/>
<path fill-rule="evenodd" clip-rule="evenodd" d="M98.979 97.1448V116.435C98.979 117.149 99.4231 117.69 99.9638 117.69H103.517C104.057 117.69 104.559 117.149 104.559 116.435V97.1448H98.979Z" fill="#2A2A2A"/>
<path fill-rule="evenodd" clip-rule="evenodd" d="M98.979 98.5156V111.511C98.979 111.993 99.4231 112.38 99.9638 112.38H103.517C104.057 112.38 104.559 111.993 104.559 111.511V98.5156H98.979Z" fill="#404040"/>
<path fill-rule="evenodd" clip-rule="evenodd" d="M103.845 69.2236H99.9641C97.9946 69.2236 96.3533 70.1505 96.3533 72.5062V91.8927C96.3533 94.2484 97.9946 95.2332 99.9641 95.2332H103.845C105.815 95.2332 107.456 94.2484 107.456 91.8927V72.5062C107.456 70.1505 105.815 69.2236 103.845 69.2236Z" fill="#254C82"/>
<path fill-rule="evenodd" clip-rule="evenodd" d="M103.845 69.2236H99.9643C98.8636 69.2236 97.8402 69.494 97.1837 70.2084C97.1258 70.4208 97.0679 70.7491 97.0679 71.0194V88.8804C97.0679 91.0044 98.4967 91.8927 100.235 91.8927H103.575C105.332 91.8927 106.742 91.0238 106.742 88.8804V71.0194C106.742 70.7491 106.684 70.4208 106.626 70.2084C105.969 69.494 104.946 69.2236 103.845 69.2236Z" fill="#325D99"/>
<path fill-rule="evenodd" clip-rule="evenodd" d="M103.401 69.2236H100.408C98.883 69.2236 97.6279 69.436 97.6279 70.0346V74.9971C97.6279 75.5957 98.883 75.8081 100.408 75.8081H103.421C104.946 75.8081 106.201 75.5957 106.201 74.9971V70.0346C106.201 69.4553 104.946 69.2236 103.401 69.2236Z" fill="#476EA5"/>
<path fill-rule="evenodd" clip-rule="evenodd" d="M96.3533 90.8692V91.9119C96.3533 94.2676 97.9946 95.2524 99.9641 95.2524H103.845C105.815 95.2524 107.456 94.2676 107.456 91.9119V90.8113C106.915 92.665 105.757 93.5918 103.363 93.5918C100.35 93.5918 97.1256 94.2483 96.3533 90.8692Z" fill="#22466D"/>
<path fill-rule="evenodd" clip-rule="evenodd" d="M78.1255 3.72675C76.5422 3.66882 74.785 3.93915 74.3602 3.84261C73.5878 3.63021 76.0015 2.20132 77.9131 2.20132C79.8247 2.1434 83.7059 2.08547 83.4935 3.72675C83.4162 4.05501 79.3227 3.72675 78.1255 3.72675Z" fill="#526EB2"/>
<path fill-rule="evenodd" clip-rule="evenodd" d="M29.5623 3.72675C31.1457 3.66882 32.9414 3.93915 33.3855 3.84261C34.1579 3.63021 31.6863 2.20132 29.8326 2.20132C27.921 2.1434 24.0399 2.08547 24.2523 3.72675C24.3102 4.05501 28.3458 3.72675 29.5623 3.72675Z" fill="#526EB2"/>
<path fill-rule="evenodd" clip-rule="evenodd" d="M6.179 71.6372C7.93614 71.6372 9.84776 71.9075 10.2726 71.753C11.0835 71.5406 8.95953 70.3241 6.89344 70.2855C4.86597 70.2276 0.444156 69.8993 0.656558 71.5985C0.714486 71.9075 4.86597 71.6951 6.179 71.6372ZM100.949 71.6372C99.1916 71.6372 97.6082 71.7916 97.1255 71.6951C96.3145 71.4247 98.5544 70.1697 100.678 70.1117C102.764 70.0538 107.012 69.9959 106.799 71.6372C106.742 72.0233 102.262 71.6951 100.949 71.6372Z" fill="#4562AF"/>
<path fill-rule="evenodd" clip-rule="evenodd" d="M60.747 103.691C74.4565 103.633 89.7494 103.903 93.5147 103.806C100.176 103.594 87.3937 100.968 71.0002 100.968C60.998 100.91 40.1826 100.254 26.9751 100.968C18.4984 101.412 13.98 103.053 14.6365 103.691C15.0227 104.019 50.2621 103.691 60.747 103.691Z" fill="#526EB2"/>
</g>
<defs>
<clipPath id="clip0_9_1944">
<rect width="107.456" height="187.28" fill="white"/>
</clipPath>
</defs>
</svg>
