<svg width="108" height="188" viewBox="0 0 108 188" fill="none" xmlns="http://www.w3.org/2000/svg">
<g clip-path="url(#clip0_9_1224)">
<path fill-rule="evenodd" clip-rule="evenodd" d="M14.4821 104.656C11.1416 100.388 14.4821 94.8273 17.8612 82.4308C21.2403 70.0343 27.0331 64.4539 19.7728 41.3601C12.5705 18.2469 10.7554 -5.67725 37.9621 2.45194C47.9064 5.40626 63.2572 4.42148 69.3782 2.45194C96.3146 -6.23722 95.8126 18.2469 88.6102 41.3408C81.4079 64.4539 87.1814 70.015 90.5219 82.4115C93.901 94.808 97.2994 100.388 93.901 104.636C55.7652 106.297 52.6564 106.297 14.4821 104.656Z" fill="#22466D"/>
<path fill-rule="evenodd" clip-rule="evenodd" d="M19.2323 102.802C16.278 98.5927 19.2323 93.1282 22.2445 80.944C25.1988 68.7599 30.2772 63.2954 23.9437 40.6264C17.5331 17.9766 15.9497 -5.52272 39.8739 2.39407C48.6596 5.34838 62.1567 4.36361 67.5633 2.39407C91.275 -6.12131 90.8309 17.9573 84.4975 40.6264C78.1061 63.2954 83.1845 68.7599 86.1967 80.944C89.151 93.1282 92.1053 98.5927 89.151 102.802C55.553 104.385 52.8303 104.385 19.2323 102.802Z" fill="#254C82"/>
<path fill-rule="evenodd" clip-rule="evenodd" d="M15.293 14.6361C16.0653 3.9774 22.0126 -2.2981 37.962 2.45197C47.9063 5.40629 63.2571 4.42151 69.3781 2.45197C84.8835 -2.56843 91.2748 3.43674 92.5878 13.8058C92.2017 23.9625 83.9566 26.9747 75.4412 27.6312C70.6332 27.9595 66.0956 27.5154 61.2296 26.7623C53.9114 25.6617 49.3158 26.6464 43.8513 27.1485C38.8889 27.5926 33.7912 27.9209 27.033 26.6658C19.6182 25.2948 16.1233 20.2744 15.293 14.6361Z" fill="#335376"/>
<path fill-rule="evenodd" clip-rule="evenodd" d="M20.3135 23.7694C18.3632 8.0903 22.0127 -3.55317 39.8737 2.39407C48.6594 5.34839 62.1566 4.36362 67.5632 2.39407C85.2698 -3.99728 89.5371 7.85859 87.8958 23.7115C84.6132 26.2217 80.0756 27.2644 75.4414 27.6506C70.6334 27.9788 66.0957 27.5347 61.2298 26.7816C53.9116 25.681 49.316 26.6658 43.8514 27.1678C38.889 27.6119 33.7913 27.9402 27.0331 26.6851C24.2526 26.1637 22.0706 25.121 20.3135 23.7694Z" fill="#37598B"/>
<path fill-rule="evenodd" clip-rule="evenodd" d="M20.603 2.95407C24.2139 0.501793 29.717 -0.000247061 37.9813 2.47134C47.9256 5.42565 63.2764 4.44088 69.3975 2.47134C76.0592 0.289391 81.0409 0.173536 84.6904 1.60242C89.5563 4.17055 87.0461 6.41042 81.0796 7.72345C69.7643 10.2916 45.9561 9.90539 33.1154 8.49582C19.29 6.87384 18.3052 5.34841 20.603 2.95407Z" fill="#44607F"/>
<path fill-rule="evenodd" clip-rule="evenodd" d="M21.8 6.44897C24.4261 1.19685 29.9292 -0.869236 39.8735 2.39402C48.6592 5.34834 62.1564 4.36357 67.5629 2.39402C77.2948 -1.10095 82.9717 0.926523 85.8102 6.06278C84.7675 6.71929 83.1262 7.25995 81.0601 7.70406C69.7449 10.2722 45.9366 9.88601 33.096 8.47643C27.3225 7.80061 23.8082 7.16341 21.8 6.44897Z" fill="#466592"/>
<path fill-rule="evenodd" clip-rule="evenodd" d="M20.6032 2.95407C24.214 0.501793 29.7751 -0.000247061 37.9815 2.47134C47.9258 5.42565 63.2766 4.44088 69.3976 2.47134C76.0593 0.289391 81.0411 0.173536 84.6906 1.60242C89.5565 4.17055 87.0463 6.41042 81.0797 7.72345C69.7645 10.2916 45.9562 9.90539 33.1156 8.49582C19.2322 6.87384 18.3054 5.34841 20.6032 2.95407Z" fill="#526C89"/>
<path fill-rule="evenodd" clip-rule="evenodd" d="M21.8 6.44897C24.4261 1.19685 29.9292 -0.869236 39.8735 2.39402C48.6592 5.34834 62.1564 4.36357 67.5629 2.39402C77.2948 -1.10095 82.9717 0.926523 85.8102 6.06278C84.7675 6.71929 83.1262 7.25995 81.0601 7.70406C69.7449 10.2722 45.9366 9.88601 33.096 8.47643C27.3225 7.80061 23.8082 7.16341 21.8 6.44897Z" fill="#537199"/>
<path fill-rule="evenodd" clip-rule="evenodd" d="M15.7369 89.6332C16.3934 87.5092 17.1658 85.1535 17.8609 82.4309C18.8457 78.7621 20.1008 75.7112 21.0855 72.6025C23.3254 69.2233 26.2797 66.2111 30.045 63.8554C48.8329 52.3278 77.2368 57.3482 86.428 72.0425C87.0266 73.0273 87.5672 73.9541 88.1272 74.9389C88.9382 77.2946 89.8264 79.6889 90.5216 82.4309C91.6608 86.5244 92.7614 89.8649 93.6303 92.6454V93.0316C93.36 93.4757 93.0318 93.8426 92.7035 94.2288C88.3396 99.3071 63.0445 98.5927 47.6357 98.5927C35.0075 98.5927 21.2979 96.7969 15.7948 92.8578C15.7369 91.8345 15.679 90.7338 15.7369 89.6332Z" fill="#335376"/>
<path fill-rule="evenodd" clip-rule="evenodd" d="M18.6335 94.4026C19.4059 91.0621 20.8155 86.8141 22.2444 80.9634C23.5574 75.6147 25.2566 71.5212 26.2414 66.7132C27.3806 65.6705 28.6937 64.7436 30.0646 63.8747C46.5547 53.718 70.5368 56.3827 82.2961 67.1573C83.2809 71.7915 84.9801 75.7885 86.2352 80.9827C87.8765 87.7023 89.5178 92.3944 90.1163 95.8894C82.1416 99.172 61.1718 98.612 47.6746 98.612C36.8228 98.5927 25.1794 97.299 18.6335 94.4026Z" fill="#37598B"/>
<path fill-rule="evenodd" clip-rule="evenodd" d="M45.4542 3.70709C51.3628 4.576 58.0245 4.30567 62.8712 3.55261C68.606 15.2926 60.6892 46.3805 62.0988 64.3574C62.9677 75.6147 64.9372 86.5823 67.0226 91.8344C69.1467 97.1831 70.5755 100.311 68.9922 103.69C57.7928 104.134 50.5905 104.134 39.4297 103.69C37.8464 100.311 39.2173 97.1831 41.3414 91.8344C43.4654 86.5823 45.4349 75.6147 46.3038 64.3574C47.752 46.3805 39.8159 15.505 45.4542 3.70709Z" fill="#161616"/>
<path fill-rule="evenodd" clip-rule="evenodd" d="M47.1919 3.93878C51.942 4.42151 57.0203 4.32496 61.1139 3.7843C65.1495 16.0843 59.2602 46.6701 60.3029 64.4732C61.0173 75.7885 62.4848 86.814 64.1261 92.1241C65.7674 97.3762 66.8101 100.543 65.7095 103.806C57.3486 104.076 51.0151 104.076 42.6542 103.806C41.5536 100.524 42.6542 97.3569 44.2376 92.1241C45.8789 86.8333 47.4043 75.7885 48.0608 64.4732C49.1614 46.5929 43.2721 16.2195 47.1919 3.93878Z" fill="#2A2A2A"/>
<path fill-rule="evenodd" clip-rule="evenodd" d="M61.9444 58.0626C61.8865 60.3025 61.9444 62.3686 62.0989 64.3381C62.9678 75.5954 64.9374 86.5631 67.0228 91.8152C68.1234 94.4992 68.9923 96.6232 69.3785 98.4769C61.8865 98.6893 53.9697 98.5927 47.6363 98.5927C44.7978 98.5927 41.9014 98.4769 39.063 98.3224C39.5071 96.4687 40.3181 94.3833 41.3608 91.8152C43.4848 86.5631 45.4543 75.5954 46.3233 64.3381C46.4777 62.3686 46.4777 60.1867 46.4777 57.9468C48.8335 57.5606 51.2857 57.4061 53.7959 57.4061C56.5958 57.4061 59.3184 57.6378 61.9444 58.0626Z" fill="#292929"/>
<path fill-rule="evenodd" clip-rule="evenodd" d="M60.2066 57.7923C60.1486 60.148 60.2066 62.3879 60.3224 64.454C61.0369 75.7692 62.5044 86.7948 64.1457 92.1048C64.9566 94.673 65.6132 96.739 65.9414 98.5541C59.4921 98.67 53.0042 98.612 47.6363 98.612C45.937 98.612 44.1992 98.5541 42.5 98.4962C42.8283 96.7004 43.4848 94.615 44.2571 92.1048C45.8984 86.8141 47.4239 75.7692 48.0804 64.454C48.2348 62.3686 48.2348 60.0901 48.1962 57.6765C50.0499 57.522 51.9036 57.4061 53.8152 57.4061C55.9972 57.4061 58.1212 57.522 60.2066 57.7923Z" fill="#3B3B3B"/>
<path fill-rule="evenodd" clip-rule="evenodd" d="M45.454 3.70709C51.3626 4.576 58.0243 4.30567 62.8709 3.55261C65.3811 8.63094 65.2653 17.4746 64.5122 27.2644C63.4116 27.1099 62.3303 26.9361 61.2296 26.7816C53.9694 25.681 49.3158 26.6658 43.9093 27.1678C43.0983 17.4746 42.9824 8.78542 45.454 3.70709Z" fill="#292929"/>
<path fill-rule="evenodd" clip-rule="evenodd" d="M47.192 3.93878C51.942 4.42151 57.0204 4.32496 61.1139 3.7843C62.8711 9.03641 62.7552 17.4939 62.1566 26.9554L61.2298 26.8009C54.9929 25.8741 50.7449 26.4727 46.2072 26.9554C45.6086 17.5325 45.5507 9.11365 47.192 3.93878Z" fill="#3B3B3B"/>
<path fill-rule="evenodd" clip-rule="evenodd" d="M45.4542 3.70709C51.3628 4.576 58.0245 4.30567 62.8711 3.55261C63.6821 5.13597 64.1842 7.16344 64.5124 9.46124C57.7349 9.67364 50.4167 9.57709 43.8708 9.30677C44.1991 7.10551 44.6818 5.25182 45.4542 3.70709Z" fill="#3A3A3A"/>
<path fill-rule="evenodd" clip-rule="evenodd" d="M47.1916 3.93878C51.9417 4.42151 57.0201 4.32496 61.1136 3.7843C61.6543 5.42559 61.9825 7.3372 62.2529 9.51915C56.9042 9.635 51.3238 9.57707 46.1296 9.36467C46.3807 7.31789 46.7089 5.46421 47.1916 3.93878Z" fill="#4A4A4A"/>
<path fill-rule="evenodd" clip-rule="evenodd" d="M15.4669 128.425L53.6605 125.085L54.1433 126.456L16.2779 129.738C14.5207 133.774 9.40377 132.307 8.51554 130.607C7.82041 129.198 10.4851 125.857 15.4669 128.425Z" fill="#262626"/>
<path fill-rule="evenodd" clip-rule="evenodd" d="M10.8133 128.368C11.4119 128.213 11.9139 128.425 11.9139 128.812C11.9139 129.256 11.4312 129.681 10.8133 129.854C10.2147 130.009 9.71265 129.796 9.71265 129.41C9.73196 128.966 10.2147 128.541 10.8133 128.368Z" fill="#545454"/>
<path d="M57.2325 130.607H50.3584V161.309H57.2325V130.607Z" fill="#414141"/>
<path d="M56.4795 131.052H53.5251V161.309H56.4795V131.052Z" fill="#2A2A2A"/>
<path d="M55.7265 131.109H54.7417V161.309H55.7265V131.109Z" fill="#AAAAAA"/>
<path d="M51.4592 131.109H51.073V161.309H51.4592V131.109Z" fill="#AAAAAA"/>
<path fill-rule="evenodd" clip-rule="evenodd" d="M58.7769 127.344V133.021H48.9485V127.402C49.2188 126.533 51.1304 126.031 53.8144 126.031C56.4212 126.031 58.2942 126.301 58.7769 127.344Z" fill="#414141"/>
<path fill-rule="evenodd" clip-rule="evenodd" d="M56.9816 126.244V133.021H50.7061V126.301C51.517 126.147 52.6177 126.031 53.8148 126.031C55.0699 126.031 56.1513 126.07 56.9816 126.244Z" fill="#2A2A2A"/>
<path fill-rule="evenodd" clip-rule="evenodd" d="M83.8022 120.393L70.2472 127.016L59.6464 128.368L54.2977 128.483L48.5629 128.425L36.4367 127.016L22.8816 120.393H83.8022Z" fill="#333333"/>
<path fill-rule="evenodd" clip-rule="evenodd" d="M81.5045 120.393L71.7726 124.602H38.1746L25.1794 120.393H81.5045ZM68.548 125.741C64.0103 126.997 45.821 126.842 40.4144 125.741H68.548Z" fill="#1B1B1B"/>
<path fill-rule="evenodd" clip-rule="evenodd" d="M100.736 113.248C100.736 125.819 6.71948 125.819 6.71948 113.248C6.71948 110.68 6.93188 107.012 9.61587 105.39C17.5327 100.466 36.224 101.624 53.8147 101.682C71.3475 101.682 90.2513 100.582 97.8398 105.563C100.408 107.185 100.736 110.719 100.736 113.248Z" fill="#254C82"/>
<path fill-rule="evenodd" clip-rule="evenodd" d="M9.61589 105.37C17.5327 100.446 36.224 101.605 53.8147 101.663C70.0345 101.663 87.3549 100.736 95.9282 104.501C101.18 109.039 96.9129 111.549 80.1332 111.337C63.4114 111.124 40.0859 110.796 32.3429 110.796C30.914 110.777 0.154363 111.221 9.61589 105.37Z" fill="#325D99"/>
<path fill-rule="evenodd" clip-rule="evenodd" d="M11.5855 104.328C20.3325 100.62 37.5371 101.605 53.8148 101.644C69.3201 101.644 85.8874 100.833 94.789 103.999C96.3723 104.984 96.3144 107.707 87.2584 107.765C80.056 107.822 67.756 107.552 54.6451 107.494C40.9934 107.494 33.7718 107.88 24.2716 107.822C12.242 107.784 9.77039 105.814 11.5855 104.328Z" fill="#476EA5"/>
<path fill-rule="evenodd" clip-rule="evenodd" d="M100.736 113.248C100.736 125.915 7.16359 125.49 6.71948 113.519C8.57317 116.685 10.0986 115.759 21.0856 116.087C32.1111 116.415 83.5316 116.627 90.1354 116.473C96.7971 116.261 99.4231 116.087 100.62 110.951C100.736 111.665 100.736 112.476 100.736 113.248Z" fill="#22466D"/>
<path fill-rule="evenodd" clip-rule="evenodd" d="M98.5549 171.524H98.497L58.2372 155.574L54.2402 155.458L95.1565 171.466L98.5549 171.524Z" fill="#6A6A6A"/>
<path fill-rule="evenodd" clip-rule="evenodd" d="M94.7703 174.208L54.2402 162.236V155.458L95.1565 171.466L94.7703 174.208Z" fill="#222222"/>
<path fill-rule="evenodd" clip-rule="evenodd" d="M98.5549 171.524V171.582L97.9563 177.587L94.7703 177.915L94.3455 173.995L95.002 171.427L98.5549 171.524Z" fill="#161616"/>
<path fill-rule="evenodd" clip-rule="evenodd" d="M9.50024 171.524L49.76 155.574L53.8149 155.458L12.8407 171.466L9.50024 171.524Z" fill="#6A6A6A"/>
<path fill-rule="evenodd" clip-rule="evenodd" d="M13.2268 174.208L53.8148 162.236V155.458L12.8406 171.466L13.2268 174.208Z" fill="#161616"/>
<path fill-rule="evenodd" clip-rule="evenodd" d="M9.50024 171.524V171.582L10.0602 177.587L13.2269 177.915L13.6517 173.995L12.9952 171.427L9.50024 171.524Z" fill="#161616"/>
<path fill-rule="evenodd" clip-rule="evenodd" d="M49.8186 155.362H58.1795V165.132C55.1673 165.576 52.3867 165.576 49.8186 165.132V155.362Z" fill="#2A2A2A"/>
<path d="M56.9237 155.42H51.073V165.152H56.9237V155.42Z" fill="#414141"/>
<path d="M53.6415 155.42H52.0581V165.152H53.6415V155.42Z" fill="#343434"/>
<path d="M58.1795 155.149H49.8186V155.478H58.1795V155.149Z" fill="#727272"/>
<path fill-rule="evenodd" clip-rule="evenodd" d="M33.5405 171.466L51.2471 155.574L53.8152 155.458L35.9542 171.466H33.5405Z" fill="#6A6A6A"/>
<path fill-rule="evenodd" clip-rule="evenodd" d="M37.1515 173.667L53.8154 162.236V155.458L35.9543 171.466L37.1515 173.667Z" fill="#1D1D1D"/>
<path fill-rule="evenodd" clip-rule="evenodd" d="M33.5401 171.466L33.4822 171.582L33.9263 177.587L36.9772 178.147L37.1509 173.609L36.0503 171.427L33.5401 171.466Z" fill="#161616"/>
<path fill-rule="evenodd" clip-rule="evenodd" d="M74.457 171.466L56.7504 155.574L54.2402 155.458L72.0627 171.466H74.457Z" fill="#727272"/>
<path fill-rule="evenodd" clip-rule="evenodd" d="M70.8462 173.667L54.2402 162.236V155.458L72.0627 171.466L70.8462 173.667Z" fill="#2D2D2D"/>
<path fill-rule="evenodd" clip-rule="evenodd" d="M74.4568 171.466L74.5147 171.582L74.0706 177.587L71.0197 178.147L70.8459 173.609L71.9466 171.427L74.4568 171.466Z" fill="#262626"/>
<path fill-rule="evenodd" clip-rule="evenodd" d="M9.55824 175.791C5.61915 177.046 5.79294 183.495 7.76248 186.006C8.8631 187.377 10.6009 187.763 12.1264 187.705C13.3815 187.589 14.1538 187.434 15.2352 186.836C16.8185 185.967 17.4171 183.167 17.3592 181.429C17.3012 179.189 16.4323 177.336 15.0614 176.351C13.6518 175.347 11.5857 175.134 9.55824 175.791Z" fill="#2A2A2A"/>
<path fill-rule="evenodd" clip-rule="evenodd" d="M9.55828 175.791C8.90176 176.003 8.3611 176.332 7.91699 176.834L8.72798 176.776C11.412 176.988 12.8795 177.818 13.536 180.715C13.7484 181.487 14.7332 181.255 15.5634 181.255C16.4903 181.198 17.3592 181.468 17.3206 180.445L17.2627 180.29C16.9923 178.533 16.22 177.181 15.0807 176.351C13.6518 175.347 11.5857 175.134 9.55828 175.791Z" fill="#404040"/>
<path fill-rule="evenodd" clip-rule="evenodd" d="M10.9873 177.316C11.7597 177.645 12.3583 178.185 12.841 178.9H16.9345C16.6642 178.185 16.336 177.587 15.8919 177.104H10.9873V177.316Z" fill="#4A4A4A"/>
<path fill-rule="evenodd" clip-rule="evenodd" d="M13.111 177.857C11.74 175.347 9.40359 175.019 7.76231 177.085C6.17895 179.17 5.96655 182.935 7.27958 185.446C8.65053 187.956 11.0449 188.284 12.6282 186.218C14.2502 184.094 14.4819 180.387 13.111 177.857Z" fill="#2A2A2A"/>
<path fill-rule="evenodd" clip-rule="evenodd" d="M12.6668 177.761C11.4696 175.463 9.11389 175.405 7.70432 177.316C7.0478 178.185 6.71955 179.228 6.60369 180.483C6.44922 182.009 6.81609 183.862 7.41468 185.175C8.61185 187.473 10.7552 187.801 12.1648 185.832C12.9371 184.847 13.5357 183.264 13.5936 181.738C13.6516 180.425 13.2268 178.842 12.6668 177.761Z" fill="#414141"/>
<path fill-rule="evenodd" clip-rule="evenodd" d="M7.4922 185.195C8.7473 187.492 10.9872 187.821 12.4547 185.851C13.0533 185.079 13.4394 184.094 13.5553 183.071C13.9415 180.773 13.4008 178.977 12.3581 177.78C11.2575 176.409 9.46175 176.081 7.99424 177.992C7.22188 178.977 6.73914 180.889 6.855 182.684C6.87431 183.495 7.16395 184.538 7.4922 185.195Z" fill="#1B1B1B"/>
<path d="M12.3387 178.842C11.856 177.915 11.1416 177.374 10.4271 177.259C9.71267 177.143 8.95961 177.471 8.34171 178.243C7.74313 179.054 7.41487 180.155 7.35694 181.256C7.29901 182.395 7.51142 183.553 8.01346 184.48C8.49619 185.407 9.21063 185.948 9.92507 186.064C10.6395 186.179 11.3926 185.851 12.0105 185.021C12.6091 184.248 12.9373 183.167 12.9952 182.067C13.0532 180.927 12.8987 179.769 12.3387 178.842ZM10.3885 178.147C10.9871 178.263 11.5277 178.687 11.9139 179.402C12.358 180.174 12.5125 181.101 12.4546 181.97C12.3967 182.897 12.1263 183.727 11.6436 184.364C11.1609 184.963 10.543 185.233 10.0023 185.137C9.40372 185.079 8.86306 184.654 8.47688 183.939C8.09069 183.167 7.93622 182.24 7.93622 181.371C7.99415 180.445 8.26448 179.576 8.74721 178.977C9.22994 178.359 9.82853 178.089 10.3885 178.147Z" fill="#545454"/>
<path fill-rule="evenodd" clip-rule="evenodd" d="M98.1687 175.791C102.05 177.046 101.934 183.495 99.9644 186.006C98.8638 187.377 97.126 187.763 95.6005 187.705C94.3454 187.589 93.5151 187.434 92.4918 186.836C90.9084 185.967 90.3098 183.167 90.3098 181.429C90.4257 179.189 91.2946 177.336 92.6655 176.351C94.0751 175.347 96.1412 175.134 98.1687 175.791Z" fill="#2A2A2A"/>
<path fill-rule="evenodd" clip-rule="evenodd" d="M98.1684 175.791C98.8249 176.003 99.3656 176.332 99.8097 176.834L98.9987 176.776C96.3147 176.988 94.8472 177.818 94.1328 180.715C93.9783 181.487 92.9935 181.255 92.1632 181.255C91.1785 181.198 90.3675 181.468 90.4061 180.445L90.464 180.29C90.7344 178.533 91.5067 177.181 92.646 176.351C94.0749 175.347 96.1409 175.134 98.1684 175.791Z" fill="#404040"/>
<path fill-rule="evenodd" clip-rule="evenodd" d="M96.739 177.316C95.9666 177.645 95.368 178.185 94.8853 178.9H90.7917C91.0041 178.185 91.3903 177.587 91.8344 177.104H96.739V177.316Z" fill="#4A4A4A"/>
<path fill-rule="evenodd" clip-rule="evenodd" d="M94.6152 177.857C95.9282 175.347 98.3226 175.019 99.9639 177.085C101.547 179.17 101.76 182.935 100.447 185.446C99.0756 187.956 96.6813 188.284 95.0979 186.218C93.4759 184.094 93.2442 180.387 94.6152 177.857Z" fill="#2A2A2A"/>
<path fill-rule="evenodd" clip-rule="evenodd" d="M95.0593 177.761C96.1986 175.463 98.5543 175.405 100.022 177.316C100.62 178.185 101.007 179.228 101.122 180.483C101.277 182.009 100.91 183.862 100.254 185.175C99.1143 187.473 96.9709 187.801 95.5614 185.832C94.789 184.847 94.1904 183.264 94.1325 181.738C94.0746 180.425 94.4994 178.842 95.0593 177.761Z" fill="#414141"/>
<path fill-rule="evenodd" clip-rule="evenodd" d="M100.234 185.195C98.9791 187.492 96.7392 187.821 95.2717 185.851C94.6731 185.079 94.2869 184.094 94.1325 183.071C93.8042 180.773 94.3449 178.977 95.3296 177.78C96.4689 176.409 98.2839 176.081 99.7514 177.992C100.466 178.977 101.007 180.889 100.891 182.684C100.833 183.495 100.562 184.538 100.234 185.195Z" fill="#1B1B1B"/>
<path d="M95.3294 178.842C95.8701 177.915 96.5266 177.374 97.241 177.259C98.0134 177.143 98.7085 177.471 99.3264 178.243C99.925 179.054 100.311 180.155 100.369 181.256C100.427 182.395 100.215 183.553 99.7126 184.48C99.2299 185.407 98.5154 185.948 97.801 186.064C97.0866 186.179 96.3335 185.851 95.7156 185.021C95.117 184.248 94.7888 183.167 94.7308 182.067C94.615 180.927 94.8274 179.769 95.3294 178.842ZM97.299 178.147C96.7583 178.263 96.1983 178.687 95.7735 179.402C95.3873 180.174 95.2329 181.101 95.2908 181.97C95.3487 182.897 95.6191 183.727 96.1018 184.364C96.5845 184.963 97.1445 185.233 97.7431 185.137C98.2837 185.079 98.8823 184.654 99.2685 183.939C99.6547 183.167 99.8092 182.24 99.7512 181.371C99.6933 180.445 99.423 179.576 98.9789 178.977C98.4961 178.359 97.8975 178.089 97.299 178.147Z" fill="#545454"/>
<path fill-rule="evenodd" clip-rule="evenodd" d="M76.0973 177.587C73.8574 174.961 69.9183 174.575 67.2536 176.814C64.5696 178.996 64.2028 182.993 66.4426 185.658C68.6825 188.342 72.6216 188.67 75.2863 186.43C77.951 184.248 78.3371 180.271 76.0973 177.587Z" fill="#2A2A2A"/>
<path fill-rule="evenodd" clip-rule="evenodd" d="M75.8271 177.529C73.7997 175.019 69.7061 174.961 67.2538 177.046C66.1532 177.973 65.4967 179.074 65.3422 180.425C65.0719 182.009 65.6705 184.036 66.8097 185.349C68.8372 187.801 72.5445 188.13 74.9968 186.121C76.3098 185.021 77.3526 183.341 77.4491 181.758C77.507 180.387 76.8119 178.687 75.8271 177.529Z" fill="#414141"/>
<path fill-rule="evenodd" clip-rule="evenodd" d="M66.8099 185.349C68.8374 187.801 72.5447 188.13 74.997 186.121C75.9818 185.31 76.5804 184.268 76.8507 183.109C77.3914 180.715 76.5224 178.803 74.8232 177.49C73.0275 176.023 70.0152 175.694 67.563 177.761C66.3658 178.745 65.4776 180.811 65.7093 182.723C65.7672 183.592 66.2692 184.693 66.8099 185.349Z" fill="#1B1B1B"/>
<path d="M74.8428 178.63C74.0318 177.645 72.8733 177.104 71.6761 176.988C70.5369 176.872 69.2818 177.201 68.297 178.031C67.3122 178.842 66.7136 180 66.5978 181.198C66.4819 182.395 66.8681 183.65 67.6984 184.635C68.5094 185.619 69.6679 186.16 70.8651 186.276C72.0623 186.392 73.2595 186.064 74.2442 185.233C75.2869 184.422 75.8276 183.264 75.9434 182.067C76.04 180.869 75.7117 179.614 74.8428 178.63ZM71.6182 177.915C72.545 178.031 73.4719 178.456 74.1284 179.228C74.7849 180.039 75.0552 181.024 74.9973 181.951C74.8814 182.935 74.4566 183.804 73.6263 184.519C72.854 185.175 71.8692 185.446 70.9037 185.33C69.9769 185.272 69.0501 184.789 68.3935 184.017C67.737 183.206 67.4667 182.221 67.5826 181.294C67.6405 180.309 68.0653 179.441 68.8956 178.784C69.6486 178.089 70.6334 177.819 71.6182 177.915Z" fill="#545454"/>
<path fill-rule="evenodd" clip-rule="evenodd" d="M30.4892 177.587C32.6711 174.961 36.6681 174.575 39.3328 176.814C42.0168 178.996 42.345 182.993 40.1052 185.658C37.9232 188.342 33.9262 188.67 31.2615 186.43C28.6162 184.248 28.2493 180.271 30.4892 177.587Z" fill="#2A2A2A"/>
<path fill-rule="evenodd" clip-rule="evenodd" d="M30.7019 177.529C32.7872 175.019 36.8229 174.961 39.2752 177.046C40.4144 177.973 41.0323 179.074 41.2447 180.425C41.515 182.009 40.8585 184.036 39.7772 185.349C37.6918 187.801 34.0423 188.13 31.5901 186.121C30.277 185.021 29.1957 183.341 29.1378 181.758C29.0606 180.387 29.775 178.687 30.7019 177.529Z" fill="#414141"/>
<path fill-rule="evenodd" clip-rule="evenodd" d="M39.7771 185.349C37.6917 187.801 34.0422 188.13 31.59 186.121C30.6052 185.31 29.9487 184.268 29.7363 183.109C29.1956 180.715 30.0645 178.803 31.7058 177.49C33.5595 176.023 36.5717 175.694 39.024 177.761C40.2212 178.745 41.1094 180.811 40.8777 182.723C40.7425 183.592 40.3177 184.693 39.7771 185.349Z" fill="#1B1B1B"/>
<path d="M31.6866 178.63C32.4976 177.645 33.6561 177.104 34.8533 176.988C36.0505 176.872 37.3056 177.201 38.2903 178.031C39.2751 178.842 39.8158 180 39.9316 181.198C40.0475 182.395 39.7192 183.65 38.8889 184.635C38.0779 185.619 36.9194 186.16 35.7222 186.276C34.525 186.392 33.2699 186.064 32.2852 185.233C31.3004 184.422 30.7597 183.264 30.6439 182.067C30.528 180.869 30.8563 179.614 31.6866 178.63ZM34.9691 177.915C33.9844 178.031 33.1155 178.456 32.4589 179.228C31.7445 180.039 31.4742 181.024 31.59 181.951C31.7059 182.935 32.1307 183.804 32.9031 184.519C33.714 185.175 34.6988 185.446 35.6257 185.33C36.6104 185.272 37.4793 184.789 38.1938 184.017C38.8503 183.206 39.1206 182.221 39.0048 181.294C38.9469 180.309 38.4641 179.441 37.6917 178.784C36.8808 178.089 35.896 177.819 34.9691 177.915Z" fill="#545454"/>
<path fill-rule="evenodd" clip-rule="evenodd" d="M3.37919 77.3525H8.01341C8.72785 77.3525 9.26851 77.9511 9.26851 78.6656V117.014C9.26851 117.728 8.72785 118.327 8.01341 118.327H3.37919C2.66475 118.327 2.06616 117.728 2.06616 117.014V78.6656C2.08547 77.9511 2.68406 77.3525 3.37919 77.3525Z" fill="#161616"/>
<path fill-rule="evenodd" clip-rule="evenodd" d="M8.4771 97.7817V117.072C8.4771 117.786 8.03299 118.327 7.49233 118.327H3.93943C3.39877 118.327 2.89673 117.786 2.89673 117.072V97.7817H8.4771Z" fill="#2A2A2A"/>
<path fill-rule="evenodd" clip-rule="evenodd" d="M8.4771 99.1527V112.148C8.4771 112.631 8.03299 113.017 7.49233 113.017H3.93943C3.39877 113.017 2.89673 112.631 2.89673 112.148V99.1527H8.4771Z" fill="#404040"/>
<path fill-rule="evenodd" clip-rule="evenodd" d="M3.61132 69.8606H7.49247C9.51994 69.8606 11.1612 70.7874 11.1612 73.1432V92.5296C11.1612 94.8854 9.51994 95.8701 7.49247 95.8701H3.61132C1.64177 95.8701 0.000488281 94.8854 0.000488281 92.5296V73.1432C0.000488281 70.7874 1.64177 69.8606 3.61132 69.8606Z" fill="#254C82"/>
<path fill-rule="evenodd" clip-rule="evenodd" d="M3.61099 69.8606H7.49214C8.59277 69.8606 9.61616 70.1309 10.2727 70.8454C10.3306 71.0578 10.3885 71.386 10.3885 71.6564V89.5174C10.3885 91.6414 8.95964 92.5296 7.22181 92.5296H3.88131C2.12417 92.5296 0.7146 91.6607 0.7146 89.5174V71.6564C0.7146 71.386 0.772527 71.0578 0.830455 70.8454C1.46766 70.1309 2.51036 69.8606 3.61099 69.8606Z" fill="#325D99"/>
<path fill-rule="evenodd" clip-rule="evenodd" d="M4.03566 69.8606H7.0479C8.57333 69.8606 9.82843 70.073 9.82843 70.6716V75.6341C9.82843 76.2326 8.57333 76.445 7.0479 76.445H4.03566C2.51023 76.445 1.25513 76.2326 1.25513 75.6341V70.6716C1.25513 70.0923 2.51023 69.8606 4.03566 69.8606Z" fill="#476EA5"/>
<path fill-rule="evenodd" clip-rule="evenodd" d="M11.1419 91.5062V92.5489C11.1419 94.9046 9.50063 95.8894 7.47316 95.8894H3.61132C1.64177 95.8701 0.000488281 94.8853 0.000488281 92.5296V91.429C0.541147 93.2826 1.6997 94.2095 4.09405 94.2095C7.10629 94.2288 10.3309 94.8853 11.1419 91.5062Z" fill="#22466D"/>
<path fill-rule="evenodd" clip-rule="evenodd" d="M104.058 77.3525H99.4238C98.7094 77.3525 98.1687 77.9511 98.1687 78.6656V117.014C98.1687 117.728 98.7094 118.327 99.4238 118.327H104.058C104.772 118.327 105.371 117.728 105.371 117.014V78.6656C105.371 77.9511 104.772 77.3525 104.058 77.3525Z" fill="#161616"/>
<path fill-rule="evenodd" clip-rule="evenodd" d="M98.979 97.7817V117.072C98.979 117.786 99.4231 118.327 99.9638 118.327H103.517C104.057 118.327 104.559 117.786 104.559 117.072V97.7817H98.979Z" fill="#2A2A2A"/>
<path fill-rule="evenodd" clip-rule="evenodd" d="M98.979 99.1527V112.148C98.979 112.631 99.4231 113.017 99.9638 113.017H103.517C104.057 113.017 104.559 112.631 104.559 112.148V99.1527H98.979Z" fill="#404040"/>
<path fill-rule="evenodd" clip-rule="evenodd" d="M103.845 69.8606H99.9641C97.9946 69.8606 96.3533 70.7874 96.3533 73.1432V92.5296C96.3533 94.8854 97.9946 95.8701 99.9641 95.8701H103.845C105.815 95.8701 107.456 94.8854 107.456 92.5296V73.1432C107.456 70.7874 105.815 69.8606 103.845 69.8606Z" fill="#254C82"/>
<path fill-rule="evenodd" clip-rule="evenodd" d="M103.845 69.8606H99.9643C98.8636 69.8606 97.8402 70.1309 97.1837 70.8454C97.1258 71.0578 97.0679 71.386 97.0679 71.6564V89.5174C97.0679 91.6414 98.4967 92.5296 100.235 92.5296H103.575C105.332 92.5296 106.742 91.6607 106.742 89.5174V71.6564C106.742 71.386 106.684 71.0578 106.626 70.8454C105.969 70.1309 104.946 69.8606 103.845 69.8606Z" fill="#325D99"/>
<path fill-rule="evenodd" clip-rule="evenodd" d="M103.401 69.8606H100.408C98.883 69.8606 97.6279 70.073 97.6279 70.6716V75.6341C97.6279 76.2326 98.883 76.445 100.408 76.445H103.421C104.946 76.445 106.201 76.2326 106.201 75.6341V70.6716C106.201 70.0923 104.946 69.8606 103.401 69.8606Z" fill="#476EA5"/>
<path fill-rule="evenodd" clip-rule="evenodd" d="M96.3533 91.5062V92.5489C96.3533 94.9046 97.9946 95.8894 99.9641 95.8894H103.845C105.815 95.8894 107.456 94.9046 107.456 92.5489V91.4482C106.915 93.3019 105.757 94.2288 103.363 94.2288C100.35 94.2288 97.1256 94.8853 96.3533 91.5062Z" fill="#22466D"/>
<path fill-rule="evenodd" clip-rule="evenodd" d="M78.1255 4.36359C76.5422 4.30567 74.785 4.576 74.3602 4.47945C73.5878 4.26705 76.0015 2.83816 77.9131 2.83816C79.8247 2.78024 83.7059 2.72231 83.4935 4.36359C83.4162 4.69185 79.3227 4.36359 78.1255 4.36359Z" fill="#526EB2"/>
<path fill-rule="evenodd" clip-rule="evenodd" d="M29.5626 4.36359C31.1459 4.30567 32.9417 4.576 33.3858 4.47945C34.1582 4.26705 31.6866 2.83816 29.8329 2.83816C27.9213 2.78024 24.0401 2.72231 24.2525 4.36359C24.3104 4.69185 28.3461 4.36359 29.5626 4.36359Z" fill="#526EB2"/>
<path fill-rule="evenodd" clip-rule="evenodd" d="M6.179 72.2741C7.93614 72.2741 9.84776 72.5444 10.2726 72.39C11.0835 72.1776 8.95953 70.9611 6.89344 70.9225C4.86597 70.8645 0.444156 70.5363 0.656558 72.2355C0.714486 72.5444 4.86597 72.332 6.179 72.2741ZM100.949 72.2741C99.1916 72.2741 97.6082 72.4286 97.1255 72.332C96.3145 72.0617 98.5544 70.8066 100.678 70.7487C102.764 70.6908 107.012 70.6328 106.799 72.2741C106.742 72.6603 102.262 72.332 100.949 72.2741Z" fill="#4562AF"/>
<path fill-rule="evenodd" clip-rule="evenodd" d="M60.747 104.328C74.4565 104.27 89.7494 104.54 93.5147 104.443C100.176 104.231 87.3937 101.605 71.0002 101.605C60.998 101.547 40.1826 100.891 26.9751 101.605C18.4984 102.049 13.98 103.69 14.6365 104.328C15.0227 104.656 50.2621 104.328 60.747 104.328Z" fill="#526EB2"/>
</g>
<defs>
<clipPath id="clip0_9_1224">
<rect width="107.456" height="187.28" fill="white" transform="translate(0 0.636963)"/>
</clipPath>
</defs>
</svg>
